Exo2-LightItalic.ufo
<glyph name="exclam" format="2">
  <advance width="252"/>
  <unicode hex="0021"/>
  <outline>
    <contour>
      <point x="195" y="695" type="line"/>
      <point x="170" y="695" type="line"/>
      <point x="122" y="354" type="line"/>
      <point x="103" y="203" type="line"/>
      <point x="124" y="203" type="line"/>
      <point x="147" y="354" type="line"/>
    </contour>
    <contour>
      <point x="103" y="86" type="curve" smooth="yes"/>
      <point x="92" y="86" type="line" smooth="yes"/>
      <point x="84" y="86"/>
      <point x="80" y="82"/>
      <point x="79" y="74" type="curve" smooth="yes"/>
      <point x="70" y="13" type="line" smooth="yes"/>
      <point x="69" y="5"/>
      <point x="73" y="0"/>
      <point x="81" y="0" type="curve" smooth="yes"/>
      <point x="91" y="0" type="line" smooth="yes"/>
      <point x="99" y="0"/>
      <point x="103" y="3"/>
      <point x="104" y="11" type="curve" smooth="yes"/>
      <point x="113" y="73" type="line" smooth="yes"/>
      <point x="114" y="82"/>
      <point x="111" y="86"/>
    </contour>
  </outline>
</glyph>
<glyph name="quotedbl" format="2">
  <advance width="321"/>
  <unicode hex="0022"/>
  <outline>
    <contour>
      <point x="291" y="690" type="line"/>
      <point x="267" y="690" type="line"/>
      <point x="240" y="482" type="line"/>
      <point x="260" y="482" type="line"/>
    </contour>
    <contour>
      <point x="164" y="690" type="line"/>
      <point x="140" y="690" type="line"/>
      <point x="113" y="482" type="line"/>
      <point x="133" y="482" type="line"/>
    </contour>
  </outline>
</glyph>
<glyph name="ampersand" format="2">
  <advance width="791"/>
  <unicode hex="0026"/>
  <outline>
    <contour>
      <point x="388" y="698" type="curve" smooth="yes"/>
      <point x="237" y="698"/>
      <point x="170" y="665"/>
      <point x="145" y="523" type="curve" smooth="yes"/>
      <point x="128" y="426"/>
      <point x="154" y="367"/>
      <point x="259" y="360" type="curve"/>
      <point x="259" y="356" type="line"/>
      <point x="141" y="354"/>
      <point x="77" y="299"/>
      <point x="56" y="176" type="curve" smooth="yes"/>
      <point x="31" y="27"/>
      <point x="93" y="-16"/>
      <point x="241" y="-11" type="curve" smooth="yes"/>
      <point x="358" y="-7"/>
      <point x="453" y="26"/>
      <point x="527" y="151" type="curve" smooth="yes"/>
      <point x="584" y="247"/>
      <point x="608" y="358"/>
      <point x="607" y="521" type="curve"/>
      <point x="583" y="521" type="line"/>
      <point x="586" y="371"/>
      <point x="562" y="256"/>
      <point x="507" y="163" type="curve" smooth="yes"/>
      <point x="442" y="53"/>
      <point x="355" y="12"/>
      <point x="219" y="12" type="curve" smooth="yes"/>
      <point x="126" y="12"/>
      <point x="56" y="30"/>
      <point x="82" y="172" type="curve" smooth="yes"/>
      <point x="110" y="326"/>
      <point x="183" y="345"/>
      <point x="343" y="347" type="curve" smooth="yes"/>
      <point x="742" y="347" type="line"/>
      <point x="748" y="368" type="line"/>
      <point x="344" y="368" type="line" smooth="yes"/>
      <point x="201" y="368"/>
      <point x="148" y="399"/>
      <point x="170" y="522" type="curve" smooth="yes"/>
      <point x="193" y="651"/>
      <point x="251" y="675"/>
      <point x="386" y="675" type="curve" smooth="yes"/>
      <point x="430" y="675"/>
      <point x="487" y="670"/>
      <point x="539" y="657" type="curve"/>
      <point x="543" y="675" type="line"/>
      <point x="490" y="693"/>
      <point x="426" y="698"/>
    </contour>
  </outline>
</glyph>
<glyph name="quotesingle" format="2">
  <advance width="194"/>
  <unicode hex="0027"/>
  <outline>
    <contour>
      <point x="164" y="690" type="line"/>
      <point x="140" y="690" type="line"/>
      <point x="113" y="482" type="line"/>
      <point x="133" y="482" type="line"/>
    </contour>
  </outline>
</glyph>
<glyph name="parenright" format="2">
  <advance width="352"/>
  <unicode hex="0029"/>
  <outline>
    <contour>
      <point x="115" y="790" type="curve"/>
      <point x="111" y="772" type="line"/>
      <point x="249" y="696"/>
      <point x="294" y="545"/>
      <point x="261" y="315" type="curve" smooth="yes"/>
      <point x="227" y="79"/>
      <point x="138" y="-67"/>
      <point x="-20" y="-147" type="curve"/>
      <point x="-17" y="-165" type="line"/>
      <point x="158" y="-88"/>
      <point x="252" y="60"/>
      <point x="287" y="306" type="curve" smooth="yes"/>
      <point x="324" y="567"/>
      <point x="263" y="718"/>
    </contour>
  </outline>
</glyph>
<glyph name="asterisk" format="2">
  <advance width="449"/>
  <unicode hex="002A"/>
  <outline>
    <contour>
      <point x="290" y="690" type="line"/>
      <point x="268" y="690" type="line"/>
      <point x="248" y="537" type="line"/>
      <point x="136" y="411" type="line"/>
      <point x="153" y="396" type="line"/>
      <point x="255" y="520" type="line"/>
      <point x="322" y="395" type="line"/>
      <point x="342" y="406" type="line"/>
      <point x="265" y="536" type="line"/>
    </contour>
    <contour>
      <point x="115" y="591" type="line"/>
      <point x="106" y="569" type="line"/>
      <point x="227" y="531" type="line"/>
      <point x="232" y="539" type="line"/>
      <point x="234" y="548" type="line"/>
    </contour>
    <contour>
      <point x="412" y="590" type="line"/>
      <point x="283" y="548" type="line"/>
      <point x="282" y="539" type="line"/>
      <point x="285" y="531" type="line"/>
      <point x="417" y="568" type="line"/>
    </contour>
  </outline>
</glyph>
<glyph name="plus" format="2">
  <advance width="551"/>
  <unicode hex="002B"/>
  <outline>
    <contour>
      <point x="315" y="495" type="line"/>
      <point x="292" y="495" type="line"/>
      <point x="237" y="99" type="line"/>
      <point x="258" y="99" type="line"/>
    </contour>
    <contour>
      <point x="486" y="308" type="line"/>
      <point x="69" y="308" type="line"/>
      <point x="65" y="286" type="line"/>
      <point x="482" y="286" type="line"/>
    </contour>
  </outline>
</glyph>
<glyph name="comma" format="2">
  <advance width="205"/>
  <unicode hex="002C"/>
  <outline>
    <contour>
      <point x="82" y="86" type="curve" smooth="yes"/>
      <point x="70" y="86" type="line" smooth="yes"/>
      <point x="60" y="86"/>
      <point x="58" y="83"/>
      <point x="57" y="75" type="curve" smooth="yes"/>
      <point x="47" y="11" type="line" smooth="yes"/>
      <point x="46" y="5"/>
      <point x="49" y="1"/>
      <point x="53" y="1" type="curve"/>
      <point x="45" y="-47"/>
      <point x="40" y="-71"/>
      <point x="28" y="-111" type="curve"/>
      <point x="43" y="-116" type="line"/>
      <point x="59" y="-77"/>
      <point x="75" y="-27"/>
      <point x="80" y="9" type="curve" smooth="yes"/>
      <point x="90" y="75" type="line" smooth="yes"/>
      <point x="91" y="83"/>
      <point x="89" y="86"/>
    </contour>
  </outline>
</glyph>
<glyph name="zero" format="2">
  <advance width="582"/>
  <unicode hex="0030"/>
  <outline>
    <contour>
      <point x="264" y="-12" type="curve" smooth="yes"/>
      <point x="498" y="-12"/>
      <point x="525" y="306"/>
      <point x="525" y="497" type="curve" smooth="yes"/>
      <point x="525" y="639"/>
      <point x="458" y="702"/>
      <point x="334" y="702" type="curve" smooth="yes"/>
      <point x="100" y="702"/>
      <point x="73" y="384"/>
      <point x="73" y="193" type="curve" smooth="yes"/>
      <point x="73" y="51"/>
      <point x="140" y="-12"/>
    </contour>
    <contour>
      <point x="262" y="11" type="curve" smooth="yes"/>
      <point x="156" y="11"/>
      <point x="98" y="66"/>
      <point x="98" y="194" type="curve" smooth="yes"/>
      <point x="98" y="363"/>
      <point x="118" y="679"/>
      <point x="336" y="679" type="curve" smooth="yes"/>
      <point x="442" y="679"/>
      <point x="500" y="624"/>
      <point x="500" y="496" type="curve" smooth="yes"/>
      <point x="500" y="327"/>
      <point x="480" y="11"/>
    </contour>
  </outline>
</glyph>
<glyph name="one" format="2">
  <advance width="373"/>
  <unicode hex="0031"/>
  <outline>
    <contour>
      <point x="303" y="690" type="line"/>
      <point x="278" y="690" type="line"/>
      <point x="79" y="617" type="line"/>
      <point x="82" y="601" type="line"/>
      <point x="278" y="665" type="line"/>
      <point x="274" y="650"/>
      <point x="270" y="634"/>
      <point x="268" y="619" type="curve" smooth="yes"/>
      <point x="181" y="0" type="line"/>
      <point x="206" y="0" type="line"/>
    </contour>
  </outline>
</glyph>
<glyph name="three" format="2">
  <advance width="544"/>
  <unicode hex="0033"/>
  <outline>
    <contour>
      <point x="303" y="702" type="curve" smooth="yes"/>
      <point x="243" y="702"/>
      <point x="189" y="696"/>
      <point x="125" y="685" type="curve"/>
      <point x="131" y="667" type="line"/>
      <point x="177" y="673"/>
      <point x="241" y="679"/>
      <point x="303" y="679" type="curve" smooth="yes"/>
      <point x="422" y="679"/>
      <point x="464" y="657"/>
      <point x="464" y="581" type="curve" smooth="yes"/>
      <point x="464" y="460"/>
      <point x="410" y="380"/>
      <point x="286" y="377" type="curve" smooth="yes"/>
      <point x="158" y="374" type="line"/>
      <point x="155" y="356" type="line"/>
      <point x="285" y="355" type="line" smooth="yes"/>
      <point x="405" y="355"/>
      <point x="436" y="295"/>
      <point x="436" y="231" type="curve" smooth="yes"/>
      <point x="436" y="105"/>
      <point x="354" y="20"/>
      <point x="210" y="11" type="curve" smooth="yes"/>
      <point x="161" y="8"/>
      <point x="84" y="11"/>
      <point x="28" y="23" type="curve"/>
      <point x="21" y="5" type="line"/>
      <point x="85" y="-10"/>
      <point x="161" y="-14"/>
      <point x="215" y="-12" type="curve" smooth="yes"/>
      <point x="367" y="-5"/>
      <point x="460" y="91"/>
      <point x="460" y="230" type="curve" smooth="yes"/>
      <point x="460" y="296"/>
      <point x="432" y="353"/>
      <point x="353" y="365" type="curve"/>
      <point x="355" y="369" type="line"/>
      <point x="448" y="385"/>
      <point x="490" y="483"/>
      <point x="490" y="585" type="curve" smooth="yes"/>
      <point x="490" y="673"/>
      <point x="436" y="702"/>
    </contour>
  </outline>
</glyph>
<glyph name="five" format="2">
  <advance width="525"/>
  <unicode hex="0035"/>
  <outline>
    <contour>
      <point x="494" y="690" type="line"/>
      <point x="160" y="690" type="line"/>
      <point x="105" y="396" type="line" smooth="yes"/>
      <point x="103" y="388"/>
      <point x="109" y="381"/>
      <point x="118" y="381" type="curve" smooth="yes"/>
      <point x="131" y="381" type="line" smooth="yes"/>
      <point x="328" y="381"/>
      <point x="425" y="373"/>
      <point x="425" y="253" type="curve" smooth="yes"/>
      <point x="425" y="103"/>
      <point x="343" y="16"/>
      <point x="194" y="10" type="curve" smooth="yes"/>
      <point x="148" y="8"/>
      <point x="93" y="14"/>
      <point x="34" y="34" type="curve"/>
      <point x="28" y="16" type="line"/>
      <point x="93" y="-8"/>
      <point x="148" y="-14"/>
      <point x="197" y="-12" type="curve" smooth="yes"/>
      <point x="361" y="-5"/>
      <point x="449" y="88"/>
      <point x="449" y="253" type="curve" smooth="yes"/>
      <point x="449" y="383"/>
      <point x="354" y="403"/>
      <point x="184" y="403" type="curve" smooth="yes"/>
      <point x="130" y="403" type="line"/>
      <point x="179" y="668" type="line"/>
      <point x="490" y="668" type="line"/>
    </contour>
  </outline>
</glyph>
<glyph name="six" format="2">
  <advance width="562"/>
  <unicode hex="0036"/>
  <outline>
    <contour>
      <point x="383" y="702" type="curve" smooth="yes"/>
      <point x="214" y="702"/>
      <point x="129" y="647"/>
      <point x="82" y="302" type="curve" smooth="yes"/>
      <point x="51" y="76"/>
      <point x="83" y="-12"/>
      <point x="250" y="-12" type="curve" smooth="yes"/>
      <point x="432" y="-12"/>
      <point x="492" y="117"/>
      <point x="492" y="296" type="curve" smooth="yes"/>
      <point x="492" y="391"/>
      <point x="454" y="441"/>
      <point x="344" y="441" type="curve" smooth="yes"/>
      <point x="251" y="441"/>
      <point x="172" y="413"/>
      <point x="98" y="305" type="curve"/>
      <point x="100" y="289" type="line"/>
      <point x="183" y="392"/>
      <point x="263" y="419"/>
      <point x="339" y="419" type="curve" smooth="yes"/>
      <point x="436" y="419"/>
      <point x="466" y="371"/>
      <point x="466" y="296" type="curve" smooth="yes"/>
      <point x="466" y="137"/>
      <point x="419" y="10"/>
      <point x="254" y="10" type="curve" smooth="yes"/>
      <point x="97" y="10"/>
      <point x="79" y="99"/>
      <point x="108" y="299" type="curve" smooth="yes"/>
      <point x="155" y="623"/>
      <point x="219" y="679"/>
      <point x="380" y="679" type="curve" smooth="yes"/>
      <point x="422" y="679"/>
      <point x="465" y="678"/>
      <point x="500" y="672" type="curve"/>
      <point x="510" y="690" type="line"/>
      <point x="466" y="701"/>
      <point x="407" y="702"/>
    </contour>
  </outline>
</glyph>
<glyph name="eight" format="2">
  <advance width="612"/>
  <unicode hex="0038"/>
  <outline>
    <contour>
      <point x="361" y="698" type="curve" smooth="yes"/>
      <point x="198" y="698"/>
      <point x="149" y="643"/>
      <point x="131" y="520" type="curve" smooth="yes"/>
      <point x="117" y="420"/>
      <point x="140" y="368"/>
      <point x="209" y="360" type="curve"/>
      <point x="206" y="356" type="line"/>
      <point x="121" y="347"/>
      <point x="85" y="290"/>
      <point x="69" y="174" type="curve" smooth="yes"/>
      <point x="50" y="42"/>
      <point x="90" y="-9"/>
      <point x="266" y="-8" type="curve" smooth="yes"/>
      <point x="443" y="-6"/>
      <point x="491" y="40"/>
      <point x="509" y="170" type="curve" smooth="yes"/>
      <point x="526" y="288"/>
      <point x="504" y="347"/>
      <point x="421" y="356" type="curve"/>
      <point x="424" y="360" type="line"/>
      <point x="495" y="368"/>
      <point x="530" y="418"/>
      <point x="544" y="516" type="curve" smooth="yes"/>
      <point x="561" y="641"/>
      <point x="528" y="699"/>
    </contour>
    <contour>
      <point x="317" y="347" type="curve" smooth="yes"/>
      <point x="472" y="347"/>
      <point x="506" y="327"/>
      <point x="485" y="174" type="curve" smooth="yes"/>
      <point x="469" y="59"/>
      <point x="425" y="15"/>
      <point x="265" y="15" type="curve" smooth="yes"/>
      <point x="109" y="15"/>
      <point x="77" y="57"/>
      <point x="93" y="170" type="curve" smooth="yes"/>
      <point x="115" y="323"/>
      <point x="156" y="346"/>
    </contour>
    <contour>
      <point x="362" y="675" type="curve" smooth="yes"/>
      <point x="510" y="675"/>
      <point x="536" y="635"/>
      <point x="519" y="520" type="curve" smooth="yes"/>
      <point x="501" y="392"/>
      <point x="468" y="369"/>
      <point x="316" y="369" type="curve" smooth="yes"/>
      <point x="170" y="369"/>
      <point x="138" y="388"/>
      <point x="156" y="516" type="curve" smooth="yes"/>
      <point x="172" y="633"/>
      <point x="214" y="675"/>
    </contour>
  </outline>
</glyph>
<glyph name="less" format="2">
  <advance width="538"/>
  <unicode hex="003C"/>
  <outline>
    <contour>
      <point x="484" y="489" type="line"/>
      <point x="65" y="306" type="line"/>
      <point x="62" y="284" type="line"/>
      <point x="430" y="107" type="line"/>
      <point x="433" y="130" type="line"/>
      <point x="88" y="295" type="line"/>
      <point x="481" y="465" type="line"/>
    </contour>
  </outline>
</glyph>
<glyph name="equal" format="2">
  <advance width="592"/>
  <unicode hex="003D"/>
  <outline>
    <contour>
      <point x="519" y="407" type="line"/>
      <point x="102" y="407" type="line"/>
      <point x="99" y="385" type="line"/>
      <point x="516" y="385" type="line"/>
    </contour>
    <contour>
      <point x="490" y="195" type="line"/>
      <point x="73" y="195" type="line"/>
      <point x="70" y="173" type="line"/>
      <point x="487" y="173" type="line"/>
    </contour>
  </outline>
</glyph>
<glyph name="greater" format="2">
  <advance width="535"/>
  <unicode hex="003E"/>
  <outline>
    <contour>
      <point x="107" y="489" type="line"/>
      <point x="104" y="467" type="line"/>
      <point x="448" y="297" type="line"/>
      <point x="56" y="131" type="line"/>
      <point x="53" y="107" type="line"/>
      <point x="471" y="284" type="line"/>
      <point x="474" y="306" type="line"/>
    </contour>
  </outline>
</glyph>
<glyph name="question" format="2">
  <advance width="497"/>
  <unicode hex="003F"/>
  <outline>
    <contour>
      <point x="302" y="712" type="curve" smooth="yes"/>
      <point x="193" y="712"/>
      <point x="163" y="704"/>
      <point x="98" y="694" type="curve"/>
      <point x="102" y="676" type="line"/>
      <point x="171" y="685"/>
      <point x="201" y="690"/>
      <point x="303" y="690" type="curve" smooth="yes"/>
      <point x="419" y="690"/>
      <point x="466" y="649"/>
      <point x="454" y="559" type="curve" smooth="yes"/>
      <point x="434" y="416"/>
      <point x="242" y="393"/>
      <point x="215" y="204" type="curve"/>
      <point x="239" y="202" type="line"/>
      <point x="264" y="379"/>
      <point x="457" y="403"/>
      <point x="478" y="555" type="curve" smooth="yes"/>
      <point x="493" y="662"/>
      <point x="431" y="712"/>
    </contour>
    <contour>
      <point x="215" y="86" type="curve" smooth="yes"/>
      <point x="206" y="86" type="line" smooth="yes"/>
      <point x="197" y="86"/>
      <point x="193" y="82"/>
      <point x="192" y="74" type="curve" smooth="yes"/>
      <point x="183" y="13" type="line" smooth="yes"/>
      <point x="182" y="5"/>
      <point x="186" y="0"/>
      <point x="194" y="0" type="curve" smooth="yes"/>
      <point x="204" y="0" type="line" smooth="yes"/>
      <point x="212" y="0"/>
      <point x="216" y="4"/>
      <point x="217" y="12" type="curve" smooth="yes"/>
      <point x="226" y="73" type="line" smooth="yes"/>
      <point x="227" y="82"/>
      <point x="223" y="86"/>
    </contour>
  </outline>
</glyph>
<glyph name="C" format="2">
  <advance width="557"/>
  <unicode hex="0043"/>
  <guideline x="342" y="278" angle="290"/>
  <guideline x="336" y="401" angle="70"/>
  <guideline x="430" y="354" angle="90"/>
  <anchor x="288" y="-12" name="bottom"/>
  <anchor x="384" y="740" name="top"/>
  <outline>
    <contour>
      <point x="386" y="702" type="curve" smooth="yes"/>
      <point x="198" y="702"/>
      <point x="120" y="609"/>
      <point x="83" y="347" type="curve" smooth="yes"/>
      <point x="46" y="83"/>
      <point x="100" y="-12"/>
      <point x="290" y="-12" type="curve" smooth="yes"/>
      <point x="373" y="-12"/>
      <point x="424" y="-6"/>
      <point x="479" y="6" type="curve"/>
      <point x="474" y="24" type="line"/>
      <point x="420" y="15"/>
      <point x="370" y="11"/>
      <point x="289" y="11" type="curve" smooth="yes"/>
      <point x="118" y="11"/>
      <point x="74" y="96"/>
      <point x="108" y="343" type="curve" smooth="yes"/>
      <point x="143" y="592"/>
      <point x="209" y="679"/>
      <point x="387" y="679" type="curve" smooth="yes"/>
      <point x="461" y="679"/>
      <point x="497" y="676"/>
      <point x="552" y="667" type="curve"/>
      <point x="559" y="685" type="line"/>
      <point x="508" y="697"/>
      <point x="466" y="702"/>
    </contour>
  </outline>
</glyph>
<glyph name="G" format="2">
  <advance width="620"/>
  <unicode hex="0047"/>
  <anchor x="275" y="-12" name="bottom"/>
  <anchor x="397" y="740" name="top"/>
  <outline>
    <contour>
      <point x="388" y="702" type="curve" smooth="yes"/>
      <point x="198" y="702"/>
      <point x="118" y="609"/>
      <point x="82" y="347" type="curve" smooth="yes"/>
      <point x="49" y="93"/>
      <point x="98" y="-12"/>
      <point x="262" y="-12" type="curve" smooth="yes"/>
      <point x="343" y="-12"/>
      <point x="428" y="37"/>
      <point x="500" y="116" type="curve"/>
      <point x="496" y="135" type="line"/>
      <point x="428" y="73"/>
      <point x="354" y="11"/>
      <point x="263" y="11" type="curve" smooth="yes"/>
      <point x="117" y="11"/>
      <point x="77" y="103"/>
      <point x="107" y="343" type="curve" smooth="yes"/>
      <point x="141" y="594"/>
      <point x="210" y="679"/>
      <point x="389" y="679" type="curve" smooth="yes"/>
      <point x="472" y="679"/>
      <point x="514" y="676"/>
      <point x="576" y="667" type="curve"/>
      <point x="583" y="685" type="line"/>
      <point x="525" y="697"/>
      <point x="479" y="702"/>
    </contour>
    <contour>
      <point x="556" y="400" type="line"/>
      <point x="531" y="400" type="line"/>
      <point x="494" y="132" type="line"/>
      <point x="493" y="120" type="line"/>
      <point x="481" y="0" type="line"/>
      <point x="498" y="0" type="line"/>
    </contour>
  </outline>
</glyph>
<glyph name="I" format="2">
  <advance width="231"/>
  <unicode hex="0049"/>
  <anchor x="73" y="0" name="bottom"/>
  <anchor x="87" y="0" name="ogonek"/>
  <anchor x="178" y="740" name="top"/>
  <outline>
    <contour>
      <point x="184" y="690" type="line"/>
      <point x="159" y="690" type="line"/>
      <point x="62" y="0" type="line"/>
      <point x="87" y="0" type="line"/>
    </contour>
  </outline>
</glyph>
<glyph name="U" format="2">
  <advance width="667"/>
  <unicode hex="0055"/>
  <anchor x="290" y="0" name="bottom"/>
  <anchor x="332" y="-9" name="ogonek"/>
  <anchor x="389" y="740" name="top"/>
  <outline>
    <contour>
      <point x="625" y="690" type="line"/>
      <point x="600" y="690" type="line"/>
      <point x="539" y="256" type="line" smooth="yes"/>
      <point x="514" y="77"/>
      <point x="447" y="11"/>
      <point x="293" y="11" type="curve" smooth="yes"/>
      <point x="140" y="11"/>
      <point x="93" y="75"/>
      <point x="118" y="254" type="curve" smooth="yes"/>
      <point x="179" y="690" type="line"/>
      <point x="154" y="690" type="line"/>
      <point x="93" y="256" type="line" smooth="yes"/>
      <point x="66" y="64"/>
      <point x="120" y="-12"/>
      <point x="294" y="-12" type="curve" smooth="yes"/>
      <point x="465" y="-12"/>
      <point x="537" y="62"/>
      <point x="564" y="254" type="curve" smooth="yes"/>
    </contour>
  </outline>
</glyph>
<glyph name="W" format="2">
  <advance width="926"/>
  <unicode hex="0057"/>
  <guideline x="456" y="587" angle="0"/>
  <anchor x="525" y="740" name="top"/>
  <outline>
    <contour>
      <point x="949" y="690" type="line"/>
      <point x="923" y="690" type="line"/>
      <point x="679" y="91" type="line" smooth="yes"/>
      <point x="670" y="68"/>
      <point x="661" y="44"/>
      <point x="652" y="21" type="curve"/>
      <point x="623" y="21" type="line"/>
      <point x="620" y="44"/>
      <point x="619" y="67"/>
      <point x="616" y="90" type="curve" smooth="yes"/>
      <point x="549" y="678" type="line" smooth="yes"/>
      <point x="548" y="685"/>
      <point x="542" y="690"/>
      <point x="535" y="690" type="curve" smooth="yes"/>
      <point x="496" y="690" type="line" smooth="yes"/>
      <point x="489" y="690"/>
      <point x="485" y="687"/>
      <point x="482" y="680" type="curve" smooth="yes"/>
      <point x="250" y="91" type="line" smooth="yes"/>
      <point x="241" y="68"/>
      <point x="233" y="44"/>
      <point x="224" y="21" type="curve"/>
      <point x="195" y="21" type="line"/>
      <point x="192" y="44"/>
      <point x="190" y="67"/>
      <point x="187" y="90" type="curve" smooth="yes"/>
      <point x="111" y="690" type="line"/>
      <point x="86" y="690" type="line"/>
      <point x="173" y="11" type="line" smooth="yes"/>
      <point x="174" y="5"/>
      <point x="179" y="0"/>
      <point x="186" y="0" type="curve" smooth="yes"/>
      <point x="229" y="0" type="line" smooth="yes"/>
      <point x="236" y="0"/>
      <point x="241" y="3"/>
      <point x="244" y="10" type="curve" smooth="yes"/>
      <point x="471" y="590" type="line" smooth="yes"/>
      <point x="481" y="616"/>
      <point x="491" y="641"/>
      <point x="502" y="667" type="curve"/>
      <point x="527" y="667" type="line"/>
      <point x="531" y="641"/>
      <point x="533" y="618"/>
      <point x="536" y="592" type="curve" smooth="yes"/>
      <point x="601" y="12" type="line" smooth="yes"/>
      <point x="602" y="5"/>
      <point x="607" y="0"/>
      <point x="614" y="0" type="curve" smooth="yes"/>
      <point x="656" y="0" type="line" smooth="yes"/>
      <point x="663" y="0"/>
      <point x="668" y="3"/>
      <point x="671" y="9" type="curve" smooth="yes"/>
    </contour>
  </outline>
</glyph>
<glyph name="Y" format="2">
  <advance width="535"/>
  <unicode hex="0059"/>
  <guideline x="259" y="289" angle="90"/>
  <anchor x="224" y="0" name="bottom"/>
  <anchor x="323" y="740" name="top"/>
  <outline>
    <contour>
      <point x="569" y="690" type="line"/>
      <point x="541" y="690" type="line"/>
      <point x="314" y="357" type="line" smooth="yes"/>
      <point x="300" y="336"/>
      <point x="282" y="309"/>
      <point x="267" y="287" type="curve"/>
      <point x="261" y="287" type="line"/>
      <point x="252" y="309"/>
      <point x="242" y="334"/>
      <point x="233" y="356" type="curve" smooth="yes"/>
      <point x="99" y="690" type="line"/>
      <point x="73" y="690" type="line"/>
      <point x="251" y="251" type="line"/>
      <point x="269" y="250" type="line"/>
    </contour>
    <contour>
      <point x="277" y="281" type="line"/>
      <point x="252" y="281" type="line"/>
      <point x="212" y="0" type="line"/>
      <point x="237" y="0" type="line"/>
    </contour>
  </outline>
</glyph>
<glyph name="Z" format="2">
  <advance width="553"/>
  <unicode hex="005A"/>
  <anchor x="256" y="0" name="bottom"/>
  <anchor x="335" y="740" name="top"/>
  <outline>
    <contour>
      <point x="522" y="668" type="line"/>
      <point x="12" y="23" type="line"/>
      <point x="41" y="22" type="line"/>
      <point x="552" y="667" type="line"/>
    </contour>
    <contour>
      <point x="467" y="23" type="line"/>
      <point x="12" y="23" type="line"/>
      <point x="8" y="0" type="line"/>
      <point x="463" y="0" type="line"/>
    </contour>
    <contour>
      <point x="555" y="690" type="line"/>
      <point x="108" y="690" type="line"/>
      <point x="105" y="667" type="line"/>
      <point x="552" y="667" type="line"/>
    </contour>
  </outline>
</glyph>
<glyph name="bracketleft" format="2">
  <advance width="308"/>
  <unicode hex="005B"/>
  <outline>
    <contour>
      <point x="327" y="768" type="line"/>
      <point x="201" y="768" type="line" smooth="yes"/>
      <point x="183" y="768"/>
      <point x="170" y="756"/>
      <point x="167" y="738" type="curve" smooth="yes"/>
      <point x="45" y="-133" type="line" smooth="yes"/>
      <point x="42" y="-151"/>
      <point x="54" y="-165"/>
      <point x="72" y="-165" type="curve" smooth="yes"/>
      <point x="196" y="-165" type="line"/>
      <point x="199" y="-143" type="line"/>
      <point x="78" y="-143" type="line" smooth="yes"/>
      <point x="71" y="-143"/>
      <point x="68" y="-139"/>
      <point x="69" y="-132" type="curve" smooth="yes"/>
      <point x="190" y="733" type="line" smooth="yes"/>
      <point x="191" y="740"/>
      <point x="198" y="746"/>
      <point x="205" y="746" type="curve" smooth="yes"/>
      <point x="324" y="746" type="line"/>
    </contour>
  </outline>
</glyph>
<glyph name="bracketright" format="2">
  <advance width="308"/>
  <unicode hex="005D"/>
  <outline>
    <contour>
      <point x="238" y="768" type="curve" smooth="yes"/>
      <point x="114" y="768" type="line"/>
      <point x="111" y="746" type="line"/>
      <point x="232" y="746" type="line" smooth="yes"/>
      <point x="239" y="746"/>
      <point x="243" y="742"/>
      <point x="242" y="735" type="curve" smooth="yes"/>
      <point x="120" y="-130" type="line" smooth="yes"/>
      <point x="119" y="-137"/>
      <point x="112" y="-143"/>
      <point x="105" y="-143" type="curve" smooth="yes"/>
      <point x="-14" y="-143" type="line"/>
      <point x="-17" y="-165" type="line"/>
      <point x="109" y="-165" type="line" smooth="yes"/>
      <point x="127" y="-165"/>
      <point x="141" y="-153"/>
      <point x="143" y="-135" type="curve" smooth="yes"/>
      <point x="266" y="736" type="line" smooth="yes"/>
      <point x="268" y="754"/>
      <point x="256" y="768"/>
    </contour>
  </outline>
</glyph>
<glyph name="d" format="2">
  <advance width="562"/>
  <unicode hex="0064"/>
  <anchor x="258" y="-12" name="bottom"/>
  <anchor x="611" y="554" name="top"/>
  <outline>
    <contour>
      <point x="319" y="492" type="curve" smooth="yes"/>
      <point x="146" y="492"/>
      <point x="97" y="443"/>
      <point x="68" y="242" type="curve" smooth="yes"/>
      <point x="44" y="78"/>
      <point x="57" y="-12"/>
      <point x="171" y="-12" type="curve" smooth="yes"/>
      <point x="254" y="-12"/>
      <point x="348" y="36"/>
      <point x="430" y="128" type="curve"/>
      <point x="430" y="155" type="line"/>
      <point x="346" y="62"/>
      <point x="250" y="11"/>
      <point x="173" y="11" type="curve" smooth="yes"/>
      <point x="79" y="11"/>
      <point x="70" y="87"/>
      <point x="92" y="238" type="curve" smooth="yes"/>
      <point x="120" y="429"/>
      <point x="158" y="470"/>
      <point x="321" y="470" type="curve" smooth="yes"/>
      <point x="372" y="470"/>
      <point x="414" y="466"/>
      <point x="486" y="462" type="curve"/>
      <point x="496" y="480" type="line"/>
      <point x="433" y="487"/>
      <point x="374" y="492"/>
    </contour>
    <contour>
      <point x="527" y="700" type="line"/>
      <point x="503" y="700" type="line"/>
      <point x="485" y="574" type="line" smooth="yes"/>
      <point x="480" y="539"/>
      <point x="477" y="516"/>
      <point x="475" y="481" type="curve"/>
      <point x="469" y="464" type="line"/>
      <point x="424" y="137" type="line"/>
      <point x="425" y="133" type="line"/>
      <point x="410" y="0" type="line"/>
      <point x="428" y="0" type="line"/>
    </contour>
  </outline>
</glyph>
<glyph name="k" format="2">
  <advance width="487"/>
  <unicode hex="006B"/>
  <guideline x="391" y="273" angle="82"/>
  <anchor x="224" y="0" name="bottom"/>
  <outline>
    <contour>
      <point x="175" y="700" type="line"/>
      <point x="151" y="700" type="line"/>
      <point x="52" y="0" type="line"/>
      <point x="76" y="0" type="line"/>
      <point x="106" y="209" type="line"/>
      <point x="105" y="211"/>
      <point x="104" y="214"/>
      <point x="103" y="216" type="curve"/>
      <point x="112" y="252"/>
      <point x="116" y="275"/>
      <point x="121" y="310" type="curve" smooth="yes"/>
    </contour>
    <contour>
      <point x="461" y="480" type="curve"/>
      <point x="436" y="480" type="line"/>
      <point x="382" y="356"/>
      <point x="268" y="265"/>
      <point x="92" y="217" type="curve"/>
      <point x="92" y="194" type="line"/>
      <point x="203" y="225"/>
      <point x="382" y="288"/>
    </contour>
    <contour>
      <point x="268" y="271" type="curve"/>
      <point x="247" y="260" type="line"/>
      <point x="377" y="0" type="line"/>
      <point x="404" y="0" type="line"/>
      <point x="296" y="215" type="line" smooth="yes"/>
      <point x="287" y="234"/>
      <point x="277" y="252"/>
    </contour>
  </outline>
</glyph>
<glyph name="l" format="2">
  <advance width="265"/>
  <unicode hex="006C"/>
  <anchor x="145" y="-5" name="bottom"/>
  <anchor x="174" y="763" name="top"/>
  <outline>
    <contour>
      <point x="176" y="700" type="line"/>
      <point x="152" y="700" type="line"/>
      <point x="67" y="96" type="line" smooth="yes"/>
      <point x="58" y="31"/>
      <point x="93" y="-6"/>
      <point x="155" y="-6" type="curve" smooth="yes"/>
      <point x="172" y="-6"/>
      <point x="206" y="-4"/>
      <point x="219" y="0" type="curve"/>
      <point x="218" y="16" type="line"/>
      <point x="159" y="16" type="line" smooth="yes"/>
      <point x="108" y="16"/>
      <point x="83" y="43"/>
      <point x="91" y="95" type="curve" smooth="yes"/>
    </contour>
  </outline>
</glyph>
<glyph name="q" format="2">
  <advance width="563"/>
  <unicode hex="0071"/>
  <outline>
    <contour>
      <point x="296" y="492" type="curve" smooth="yes"/>
      <point x="147" y="492"/>
      <point x="94" y="447"/>
      <point x="67" y="242" type="curve" smooth="yes"/>
      <point x="41" y="47"/>
      <point x="79" y="-12"/>
      <point x="186" y="-12" type="curve" smooth="yes"/>
      <point x="268" y="-12"/>
      <point x="332" y="22"/>
      <point x="430" y="128" type="curve"/>
      <point x="431" y="153" type="line"/>
      <point x="326" y="52"/>
      <point x="271" y="11"/>
      <point x="189" y="11" type="curve" smooth="yes"/>
      <point x="85" y="11"/>
      <point x="72" y="77"/>
      <point x="92" y="238" type="curve" smooth="yes"/>
      <point x="115" y="423"/>
      <point x="153" y="469"/>
      <point x="299" y="469" type="curve" smooth="yes"/>
      <point x="352" y="469"/>
      <point x="405" y="463"/>
      <point x="473" y="443" type="curve"/>
      <point x="494" y="461" type="line"/>
      <point x="425" y="480"/>
      <point x="373" y="492"/>
    </contour>
    <contour>
      <point x="471" y="461" type="line"/>
      <point x="426" y="142" type="line"/>
      <point x="429" y="129" type="line"/>
      <point x="420" y="83"/>
      <point x="414" y="48"/>
      <point x="406" y="-8" type="curve" smooth="yes"/>
      <point x="375" y="-220" type="line"/>
      <point x="399" y="-220" type="line"/>
      <point x="495" y="461" type="line"/>
    </contour>
  </outline>
</glyph>
<glyph name="s" format="2">
  <advance width="498"/>
  <unicode hex="0073"/>
  <anchor x="227" y="-11" name="bottom"/>
  <anchor x="288" y="558" name="top"/>
  <outline>
    <contour>
      <point x="264" y="492" type="curve" smooth="yes"/>
      <point x="151" y="494"/>
      <point x="88" y="487"/>
      <point x="72" y="387" type="curve" smooth="yes"/>
      <point x="59" y="301"/>
      <point x="101" y="283"/>
      <point x="159" y="261" type="curve" smooth="yes"/>
      <point x="318" y="201" type="line" smooth="yes"/>
      <point x="367" y="183"/>
      <point x="397" y="168"/>
      <point x="388" y="104" type="curve" smooth="yes"/>
      <point x="377" y="24"/>
      <point x="329" y="12"/>
      <point x="207" y="10" type="curve" smooth="yes"/>
      <point x="144" y="9"/>
      <point x="99" y="11"/>
      <point x="37" y="18" type="curve"/>
      <point x="33" y="0" type="line"/>
      <point x="105" y="-11"/>
      <point x="160" y="-12"/>
      <point x="203" y="-12" type="curve" smooth="yes"/>
      <point x="324" y="-12"/>
      <point x="397" y="-4"/>
      <point x="412" y="100" type="curve" smooth="yes"/>
      <point x="423" y="177"/>
      <point x="385" y="200"/>
      <point x="320" y="224" type="curve" smooth="yes"/>
      <point x="160" y="284" type="line" smooth="yes"/>
      <point x="107" y="304"/>
      <point x="86" y="323"/>
      <point x="96" y="383" type="curve" smooth="yes"/>
      <point x="110" y="468"/>
      <point x="153" y="472"/>
      <point x="265" y="470" type="curve" smooth="yes"/>
      <point x="324" y="469"/>
      <point x="388" y="466"/>
      <point x="446" y="462" type="curve"/>
      <point x="450" y="480" type="line"/>
      <point x="392" y="487"/>
      <point x="326" y="491"/>
    </contour>
  </outline>
</glyph>
<glyph name="t" format="2">
  <advance width="341"/>
  <unicode hex="0074"/>
  <anchor x="173" y="-6" name="bottom"/>
  <anchor x="180" y="302" name="center"/>
  <anchor x="179" y="654" name="top"/>
  <outline>
    <contour>
      <point x="189" y="631" type="line"/>
      <point x="165" y="631" type="line"/>
      <point x="90" y="96" type="line" smooth="yes"/>
      <point x="81" y="31"/>
      <point x="112" y="-6"/>
      <point x="187" y="-6" type="curve" smooth="yes"/>
      <point x="203" y="-6"/>
      <point x="245" y="-4"/>
      <point x="272" y="0" type="curve"/>
      <point x="271" y="16" type="line"/>
      <point x="182" y="16" type="line" smooth="yes"/>
      <point x="131" y="16"/>
      <point x="106" y="42"/>
      <point x="114" y="95" type="curve" smooth="yes"/>
    </contour>
    <contour>
      <point x="346" y="480" type="line"/>
      <point x="150" y="480" type="line"/>
      <point x="56" y="475" type="line"/>
      <point x="53" y="458" type="line"/>
      <point x="342" y="458" type="line"/>
    </contour>
  </outline>
</glyph>
<glyph name="sterling" format="2">
  <advance width="557"/>
  <unicode hex="00A3"/>
  <outline>
    <contour>
      <point x="376" y="701" type="curve" smooth="yes"/>
      <point x="267" y="701"/>
      <point x="189" y="686"/>
      <point x="173" y="529" type="curve" smooth="yes"/>
      <point x="147" y="244" type="line" smooth="yes"/>
      <point x="137" y="143"/>
      <point x="111" y="67"/>
      <point x="33" y="22" type="curve"/>
      <point x="31" y="0" type="line"/>
      <point x="460" y="0" type="line"/>
      <point x="463" y="22" type="line"/>
      <point x="125" y="22" type="line" smooth="yes"/>
      <point x="105" y="22"/>
      <point x="85" y="22"/>
      <point x="67" y="22" type="curve"/>
      <point x="141" y="66"/>
      <point x="162" y="153"/>
      <point x="171" y="247" type="curve" smooth="yes"/>
      <point x="197" y="529" type="line" smooth="yes"/>
      <point x="207" y="636"/>
      <point x="249" y="679"/>
      <point x="354" y="679" type="curve" smooth="yes"/>
      <point x="423" y="679"/>
      <point x="467" y="677"/>
      <point x="528" y="673" type="curve"/>
      <point x="531" y="691" type="line"/>
      <point x="470" y="698"/>
      <point x="416" y="701"/>
    </contour>
    <contour>
      <point x="434" y="373" type="line"/>
      <point x="77" y="373" type="line"/>
      <point x="74" y="353" type="line"/>
      <point x="430" y="353" type="line"/>
    </contour>
  </outline>
</glyph>
<glyph name="brokenbar" format="2">
  <advance width="233"/>
  <unicode hex="00A6"/>
  <outline>
    <contour>
      <point x="196" y="781" type="line"/>
      <point x="174" y="781" type="line"/>
      <point x="118" y="381" type="line"/>
      <point x="140" y="381" type="line"/>
    </contour>
    <contour>
      <point x="119" y="231" type="line"/>
      <point x="97" y="231" type="line"/>
      <point x="41" y="-169" type="line"/>
      <point x="63" y="-169" type="line"/>
    </contour>
  </outline>
</glyph>
<glyph name="section" format="2">
  <advance width="543"/>
  <unicode hex="00A7"/>
  <outline>
    <contour>
      <point x="104" y="417" type="line"/>
      <point x="78" y="312"/>
      <point x="77" y="250"/>
      <point x="162" y="198" type="curve" smooth="yes"/>
      <point x="338" y="90" type="line" smooth="yes"/>
      <point x="377" y="66"/>
      <point x="407" y="33"/>
      <point x="399" y="-30" type="curve" smooth="yes"/>
      <point x="387" y="-122"/>
      <point x="316" y="-123"/>
      <point x="232" y="-122" type="curve" smooth="yes"/>
      <point x="164" y="-121"/>
      <point x="99" y="-118"/>
      <point x="21" y="-114" type="curve"/>
      <point x="18" y="-132" type="line"/>
      <point x="105" y="-140"/>
      <point x="168" y="-143"/>
      <point x="233" y="-144" type="curve" smooth="yes"/>
      <point x="334" y="-146"/>
      <point x="407" y="-141"/>
      <point x="423" y="-34" type="curve" smooth="yes"/>
      <point x="433" y="31"/>
      <point x="411" y="74"/>
      <point x="341" y="117" type="curve" smooth="yes"/>
      <point x="163" y="226" type="line" smooth="yes"/>
      <point x="98" y="266"/>
      <point x="103" y="322"/>
      <point x="126" y="415" type="curve"/>
    </contour>
    <contour>
      <point x="307" y="702" type="curve" smooth="yes"/>
      <point x="195" y="703"/>
      <point x="131" y="689"/>
      <point x="117" y="595" type="curve" smooth="yes"/>
      <point x="108" y="534"/>
      <point x="126" y="491"/>
      <point x="201" y="445" type="curve" smooth="yes"/>
      <point x="377" y="335" type="line" smooth="yes"/>
      <point x="440" y="296"/>
      <point x="437" y="236"/>
      <point x="414" y="143" type="curve"/>
      <point x="436" y="141" type="line"/>
      <point x="462" y="246"/>
      <point x="465" y="310"/>
      <point x="379" y="363" type="curve" smooth="yes"/>
      <point x="203" y="472" type="line" smooth="yes"/>
      <point x="159" y="499"/>
      <point x="133" y="532"/>
      <point x="141" y="591" type="curve" smooth="yes"/>
      <point x="153" y="676"/>
      <point x="215" y="681"/>
      <point x="308" y="680" type="curve" smooth="yes"/>
      <point x="414" y="679"/>
      <point x="453" y="676"/>
      <point x="519" y="672" type="curve"/>
      <point x="522" y="690" type="line"/>
      <point x="457" y="698"/>
      <point x="349" y="702"/>
    </contour>
  </outline>
</glyph>
<glyph name="dieresis" format="2">
  <advance width="399"/>
  <unicode hex="00A8"/>
  <anchor x="245" y="562" name="_top"/>
  <outline>
    <contour>
      <point x="177" y="678" type="curve" smooth="yes"/>
      <point x="168" y="678" type="line" smooth="yes"/>
      <point x="160" y="678"/>
      <point x="157" y="674"/>
      <point x="156" y="666" type="curve" smooth="yes"/>
      <point x="148" y="612" type="line" smooth="yes"/>
      <point x="147" y="603"/>
      <point x="151" y="600"/>
      <point x="158" y="600" type="curve" smooth="yes"/>
      <point x="165" y="600" type="line" smooth="yes"/>
      <point x="174" y="600"/>
      <point x="177" y="603"/>
      <point x="178" y="613" type="curve" smooth="yes"/>
      <point x="186" y="666" type="line" smooth="yes"/>
      <point x="187" y="674"/>
      <point x="185" y="678"/>
    </contour>
    <contour>
      <point x="354" y="678" type="curve" smooth="yes"/>
      <point x="345" y="678" type="line" smooth="yes"/>
      <point x="337" y="678"/>
      <point x="334" y="674"/>
      <point x="333" y="666" type="curve" smooth="yes"/>
      <point x="325" y="612" type="line" smooth="yes"/>
      <point x="324" y="603"/>
      <point x="328" y="600"/>
      <point x="335" y="600" type="curve" smooth="yes"/>
      <point x="342" y="600" type="line" smooth="yes"/>
      <point x="351" y="600"/>
      <point x="354" y="603"/>
      <point x="355" y="613" type="curve" smooth="yes"/>
      <point x="363" y="666" type="line" smooth="yes"/>
      <point x="364" y="674"/>
      <point x="362" y="678"/>
    </contour>
  </outline>
</glyph>
<glyph name="ordfeminine" format="2">
  <advance width="444"/>
  <unicode hex="00AA"/>
  <outline>
    <contour>
      <point x="275" y="600" type="curve" smooth="yes"/>
      <point x="167" y="600"/>
      <point x="114" y="569"/>
      <point x="94" y="432" type="curve" smooth="yes"/>
      <point x="73" y="285"/>
      <point x="112" y="262"/>
      <point x="190" y="262" type="curve" smooth="yes"/>
      <point x="231" y="262"/>
      <point x="296" y="292"/>
      <point x="348" y="350" type="curve"/>
      <point x="347" y="368" type="line"/>
      <point x="294" y="312"/>
      <point x="231" y="282"/>
      <point x="190" y="282" type="curve" smooth="yes"/>
      <point x="119" y="282"/>
      <point x="97" y="307"/>
      <point x="115" y="430" type="curve" smooth="yes"/>
      <point x="134" y="560"/>
      <point x="181" y="581"/>
      <point x="278" y="581" type="curve" smooth="yes"/>
      <point x="312" y="581"/>
      <point x="340" y="579"/>
      <point x="388" y="576" type="curve"/>
      <point x="396" y="591" type="line"/>
      <point x="353" y="596"/>
      <point x="314" y="600"/>
    </contour>
    <contour>
      <point x="376" y="591" type="line"/>
      <point x="342" y="347" type="line"/>
      <point x="343" y="343" type="line"/>
      <point x="334" y="269" type="line"/>
      <point x="350" y="269" type="line"/>
      <point x="396" y="591" type="line"/>
    </contour>
  </outline>
</glyph>
<glyph name="logicalnot" format="2">
  <advance width="591"/>
  <unicode hex="00AC"/>
  <outline>
    <contour>
      <point x="505" y="307" type="line"/>
      <point x="88" y="307" type="line"/>
      <point x="85" y="285" type="line"/>
      <point x="501" y="285" type="line"/>
    </contour>
    <contour>
      <point x="505" y="307" type="line"/>
      <point x="481" y="299" type="line"/>
      <point x="457" y="134" type="line"/>
      <point x="480" y="134" type="line"/>
    </contour>
  </outline>
</glyph>
<glyph name="micro" format="2">
  <advance width="564"/>
  <unicode hex="00B5"/>
  <outline>
    <contour>
      <point x="149" y="480" type="line"/>
      <point x="125" y="480" type="line"/>
      <point x="74" y="120" type="line"/>
      <point x="62" y="34"/>
      <point x="98" y="-12"/>
      <point x="184" y="-12" type="curve" smooth="yes"/>
      <point x="258" y="-12"/>
      <point x="358" y="33"/>
      <point x="420" y="136" type="curve"/>
      <point x="427" y="206" type="line"/>
      <point x="398" y="84"/>
      <point x="279" y="11"/>
      <point x="185" y="11" type="curve" smooth="yes"/>
      <point x="112" y="11"/>
      <point x="87" y="45"/>
      <point x="98" y="121" type="curve" smooth="yes"/>
    </contour>
    <contour>
      <point x="489" y="480" type="line"/>
      <point x="465" y="480" type="line"/>
      <point x="419" y="157" type="line"/>
      <point x="420" y="137" type="line"/>
      <point x="412" y="84" type="line" smooth="yes"/>
      <point x="404" y="29"/>
      <point x="410" y="-6"/>
      <point x="460" y="-6" type="curve" smooth="yes"/>
      <point x="478" y="-6"/>
      <point x="500" y="-4"/>
      <point x="513" y="0" type="curve"/>
      <point x="512" y="15" type="line"/>
      <point x="468" y="15" type="line" smooth="yes"/>
      <point x="427" y="15"/>
      <point x="428" y="48"/>
      <point x="434" y="90" type="curve" smooth="yes"/>
    </contour>
    <contour>
      <point x="93" y="91" type="line"/>
      <point x="78" y="145" type="line"/>
      <point x="29" y="-197" type="line"/>
      <point x="46" y="-197" type="line"/>
      <point x="65" y="-105" type="line"/>
    </contour>
  </outline>
</glyph>
<glyph name="onesuperior" format="2">
  <advance width="287"/>
  <unicode hex="00B9"/>
  <outline>
    <contour>
      <point x="238" y="747" type="line"/>
      <point x="216" y="747" type="line"/>
      <point x="98" y="705" type="line"/>
      <point x="100" y="690" type="line"/>
      <point x="215" y="726" type="line"/>
      <point x="212" y="717"/>
      <point x="210" y="708"/>
      <point x="209" y="700" type="curve" smooth="yes"/>
      <point x="160" y="355" type="line"/>
      <point x="182" y="355" type="line"/>
    </contour>
  </outline>
</glyph>
<glyph name="ordmasculine" format="2">
  <advance width="446"/>
  <unicode hex="00BA"/>
  <outline>
    <contour>
      <point x="264" y="600" type="curve" smooth="yes"/>
      <point x="156" y="600"/>
      <point x="110" y="556"/>
      <point x="93" y="433" type="curve" smooth="yes"/>
      <point x="76" y="308"/>
      <point x="109" y="262"/>
      <point x="220" y="262" type="curve" smooth="yes"/>
      <point x="328" y="262"/>
      <point x="374" y="306"/>
      <point x="392" y="429" type="curve" smooth="yes"/>
      <point x="409" y="554"/>
      <point x="376" y="600"/>
    </contour>
    <contour>
      <point x="265" y="581" type="curve" smooth="yes"/>
      <point x="357" y="581"/>
      <point x="384" y="546"/>
      <point x="368" y="433" type="curve" smooth="yes"/>
      <point x="352" y="319"/>
      <point x="313" y="282"/>
      <point x="219" y="282" type="curve" smooth="yes"/>
      <point x="127" y="282"/>
      <point x="100" y="317"/>
      <point x="116" y="429" type="curve" smooth="yes"/>
      <point x="132" y="544"/>
      <point x="171" y="581"/>
    </contour>
  </outline>
</glyph>
<glyph name="onehalf" format="2">
  <advance width="860"/>
  <unicode hex="00BD"/>
  <outline>
    <contour>
      <point x="679" y="690" type="line"/>
      <point x="655" y="690" type="line"/>
      <point x="78" y="0" type="line"/>
      <point x="102" y="0" type="line"/>
    </contour>
    <contour>
      <point x="250" y="690" type="line"/>
      <point x="229" y="690" type="line"/>
      <point x="97" y="646" type="line"/>
      <point x="99" y="632" type="line"/>
      <point x="228" y="670" type="line"/>
      <point x="225" y="660"/>
      <point x="224" y="650"/>
      <point x="222" y="640" type="curve" smooth="yes"/>
      <point x="171" y="276" type="line"/>
      <point x="192" y="276" type="line"/>
    </contour>
    <contour>
      <point x="665" y="421" type="curve" smooth="yes"/>
      <point x="628" y="421"/>
      <point x="597" y="419"/>
      <point x="531" y="405" type="curve"/>
      <point x="535" y="389" type="line"/>
      <point x="593" y="400"/>
      <point x="626" y="402"/>
      <point x="669" y="402" type="curve" smooth="yes"/>
      <point x="732" y="402"/>
      <point x="774" y="397"/>
      <point x="768" y="342" type="curve" smooth="yes"/>
      <point x="763" y="293"/>
      <point x="729" y="248"/>
      <point x="659" y="184" type="curve" smooth="yes"/>
      <point x="479" y="24" type="line" smooth="yes"/>
      <point x="476" y="21"/>
      <point x="474" y="18"/>
      <point x="473" y="13" type="curve" smooth="yes"/>
      <point x="471" y="0" type="line"/>
      <point x="764" y="0" type="line"/>
      <point x="767" y="19" type="line"/>
      <point x="580" y="19" type="line"/>
      <point x="553" y="20"/>
      <point x="527" y="19"/>
      <point x="500" y="19" type="curve"/>
      <point x="676" y="175" type="line" smooth="yes"/>
      <point x="748" y="240"/>
      <point x="783" y="281"/>
      <point x="790" y="335" type="curve" smooth="yes"/>
      <point x="801" y="408"/>
      <point x="752" y="421"/>
    </contour>
  </outline>
</glyph>
<glyph name="AE" format="2">
  <advance width="903"/>
  <unicode hex="00C6"/>
  <anchor x="625" y="740" name="top"/>
  <outline>
    <contour>
      <point x="629" y="690" type="curve" smooth="yes"/>
      <point x="565" y="690"/>
      <point x="514" y="680"/>
      <point x="454" y="606" type="curve" smooth="yes"/>
      <point x="-30" y="0" type="line"/>
      <point x="0" y="0" type="line"/>
      <point x="472" y="591" type="line" smooth="yes"/>
      <point x="504" y="631"/>
      <point x="536" y="655"/>
      <point x="560" y="664" type="curve"/>
      <point x="564" y="664" type="line"/>
      <point x="540" y="654"/>
      <point x="517" y="619"/>
      <point x="513" y="588" type="curve" smooth="yes"/>
      <point x="445" y="103" type="line" smooth="yes"/>
      <point x="436" y="44"/>
      <point x="474" y="0"/>
      <point x="534" y="0" type="curve" smooth="yes"/>
      <point x="625" y="0"/>
      <point x="715" y="0"/>
      <point x="808" y="4" type="curve"/>
      <point x="809" y="22" type="line"/>
      <point x="539" y="22" type="line" smooth="yes"/>
      <point x="491" y="22"/>
      <point x="463" y="55"/>
      <point x="470" y="103" type="curve" smooth="yes"/>
      <point x="537" y="585" type="line" smooth="yes"/>
      <point x="545" y="635"/>
      <point x="582" y="668"/>
      <point x="632" y="668" type="curve" smooth="yes"/>
      <point x="900" y="668" type="line"/>
      <point x="902" y="686" type="line"/>
      <point x="829" y="689"/>
      <point x="754" y="690"/>
    </contour>
    <contour>
      <point x="484" y="294" type="line"/>
      <point x="220" y="294" type="line"/>
      <point x="203" y="272" type="line"/>
      <point x="480" y="272" type="line"/>
    </contour>
    <contour>
      <point x="501" y="381" type="line"/>
      <point x="498" y="359" type="line"/>
      <point x="814" y="360" type="line"/>
      <point x="817" y="380" type="line"/>
    </contour>
  </outline>
</glyph>
<glyph name="Thorn" format="2">
  <advance width="582"/>
  <unicode hex="00DE"/>
  <outline>
    <contour>
      <point x="360" y="555" type="curve" smooth="yes"/>
      <point x="258" y="555"/>
      <point x="210" y="554"/>
      <point x="139" y="547" type="curve"/>
      <point x="153" y="529" type="line"/>
      <point x="180" y="531"/>
      <point x="259" y="532"/>
      <point x="361" y="532" type="curve" smooth="yes"/>
      <point x="487" y="532"/>
      <point x="526" y="496"/>
      <point x="507" y="354" type="curve" smooth="yes"/>
      <point x="487" y="208"/>
      <point x="435" y="174"/>
      <point x="306" y="172" type="curve" smooth="yes"/>
      <point x="238" y="172"/>
      <point x="164" y="172"/>
      <point x="99" y="172" type="curve"/>
      <point x="96" y="154" type="line"/>
      <point x="118" y="152"/>
      <point x="200" y="149"/>
      <point x="307" y="149" type="curve" smooth="yes"/>
      <point x="452" y="149"/>
      <point x="510" y="191"/>
      <point x="532" y="350" type="curve" smooth="yes"/>
      <point x="555" y="509"/>
      <point x="507" y="555"/>
    </contour>
    <contour>
      <point x="185" y="690" type="line"/>
      <point x="160" y="690" type="line"/>
      <point x="63" y="0" type="line"/>
      <point x="88" y="0" type="line"/>
    </contour>
  </outline>
</glyph>
<glyph name="ae" format="2">
  <advance width="872"/>
  <unicode hex="00E6"/>
  <anchor x="514" y="558" name="top"/>
  <outline>
    <contour>
      <point x="312" y="492" type="curve" smooth="yes"/>
      <point x="147" y="492"/>
      <point x="98" y="443"/>
      <point x="67" y="242" type="curve" smooth="yes"/>
      <point x="43" y="86"/>
      <point x="51" y="-12"/>
      <point x="170" y="-12" type="curve" smooth="yes"/>
      <point x="247" y="-12"/>
      <point x="336" y="36"/>
      <point x="412" y="129" type="curve"/>
      <point x="412" y="156" type="line"/>
      <point x="331" y="59"/>
      <point x="241" y="11"/>
      <point x="171" y="11" type="curve" smooth="yes"/>
      <point x="77" y="11"/>
      <point x="68" y="86"/>
      <point x="91" y="238" type="curve" smooth="yes"/>
      <point x="119" y="421"/>
      <point x="154" y="470"/>
      <point x="314" y="470" type="curve" smooth="yes"/>
      <point x="383" y="470"/>
      <point x="423" y="461"/>
      <point x="505" y="452" type="curve"/>
      <point x="525" y="470" type="line"/>
      <point x="451" y="483"/>
      <point x="385" y="492"/>
    </contour>
    <contour>
      <point x="654" y="492" type="curve" smooth="yes"/>
      <point x="510" y="492"/>
      <point x="437" y="451"/>
      <point x="406" y="244" type="curve" smooth="yes"/>
      <point x="378" y="58"/>
      <point x="420" y="-12"/>
      <point x="578" y="-12" type="curve" smooth="yes"/>
      <point x="632" y="-12"/>
      <point x="730" y="-4"/>
      <point x="767" y="6" type="curve"/>
      <point x="764" y="24" type="line"/>
      <point x="722" y="18"/>
      <point x="646" y="10"/>
      <point x="588" y="10" type="curve" smooth="yes"/>
      <point x="443" y="10"/>
      <point x="401" y="57"/>
      <point x="430" y="241" type="curve" smooth="yes"/>
      <point x="461" y="441"/>
      <point x="519" y="470"/>
      <point x="661" y="470" type="curve" smooth="yes"/>
      <point x="751" y="470"/>
      <point x="820" y="455"/>
      <point x="791" y="346" type="curve" smooth="yes"/>
      <point x="774" y="281"/>
      <point x="744" y="264"/>
      <point x="657" y="253" type="curve" smooth="yes"/>
      <point x="416" y="226" type="line"/>
      <point x="413" y="205" type="line"/>
      <point x="656" y="231" type="line" smooth="yes"/>
      <point x="755" y="242"/>
      <point x="796" y="265"/>
      <point x="815" y="344" type="curve" smooth="yes"/>
      <point x="844" y="465"/>
      <point x="770" y="492"/>
    </contour>
  </outline>
</glyph>
<glyph name="eth" format="2">
  <advance width="545"/>
  <unicode hex="00F0"/>
  <outline>
    <contour>
      <point x="176" y="698" type="curve"/>
      <point x="170" y="680" type="line"/>
      <point x="272" y="680"/>
      <point x="492" y="653"/>
      <point x="441" y="288" type="curve" smooth="yes"/>
      <point x="418" y="123"/>
      <point x="380" y="10"/>
      <point x="227" y="10" type="curve" smooth="yes"/>
      <point x="111" y="10"/>
      <point x="62" y="66"/>
      <point x="83" y="218" type="curve" smooth="yes"/>
      <point x="99" y="336"/>
      <point x="149" y="424"/>
      <point x="279" y="424" type="curve" smooth="yes"/>
      <point x="341" y="424"/>
      <point x="414" y="411"/>
      <point x="459" y="323" type="curve"/>
      <point x="466" y="338" type="line"/>
      <point x="421" y="432"/>
      <point x="341" y="446"/>
      <point x="283" y="446" type="curve" smooth="yes"/>
      <point x="141" y="446"/>
      <point x="78" y="359"/>
      <point x="59" y="223" type="curve" smooth="yes"/>
      <point x="35" y="58"/>
      <point x="91" y="-12"/>
      <point x="228" y="-12" type="curve" smooth="yes"/>
      <point x="409" y="-12"/>
      <point x="442" y="129"/>
      <point x="463" y="277" type="curve" smooth="yes"/>
      <point x="516" y="654"/>
      <point x="302" y="700"/>
    </contour>
    <contour>
      <point x="469" y="698" type="line"/>
      <point x="260" y="566" type="line"/>
      <point x="268" y="549" type="line"/>
      <point x="478" y="681" type="line"/>
    </contour>
  </outline>
</glyph>
<glyph name="divide" format="2">
  <advance width="589"/>
  <unicode hex="00F7"/>
  <outline>
    <contour>
      <point x="505" y="307" type="line"/>
      <point x="88" y="307" type="line"/>
      <point x="85" y="285" type="line"/>
      <point x="502" y="285" type="line"/>
    </contour>
    <contour>
      <point x="283" y="175" type="curve" smooth="yes"/>
      <point x="272" y="175" type="line" smooth="yes"/>
      <point x="264" y="175"/>
      <point x="260" y="171"/>
      <point x="259" y="163" type="curve" smooth="yes"/>
      <point x="250" y="102" type="line" smooth="yes"/>
      <point x="249" y="93"/>
      <point x="252" y="89"/>
      <point x="261" y="89" type="curve" smooth="yes"/>
      <point x="271" y="89" type="line" smooth="yes"/>
      <point x="279" y="89"/>
      <point x="283" y="92"/>
      <point x="284" y="100" type="curve" smooth="yes"/>
      <point x="293" y="162" type="line" smooth="yes"/>
      <point x="294" y="171"/>
      <point x="291" y="175"/>
    </contour>
    <contour>
      <point x="327" y="502" type="curve" smooth="yes"/>
      <point x="317" y="502" type="line" smooth="yes"/>
      <point x="309" y="502"/>
      <point x="305" y="498"/>
      <point x="304" y="490" type="curve" smooth="yes"/>
      <point x="295" y="429" type="line" smooth="yes"/>
      <point x="294" y="420"/>
      <point x="297" y="416"/>
      <point x="306" y="416" type="curve" smooth="yes"/>
      <point x="316" y="416" type="line" smooth="yes"/>
      <point x="324" y="416"/>
      <point x="328" y="419"/>
      <point x="329" y="427" type="curve" smooth="yes"/>
      <point x="338" y="489" type="line" smooth="yes"/>
      <point x="339" y="497"/>
      <point x="336" y="501"/>
    </contour>
  </outline>
</glyph>
<glyph name="oslash" format="2">
  <advance width="557"/>
  <unicode hex="00F8"/>
  <anchor x="243" y="-12" name="bottom"/>
  <anchor x="315" y="558" name="top"/>
  <outline>
    <contour>
      <point x="445" y="539" type="line"/>
      <point x="86" y="-52" type="line"/>
      <point x="104" y="-61" type="line"/>
      <point x="463" y="530" type="line"/>
    </contour>
    <component base="o"/>
  </outline>
</glyph>
<glyph name="Hbar" format="2">
  <advance width="657"/>
  <unicode hex="0126"/>
  <outline>
    <contour>
      <point x="670" y="545" type="line"/>
      <point x="59" y="545" type="line"/>
      <point x="56" y="525" type="line"/>
      <point x="667" y="525" type="line"/>
    </contour>
    <component base="H"/>
  </outline>
</glyph>
<glyph name="hbar" format="2">
  <advance width="567"/>
  <unicode hex="0127"/>
  <outline>
    <contour>
      <point x="332" y="610" type="line"/>
      <point x="57" y="610" type="line"/>
      <point x="54" y="590" type="line"/>
      <point x="329" y="590" type="line"/>
    </contour>
    <component base="h"/>
  </outline>
</glyph>
<glyph name="eng" format="2">
  <advance width="567"/>
  <unicode hex="014B"/>
  <outline>
    <contour>
      <point x="374" y="492" type="curve" smooth="yes"/>
      <point x="289" y="492"/>
      <point x="214" y="436"/>
      <point x="119" y="360" type="curve"/>
      <point x="118" y="337" type="line"/>
      <point x="216" y="412"/>
      <point x="285" y="469"/>
      <point x="370" y="469" type="curve" smooth="yes"/>
      <point x="443" y="469"/>
      <point x="473" y="435"/>
      <point x="463" y="359" type="curve" smooth="yes"/>
      <point x="400" y="-87" type="line" smooth="yes"/>
      <point x="391" y="-154"/>
      <point x="355" y="-188"/>
      <point x="295" y="-188" type="curve" smooth="yes"/>
      <point x="248" y="-188" type="line"/>
      <point x="244" y="-204" type="line"/>
      <point x="268" y="-209"/>
      <point x="282" y="-210"/>
      <point x="298" y="-210" type="curve" smooth="yes"/>
      <point x="372" y="-211"/>
      <point x="412" y="-170"/>
      <point x="424" y="-90" type="curve" smooth="yes"/>
      <point x="487" y="360" type="line" smooth="yes"/>
      <point x="499" y="446"/>
      <point x="460" y="492"/>
    </contour>
    <contour>
      <point x="138" y="480" type="line"/>
      <point x="120" y="480" type="line"/>
      <point x="52" y="0" type="line"/>
      <point x="76" y="0" type="line"/>
      <point x="125" y="343" type="line"/>
      <point x="123" y="359" type="line"/>
    </contour>
  </outline>
</glyph>
<glyph name="oe" format="2">
  <advance width="920"/>
  <unicode hex="0153"/>
  <outline>
    <contour>
      <point x="303" y="492" type="curve" smooth="yes"/>
      <point x="149" y="492"/>
      <point x="86" y="426"/>
      <point x="60" y="242" type="curve" smooth="yes"/>
      <point x="34" y="56"/>
      <point x="81" y="-12"/>
      <point x="237" y="-12" type="curve" smooth="yes"/>
      <point x="391" y="-12"/>
      <point x="454" y="54"/>
      <point x="480" y="238" type="curve" smooth="yes"/>
      <point x="506" y="424"/>
      <point x="459" y="492"/>
    </contour>
    <contour>
      <point x="303" y="469" type="curve" smooth="yes"/>
      <point x="439" y="469"/>
      <point x="479" y="414"/>
      <point x="455" y="242" type="curve" smooth="yes"/>
      <point x="431" y="68"/>
      <point x="373" y="11"/>
      <point x="237" y="11" type="curve" smooth="yes"/>
      <point x="101" y="11"/>
      <point x="61" y="66"/>
      <point x="85" y="238" type="curve" smooth="yes"/>
      <point x="109" y="412"/>
      <point x="167" y="469"/>
    </contour>
    <contour>
      <point x="703" y="492" type="curve" smooth="yes"/>
      <point x="559" y="492"/>
      <point x="486" y="451"/>
      <point x="455" y="244" type="curve" smooth="yes"/>
      <point x="427" y="58"/>
      <point x="469" y="-12"/>
      <point x="627" y="-12" type="curve" smooth="yes"/>
      <point x="681" y="-12"/>
      <point x="779" y="-4"/>
      <point x="816" y="6" type="curve"/>
      <point x="813" y="24" type="line"/>
      <point x="771" y="18"/>
      <point x="694" y="11"/>
      <point x="639" y="11" type="curve" smooth="yes"/>
      <point x="486" y="11"/>
      <point x="452" y="66"/>
      <point x="479" y="241" type="curve" smooth="yes"/>
      <point x="509" y="435"/>
      <point x="568" y="469"/>
      <point x="707" y="469" type="curve" smooth="yes"/>
      <point x="798" y="469"/>
      <point x="868" y="456"/>
      <point x="840" y="346" type="curve" smooth="yes"/>
      <point x="824" y="283"/>
      <point x="793" y="265"/>
      <point x="706" y="254" type="curve" smooth="yes"/>
      <point x="465" y="226" type="line"/>
      <point x="462" y="204" type="line"/>
      <point x="705" y="231" type="line" smooth="yes"/>
      <point x="804" y="242"/>
      <point x="845" y="265"/>
      <point x="864" y="344" type="curve" smooth="yes"/>
      <point x="893" y="465"/>
      <point x="819" y="492"/>
    </contour>
  </outline>
</glyph>
<glyph name="aringacute" format="2">
  <advance width="564"/>
  <unicode hex="01FB"/>
  <outline>
    <contour>
      <point x="453" y="870" type="line"/>
      <point x="281" y="775" type="line"/>
      <point x="292" y="759" type="line"/>
      <point x="466" y="848" type="line"/>
    </contour>
    <component base="a"/>
    <component base="ring" xOffset="135" yOffset="-6"/>
  </outline>
</glyph>
<glyph name="jdotless" format="2">
  <advance width="219"/>
  <unicode hex="0237"/>
  <anchor x="143" y="558" name="top"/>
  <outline>
    <contour>
      <point x="148" y="480" type="line"/>
      <point x="124" y="480" type="line"/>
      <point x="50" y="-45" type="line" smooth="yes"/>
      <point x="41" y="-110"/>
      <point x="13" y="-155"/>
      <point x="-27" y="-200" type="curve"/>
      <point x="-15" y="-210" type="line"/>
      <point x="31" y="-165"/>
      <point x="65" y="-112"/>
      <point x="74" y="-47" type="curve" smooth="yes"/>
    </contour>
  </outline>
</glyph>
<glyph name="ringhalfleft" format="2">
  <advance width="186"/>
  <unicode hex="02BF"/>
  <anchor x="158" y="564" name="_top"/>
  <outline>
    <contour>
      <point x="212" y="714" type="curve"/>
      <point x="215" y="733" type="line"/>
      <point x="153" y="733"/>
      <point x="106" y="686"/>
      <point x="106" y="628" type="curve" smooth="yes"/>
      <point x="106" y="579"/>
      <point x="137" y="546"/>
      <point x="188" y="543" type="curve"/>
      <point x="191" y="562" type="line"/>
      <point x="149" y="564"/>
      <point x="127" y="593"/>
      <point x="127" y="630" type="curve" smooth="yes"/>
      <point x="127" y="673"/>
      <point x="161" y="714"/>
    </contour>
  </outline>
</glyph>
<glyph name="circumflex" format="2">
  <advance width="392"/>
  <unicode hex="02C6"/>
  <anchor x="243" y="564" name="_top"/>
  <outline>
    <contour>
      <point x="270" y="704" type="line"/>
      <point x="252" y="704" type="line"/>
      <point x="100" y="587" type="line"/>
      <point x="110" y="574" type="line"/>
      <point x="255" y="677" type="line"/>
      <point x="264" y="677" type="line"/>
      <point x="379" y="575" type="line"/>
      <point x="391" y="587" type="line"/>
    </contour>
  </outline>
</glyph>
<glyph name="verticallinemod" format="2">
  <advance width="198"/>
  <unicode hex="02C8"/>
  <anchor x="141" y="556" name="_top"/>
  <outline>
    <contour>
      <point x="153" y="685" type="line"/>
      <point x="135" y="588" type="line"/>
      <point x="157" y="588" type="line"/>
      <point x="175" y="685" type="line"/>
    </contour>
  </outline>
</glyph>
<glyph name="verticallinelowmod" format="2">
  <advance width="199"/>
  <unicode hex="02CC"/>
  <anchor x="67" y="0" name="_bottom"/>
  <outline>
    <contour>
      <point x="48" y="-64" type="line"/>
      <point x="30" y="-161" type="line"/>
      <point x="52" y="-161" type="line"/>
      <point x="70" y="-64" type="line"/>
    </contour>
  </outline>
</glyph>
<glyph name="ring" format="2">
  <advance width="292"/>
  <unicode hex="02DA"/>
  <anchor x="192" y="564" name="_top"/>
  <outline>
    <contour>
      <point x="211" y="733" type="curve" smooth="yes"/>
      <point x="152" y="733"/>
      <point x="105" y="686"/>
      <point x="105" y="628" type="curve" smooth="yes"/>
      <point x="105" y="579"/>
      <point x="138" y="543"/>
      <point x="193" y="543" type="curve" smooth="yes"/>
      <point x="252" y="543"/>
      <point x="299" y="590"/>
      <point x="299" y="648" type="curve" smooth="yes"/>
      <point x="299" y="697"/>
      <point x="266" y="733"/>
    </contour>
    <contour>
      <point x="211" y="714" type="curve" smooth="yes"/>
      <point x="253" y="714"/>
      <point x="278" y="685"/>
      <point x="278" y="650" type="curve" smooth="yes"/>
      <point x="278" y="605"/>
      <point x="246" y="562"/>
      <point x="193" y="562" type="curve" smooth="yes"/>
      <point x="149" y="562"/>
      <point x="126" y="593"/>
      <point x="126" y="630" type="curve" smooth="yes"/>
      <point x="126" y="673"/>
      <point x="160" y="714"/>
    </contour>
  </outline>
</glyph>
<glyph name="ogonek" format="2">
  <advance width="253"/>
  <unicode hex="02DB"/>
  <anchor x="131" y="0" name="_ogonek"/>
  <outline>
    <contour>
      <point x="114" y="2" type="line"/>
      <point x="53" y="-47"/>
      <point x="22" y="-88"/>
      <point x="5" y="-122" type="curve" smooth="yes"/>
      <point x="-28" y="-190"/>
      <point x="4" y="-242"/>
      <point x="114" y="-194" type="curve"/>
      <point x="111" y="-182" type="line"/>
      <point x="31" y="-209"/>
      <point x="-4" y="-189"/>
      <point x="26" y="-128" type="curve" smooth="yes"/>
      <point x="51" y="-77"/>
      <point x="90" y="-36"/>
      <point x="131" y="0" type="curve"/>
    </contour>
  </outline>
</glyph>
<glyph name="hungarumlaut" format="2">
  <advance width="410"/>
  <unicode hex="02DD"/>
  <anchor x="205" y="554" name="_top"/>
  <outline>
    <contour>
      <point x="243" y="715" type="line"/>
      <point x="109" y="559" type="line"/>
      <point x="123" y="548" type="line"/>
      <point x="263" y="699" type="line"/>
    </contour>
    <contour>
      <point x="383" y="715" type="line"/>
      <point x="249" y="559" type="line"/>
      <point x="263" y="548" type="line"/>
      <point x="403" y="699" type="line"/>
    </contour>
  </outline>
</glyph>
<glyph name="tildecomb" format="2">
  <unicode hex="0303"/>
  <anchor x="-159" y="561" name="_top"/>
  <outline>
    <contour>
      <point x="-213" y="687" type="curve" smooth="yes"/>
      <point x="-259" y="691"/>
      <point x="-292" y="660"/>
      <point x="-299" y="599" type="curve"/>
      <point x="-282" y="597" type="line"/>
      <point x="-275" y="646"/>
      <point x="-254" y="669"/>
      <point x="-212" y="665" type="curve" smooth="yes"/>
      <point x="-164" y="660"/>
      <point x="-149" y="602"/>
      <point x="-82" y="597" type="curve" smooth="yes"/>
      <point x="-36" y="593"/>
      <point x="-3" y="623"/>
      <point x="3" y="681" type="curve"/>
      <point x="-14" y="683" type="line"/>
      <point x="-20" y="636"/>
      <point x="-41" y="616"/>
      <point x="-83" y="619" type="curve" smooth="yes"/>
      <point x="-140" y="624"/>
      <point x="-154" y="682"/>
    </contour>
  </outline>
</glyph>
<glyph name="brevecomb" format="2">
  <unicode hex="0306"/>
  <anchor x="-139" y="554" name="_top"/>
  <outline>
    <contour>
      <point x="-3" y="688" type="line"/>
      <point x="-11" y="628"/>
      <point x="-63" y="593"/>
      <point x="-135" y="593" type="curve" smooth="yes"/>
      <point x="-207" y="593"/>
      <point x="-249" y="626"/>
      <point x="-240" y="686" type="curve"/>
      <point x="-258" y="684" type="line"/>
      <point x="-268" y="613"/>
      <point x="-220" y="569"/>
      <point x="-135" y="569" type="curve" smooth="yes"/>
      <point x="-53" y="569"/>
      <point x="4" y="611"/>
      <point x="14" y="682" type="curve"/>
    </contour>
  </outline>
</glyph>
<glyph name="dotaccentcomb" format="2">
  <unicode hex="0307"/>
  <anchor x="-59" y="556" name="_top"/>
  <outline>
    <contour>
      <point x="-37" y="676" type="curve" smooth="yes"/>
      <point x="-48" y="676" type="line" smooth="yes"/>
      <point x="-57" y="676"/>
      <point x="-60" y="672"/>
      <point x="-61" y="663" type="curve" smooth="yes"/>
      <point x="-69" y="603" type="line" smooth="yes"/>
      <point x="-70" y="595"/>
      <point x="-66" y="590"/>
      <point x="-58" y="590" type="curve" smooth="yes"/>
      <point x="-49" y="590" type="line" smooth="yes"/>
      <point x="-40" y="590"/>
      <point x="-36" y="594"/>
      <point x="-35" y="603" type="curve" smooth="yes"/>
      <point x="-27" y="663" type="line" smooth="yes"/>
      <point x="-26" y="672"/>
      <point x="-29" y="676"/>
    </contour>
  </outline>
</glyph>
<glyph name="hookabovecomb" format="2">
  <unicode hex="0309"/>
  <anchor x="-107" y="554" name="_top"/>
  <outline>
    <contour>
      <point x="-123" y="579" type="curve"/>
      <point x="-120" y="565" type="line"/>
      <point x="-52" y="578"/>
      <point x="-10" y="626"/>
      <point x="-10" y="682" type="curve" smooth="yes"/>
      <point x="-10" y="733"/>
      <point x="-57" y="747"/>
      <point x="-121" y="730" type="curve"/>
      <point x="-120" y="715" type="line"/>
      <point x="-61" y="727"/>
      <point x="-34" y="716"/>
      <point x="-34" y="679" type="curve" smooth="yes"/>
      <point x="-34" y="633"/>
      <point x="-63" y="595"/>
    </contour>
  </outline>
</glyph>
<glyph name="hungarumlautcomb" format="2">
  <unicode hex="030B"/>
  <anchor x="-209" y="554" name="_top"/>
  <outline>
    <contour>
      <point x="-171" y="715" type="line"/>
      <point x="-305" y="559" type="line"/>
      <point x="-291" y="548" type="line"/>
      <point x="-151" y="699" type="line"/>
    </contour>
    <contour>
      <point x="-31" y="715" type="line"/>
      <point x="-165" y="559" type="line"/>
      <point x="-151" y="548" type="line"/>
      <point x="-11" y="699" type="line"/>
    </contour>
  </outline>
</glyph>
<glyph name="dblgravecomb" format="2">
  <unicode hex="030F"/>
  <anchor x="-117" y="554" name="_top"/>
  <outline>
    <contour>
      <point x="-155" y="715" type="line"/>
      <point x="-175" y="699" type="line"/>
      <point x="-35" y="548" type="line"/>
      <point x="-21" y="559" type="line"/>
    </contour>
    <contour>
      <point x="-295" y="715" type="line"/>
      <point x="-315" y="699" type="line"/>
      <point x="-175" y="548" type="line"/>
      <point x="-161" y="559" type="line"/>
    </contour>
  </outline>
</glyph>
<glyph name="ogonekcomb" format="2">
  <unicode hex="0328"/>
  <anchor x="-128" y="0" name="_ogonek"/>
  <outline>
    <contour>
      <point x="-145" y="2" type="line"/>
      <point x="-206" y="-47"/>
      <point x="-237" y="-88"/>
      <point x="-254" y="-122" type="curve" smooth="yes"/>
      <point x="-287" y="-190"/>
      <point x="-255" y="-242"/>
      <point x="-145" y="-194" type="curve"/>
      <point x="-148" y="-182" type="line"/>
      <point x="-228" y="-209"/>
      <point x="-263" y="-189"/>
      <point x="-233" y="-128" type="curve" smooth="yes"/>
      <point x="-208" y="-77"/>
      <point x="-169" y="-36"/>
      <point x="-128" y="0" type="curve"/>
    </contour>
  </outline>
</glyph>
<glyph name="macronbelowcomb" format="2">
  <unicode hex="0331"/>
  <anchor x="-240" y="0" name="_bottom"/>
  <outline>
    <contour>
      <point x="-116" y="-86" type="line"/>
      <point x="-376" y="-86" type="line"/>
      <point x="-379" y="-109" type="line"/>
      <point x="-119" y="-109" type="line"/>
    </contour>
  </outline>
</glyph>
<glyph name="Delta" format="2">
  <advance width="609"/>
  <unicode hex="0394"/>
  <outline>
    <contour>
      <point x="375" y="690" type="line"/>
      <point x="347" y="690" type="line"/>
      <point x="-3" y="22" type="line"/>
      <point x="-6" y="0" type="line"/>
      <point x="534" y="0" type="line"/>
      <point x="537" y="22" type="line"/>
    </contour>
    <contour>
      <point x="358" y="663" type="curve"/>
      <point x="363" y="642"/>
      <point x="369" y="619"/>
      <point x="374" y="597" type="curve" smooth="yes"/>
      <point x="511" y="22" type="line"/>
      <point x="24" y="22" type="line"/>
      <point x="324" y="594" type="line" smooth="yes"/>
      <point x="335" y="617"/>
      <point x="347" y="639"/>
    </contour>
  </outline>
</glyph>
<glyph name="Omega" format="2">
  <advance width="715"/>
  <unicode hex="03A9"/>
  <outline>
    <contour>
      <point x="417" y="702" type="curve" smooth="yes"/>
      <point x="224" y="702"/>
      <point x="131" y="585"/>
      <point x="100" y="359" type="curve" smooth="yes"/>
      <point x="77" y="196"/>
      <point x="113" y="99"/>
      <point x="214" y="22" type="curve"/>
      <point x="193" y="22"/>
      <point x="171" y="22"/>
      <point x="151" y="22" type="curve" smooth="yes"/>
      <point x="17" y="22" type="line"/>
      <point x="14" y="0" type="line"/>
      <point x="242" y="0" type="line"/>
      <point x="244" y="22" type="line"/>
      <point x="141" y="103"/>
      <point x="101" y="181"/>
      <point x="125" y="352" type="curve" smooth="yes"/>
      <point x="156" y="574"/>
      <point x="240" y="679"/>
      <point x="416" y="679" type="curve" smooth="yes"/>
      <point x="584" y="679"/>
      <point x="642" y="576"/>
      <point x="611" y="357" type="curve" smooth="yes"/>
      <point x="589" y="200"/>
      <point x="532" y="103"/>
      <point x="396" y="22" type="curve"/>
      <point x="394" y="0" type="line"/>
      <point x="622" y="0" type="line"/>
      <point x="625" y="22" type="line"/>
      <point x="489" y="22" type="line" smooth="yes"/>
      <point x="468" y="22"/>
      <point x="450" y="22"/>
      <point x="430" y="22" type="curve"/>
      <point x="552" y="98"/>
      <point x="614" y="190"/>
      <point x="637" y="355" type="curve" smooth="yes"/>
      <point x="669" y="583"/>
      <point x="604" y="702"/>
    </contour>
  </outline>
</glyph>
<glyph name="Lje-cy" format="2">
  <advance width="964"/>
  <unicode hex="0409"/>
  <outline>
    <contour>
      <point x="559" y="690" type="line"/>
      <point x="374" y="690" type="line" smooth="yes"/>
      <point x="310" y="690"/>
      <point x="271" y="666"/>
      <point x="255" y="589" type="curve" smooth="yes"/>
      <point x="189" y="277"/>
      <point x="176" y="222"/>
      <point x="103" y="124" type="curve" smooth="yes"/>
      <point x="55" y="64"/>
      <point x="26" y="37"/>
      <point x="-12" y="22" type="curve"/>
      <point x="-9" y="0" type="line"/>
      <point x="43" y="12"/>
      <point x="89" y="64"/>
      <point x="124" y="111" type="curve" smooth="yes"/>
      <point x="202" y="216"/>
      <point x="217" y="285"/>
      <point x="278" y="583" type="curve" smooth="yes"/>
      <point x="292" y="650"/>
      <point x="322" y="668"/>
      <point x="377" y="668" type="curve" smooth="yes"/>
      <point x="556" y="668" type="line"/>
    </contour>
    <contour>
      <point x="573" y="690" type="line"/>
      <point x="548" y="690" type="line"/>
      <point x="451" y="0" type="line"/>
      <point x="476" y="0" type="line"/>
    </contour>
    <contour>
      <point x="713" y="384" type="curve" smooth="yes"/>
      <point x="518" y="384" type="line"/>
      <point x="515" y="361" type="line"/>
      <point x="712" y="361" type="line" smooth="yes"/>
      <point x="852" y="361"/>
      <point x="886" y="316"/>
      <point x="868" y="190" type="curve" smooth="yes"/>
      <point x="846" y="34"/>
      <point x="784" y="15"/>
      <point x="624" y="15" type="curve" smooth="yes"/>
      <point x="587" y="15"/>
      <point x="487" y="16"/>
      <point x="467" y="18" type="curve"/>
      <point x="452" y="0" type="line"/>
      <point x="519" y="-7"/>
      <point x="561" y="-8"/>
      <point x="661" y="-8" type="curve" smooth="yes"/>
      <point x="809" y="-8"/>
      <point x="872" y="32"/>
      <point x="893" y="186" type="curve" smooth="yes"/>
      <point x="913" y="328"/>
      <point x="872" y="384"/>
    </contour>
  </outline>
</glyph>
<glyph name="Nje-cy" format="2">
  <advance width="980"/>
  <unicode hex="040A"/>
  <outline>
    <contour>
      <point x="730" y="382" type="curve" smooth="yes"/>
      <point x="535" y="382" type="line"/>
      <point x="532" y="359" type="line"/>
      <point x="729" y="359" type="line" smooth="yes"/>
      <point x="869" y="359"/>
      <point x="902" y="314"/>
      <point x="885" y="190" type="curve" smooth="yes"/>
      <point x="865" y="48"/>
      <point x="808" y="15"/>
      <point x="677" y="15" type="curve" smooth="yes"/>
      <point x="581" y="15"/>
      <point x="511" y="16"/>
      <point x="484" y="18" type="curve"/>
      <point x="469" y="0" type="line"/>
      <point x="536" y="-7"/>
      <point x="578" y="-8"/>
      <point x="678" y="-8" type="curve" smooth="yes"/>
      <point x="826" y="-8"/>
      <point x="889" y="32"/>
      <point x="910" y="186" type="curve" smooth="yes"/>
      <point x="930" y="326"/>
      <point x="889" y="382"/>
    </contour>
    <contour>
      <point x="184" y="690" type="line"/>
      <point x="159" y="690" type="line"/>
      <point x="62" y="0" type="line"/>
      <point x="87" y="0" type="line"/>
    </contour>
    <contour>
      <point x="533" y="381" type="line"/>
      <point x="133" y="381" type="line"/>
      <point x="130" y="359" type="line"/>
      <point x="530" y="359" type="line"/>
    </contour>
    <contour>
      <point x="590" y="690" type="line"/>
      <point x="565" y="690" type="line"/>
      <point x="468" y="0" type="line"/>
      <point x="493" y="0" type="line"/>
    </contour>
  </outline>
</glyph>
<glyph name="Be-cy" format="2">
  <advance width="591"/>
  <unicode hex="0411"/>
  <outline>
    <contour>
      <point x="552" y="690" type="line"/>
      <point x="486" y="693"/>
      <point x="429" y="695"/>
      <point x="353" y="695" type="curve" smooth="yes"/>
      <point x="288" y="695"/>
      <point x="224" y="694"/>
      <point x="159" y="690" type="curve"/>
      <point x="62" y="0" type="line"/>
      <point x="87" y="0" type="line"/>
      <point x="181" y="671" type="line"/>
      <point x="548" y="671" type="line"/>
    </contour>
    <contour>
      <point x="332" y="370" type="curve" smooth="yes"/>
      <point x="127" y="370" type="line"/>
      <point x="124" y="347" type="line"/>
      <point x="331" y="347" type="line" smooth="yes"/>
      <point x="471" y="347"/>
      <point x="505" y="305"/>
      <point x="488" y="183" type="curve" smooth="yes"/>
      <point x="469" y="46"/>
      <point x="412" y="15"/>
      <point x="281" y="15" type="curve" smooth="yes"/>
      <point x="180" y="15"/>
      <point x="106" y="16"/>
      <point x="78" y="18" type="curve"/>
      <point x="63" y="0" type="line"/>
      <point x="133" y="-7"/>
      <point x="177" y="-8"/>
      <point x="282" y="-8" type="curve" smooth="yes"/>
      <point x="430" y="-8"/>
      <point x="492" y="30"/>
      <point x="513" y="179" type="curve" smooth="yes"/>
      <point x="533" y="317"/>
      <point x="491" y="370"/>
    </contour>
  </outline>
</glyph>
<glyph name="Ge-cy" format="2">
  <advance width="514"/>
  <unicode hex="0413"/>
  <anchor x="360" y="740" name="top"/>
  <outline>
    <contour>
      <point x="256" y="690" type="curve" smooth="yes"/>
      <point x="199" y="690"/>
      <point x="152" y="658"/>
      <point x="142" y="589" type="curve" smooth="yes"/>
      <point x="59" y="0" type="line"/>
      <point x="84" y="0" type="line"/>
      <point x="166" y="585" type="line" smooth="yes"/>
      <point x="174" y="643"/>
      <point x="214" y="668"/>
      <point x="261" y="668" type="curve" smooth="yes"/>
      <point x="538" y="668" type="line"/>
      <point x="542" y="686" type="line"/>
      <point x="446" y="690"/>
      <point x="353" y="690"/>
    </contour>
  </outline>
</glyph>
<glyph name="Ze-cy" format="2">
  <advance width="540"/>
  <unicode hex="0417"/>
  <anchor x="213" y="0" name="bottom"/>
  <anchor x="281" y="741" name="top"/>
  <outline>
    <contour>
      <point x="280" y="698" type="curve" smooth="yes"/>
      <point x="219" y="698"/>
      <point x="169" y="694"/>
      <point x="109" y="685" type="curve"/>
      <point x="112" y="667" type="line"/>
      <point x="135" y="668"/>
      <point x="197" y="675"/>
      <point x="281" y="675" type="curve" smooth="yes"/>
      <point x="425" y="675"/>
      <point x="472" y="647"/>
      <point x="454" y="520" type="curve" smooth="yes"/>
      <point x="437" y="399"/>
      <point x="385" y="368"/>
      <point x="255" y="368" type="curve" smooth="yes"/>
      <point x="155" y="368" type="line"/>
      <point x="152" y="347" type="line"/>
      <point x="254" y="347" type="line" smooth="yes"/>
      <point x="397" y="347"/>
      <point x="443" y="310"/>
      <point x="424" y="174" type="curve" smooth="yes"/>
      <point x="406" y="45"/>
      <point x="351" y="15"/>
      <point x="214" y="15" type="curve" smooth="yes"/>
      <point x="113" y="15"/>
      <point x="35" y="23"/>
      <point x="7" y="24" type="curve"/>
      <point x="2" y="6" type="line"/>
      <point x="63" y="-4"/>
      <point x="135" y="-8"/>
      <point x="215" y="-8" type="curve" smooth="yes"/>
      <point x="370" y="-8"/>
      <point x="430" y="29"/>
      <point x="450" y="170" type="curve" smooth="yes"/>
      <point x="466" y="281"/>
      <point x="440" y="347"/>
      <point x="338" y="356" type="curve"/>
      <point x="341" y="360" type="line"/>
      <point x="424" y="368"/>
      <point x="465" y="418"/>
      <point x="479" y="516" type="curve" smooth="yes"/>
      <point x="499" y="659"/>
      <point x="444" y="698"/>
    </contour>
  </outline>
</glyph>
<glyph name="En-cy" format="2">
  <advance width="657"/>
  <unicode hex="041D"/>
  <outline>
    <contour>
      <point x="184" y="690" type="line"/>
      <point x="159" y="690" type="line"/>
      <point x="62" y="0" type="line"/>
      <point x="87" y="0" type="line"/>
    </contour>
    <contour>
      <point x="553" y="381" type="line"/>
      <point x="133" y="381" type="line"/>
      <point x="130" y="359" type="line"/>
      <point x="550" y="359" type="line"/>
    </contour>
    <contour>
      <point x="610" y="690" type="line"/>
      <point x="585" y="690" type="line"/>
      <point x="488" y="0" type="line"/>
      <point x="513" y="0" type="line"/>
    </contour>
  </outline>
</glyph>
<glyph name="U-cy" format="2">
  <advance width="533"/>
  <unicode hex="0423"/>
  <anchor x="330" y="740" name="top"/>
  <outline>
    <contour>
      <point x="565" y="690" type="line"/>
      <point x="538" y="690" type="line"/>
      <point x="295" y="219" type="line"/>
      <point x="291" y="211" type="line"/>
      <point x="267" y="165" type="line" smooth="yes"/>
      <point x="190" y="18"/>
      <point x="176" y="1"/>
      <point x="50" y="22" type="curve"/>
      <point x="47" y="6" type="line"/>
      <point x="74" y="-3"/>
      <point x="114" y="-8"/>
      <point x="142" y="-6" type="curve" smooth="yes"/>
      <point x="212" y="-1"/>
      <point x="251" y="83"/>
      <point x="291" y="160" type="curve" smooth="yes"/>
    </contour>
    <contour>
      <point x="114" y="690" type="line"/>
      <point x="88" y="690" type="line"/>
      <point x="199" y="241" type="line" smooth="yes"/>
      <point x="204" y="219"/>
      <point x="222" y="205"/>
      <point x="245" y="205" type="curve" smooth="yes"/>
      <point x="294" y="205" type="line"/>
      <point x="308" y="227" type="line"/>
      <point x="248" y="227" type="line" smooth="yes"/>
      <point x="234" y="227"/>
      <point x="224" y="234"/>
      <point x="221" y="248" type="curve" smooth="yes"/>
    </contour>
  </outline>
</glyph>
<glyph name="Tse-cy" format="2">
  <advance width="667"/>
  <unicode hex="0426"/>
  <outline>
    <contour>
      <point x="184" y="690" type="line"/>
      <point x="159" y="690" type="line"/>
      <point x="62" y="0" type="line"/>
      <point x="87" y="0" type="line"/>
    </contour>
    <contour>
      <point x="595" y="22" type="line"/>
      <point x="82" y="22" type="line"/>
      <point x="79" y="0" type="line"/>
      <point x="592" y="0" type="line"/>
    </contour>
    <contour>
      <point x="607" y="690" type="line"/>
      <point x="582" y="690" type="line"/>
      <point x="485" y="0" type="line"/>
      <point x="510" y="0" type="line"/>
    </contour>
    <contour>
      <point x="569" y="7" type="line"/>
      <point x="553" y="-151" type="line"/>
      <point x="571" y="-151" type="line"/>
      <point x="592" y="0" type="line"/>
    </contour>
  </outline>
</glyph>
<glyph name="Che-cy" format="2">
  <advance width="603"/>
  <unicode hex="0427"/>
  <anchor x="549" y="0" name="bottomright"/>
  <anchor x="338" y="740" name="top"/>
  <outline>
    <contour>
      <point x="150" y="690" type="line"/>
      <point x="125" y="690" type="line"/>
      <point x="86" y="414" type="line" smooth="yes"/>
      <point x="73" y="303"/>
      <point x="117" y="268"/>
      <point x="210" y="268" type="curve" smooth="yes"/>
      <point x="308" y="268"/>
      <point x="403" y="307"/>
      <point x="497" y="378" type="curve"/>
      <point x="498" y="401" type="line"/>
      <point x="416" y="348"/>
      <point x="324" y="291"/>
      <point x="212" y="291" type="curve" smooth="yes"/>
      <point x="128" y="291"/>
      <point x="101" y="323"/>
      <point x="112" y="415" type="curve" smooth="yes"/>
    </contour>
    <contour>
      <point x="556" y="690" type="line"/>
      <point x="531" y="690" type="line"/>
      <point x="434" y="0" type="line"/>
      <point x="459" y="0" type="line"/>
    </contour>
  </outline>
</glyph>
<glyph name="Ia-cy" format="2">
  <advance width="600"/>
  <unicode hex="042F"/>
  <outline>
    <contour>
      <point x="331" y="698" type="curve" smooth="yes"/>
      <point x="202" y="698"/>
      <point x="137" y="646"/>
      <point x="117" y="518" type="curve" smooth="yes"/>
      <point x="99" y="402"/>
      <point x="136" y="335"/>
      <point x="214" y="313" type="curve"/>
      <point x="213" y="309" type="line"/>
      <point x="178" y="298"/>
      <point x="146" y="273"/>
      <point x="116" y="212" type="curve" smooth="yes"/>
      <point x="13" y="0" type="line"/>
      <point x="42" y="0" type="line"/>
      <point x="142" y="207" type="line" smooth="yes"/>
      <point x="172" y="269"/>
      <point x="209" y="299"/>
      <point x="270" y="300" type="curve" smooth="yes"/>
      <point x="379" y="301"/>
      <point x="415" y="302"/>
      <point x="490" y="305" type="curve"/>
      <point x="489" y="323" type="line"/>
      <point x="280" y="323" type="line" smooth="yes"/>
      <point x="165" y="323"/>
      <point x="123" y="399"/>
      <point x="143" y="517" type="curve" smooth="yes"/>
      <point x="163" y="635"/>
      <point x="224" y="675"/>
      <point x="332" y="675" type="curve" smooth="yes"/>
      <point x="432" y="675"/>
      <point x="511" y="674"/>
      <point x="538" y="672" type="curve"/>
      <point x="553" y="690" type="line"/>
      <point x="484" y="697"/>
      <point x="435" y="698"/>
    </contour>
    <contour>
      <point x="553" y="690" type="line"/>
      <point x="528" y="690" type="line"/>
      <point x="431" y="0" type="line"/>
      <point x="456" y="0" type="line"/>
    </contour>
  </outline>
</glyph>
<glyph name="be-cy" format="2">
  <advance width="559"/>
  <unicode hex="0431"/>
  <outline>
    <contour>
      <point x="512" y="733" type="line"/>
      <point x="427" y="681"/>
      <point x="385" y="682"/>
      <point x="319" y="663" type="curve" smooth="yes"/>
      <point x="152" y="615"/>
      <point x="118" y="533"/>
      <point x="85" y="298" type="curve" smooth="yes"/>
      <point x="58" y="102"/>
      <point x="57" y="-12"/>
      <point x="250" y="-12" type="curve" smooth="yes"/>
      <point x="417" y="-12"/>
      <point x="459" y="86"/>
      <point x="480" y="230" type="curve" smooth="yes"/>
      <point x="504" y="404"/>
      <point x="465" y="467"/>
      <point x="319" y="467" type="curve" smooth="yes"/>
      <point x="178" y="467"/>
      <point x="131" y="391"/>
      <point x="114" y="342" type="curve"/>
      <point x="113" y="342" type="line"/>
      <point x="118" y="366"/>
      <point x="122" y="387"/>
      <point x="127" y="409" type="curve" smooth="yes"/>
      <point x="153" y="533"/>
      <point x="189" y="604"/>
      <point x="326" y="642" type="curve" smooth="yes"/>
      <point x="387" y="659"/>
      <point x="438" y="662"/>
      <point x="520" y="717" type="curve"/>
    </contour>
    <contour>
      <point x="318" y="444" type="curve" smooth="yes"/>
      <point x="445" y="444"/>
      <point x="478" y="393"/>
      <point x="456" y="238" type="curve" smooth="yes"/>
      <point x="432" y="67"/>
      <point x="377" y="11"/>
      <point x="251" y="11" type="curve" smooth="yes"/>
      <point x="119" y="11"/>
      <point x="77" y="63"/>
      <point x="101" y="230" type="curve" smooth="yes"/>
      <point x="118" y="354"/>
      <point x="160" y="444"/>
    </contour>
  </outline>
</glyph>
<glyph name="ze-cy" format="2">
  <advance width="484"/>
  <unicode hex="0437"/>
  <anchor x="188" y="0" name="bottom"/>
  <anchor x="256" y="558" name="top"/>
  <outline>
    <contour>
      <point x="222" y="486" type="curve" smooth="yes"/>
      <point x="182" y="486"/>
      <point x="132" y="484"/>
      <point x="82" y="476" type="curve"/>
      <point x="85" y="458" type="line"/>
      <point x="112" y="462"/>
      <point x="167" y="464"/>
      <point x="216" y="464" type="curve" smooth="yes"/>
      <point x="355" y="464"/>
      <point x="396" y="448"/>
      <point x="384" y="359" type="curve" smooth="yes"/>
      <point x="373" y="280"/>
      <point x="333" y="258"/>
      <point x="215" y="257" type="curve" smooth="yes"/>
      <point x="121" y="256" type="line"/>
      <point x="119" y="237" type="line"/>
      <point x="214" y="236" type="line" smooth="yes"/>
      <point x="339" y="235"/>
      <point x="380" y="212"/>
      <point x="368" y="123" type="curve" smooth="yes"/>
      <point x="355" y="34"/>
      <point x="311" y="16"/>
      <point x="178" y="16" type="curve" smooth="yes"/>
      <point x="107" y="16"/>
      <point x="31" y="21"/>
      <point x="7" y="22" type="curve"/>
      <point x="2" y="4" type="line"/>
      <point x="53" y="-3"/>
      <point x="126" y="-6"/>
      <point x="179" y="-6" type="curve" smooth="yes"/>
      <point x="327" y="-6"/>
      <point x="379" y="18"/>
      <point x="393" y="116" type="curve" smooth="yes"/>
      <point x="404" y="199"/>
      <point x="375" y="239"/>
      <point x="290" y="246" type="curve"/>
      <point x="292" y="248" type="line"/>
      <point x="372" y="255"/>
      <point x="399" y="293"/>
      <point x="409" y="358" type="curve" smooth="yes"/>
      <point x="423" y="458"/>
      <point x="374" y="486"/>
    </contour>
  </outline>
</glyph>
<glyph name="em-cy" format="2">
  <advance width="715"/>
  <unicode hex="043C"/>
  <outline>
    <contour>
      <point x="621" y="480" type="curve" smooth="yes"/>
      <point x="585" y="480" type="line" smooth="yes"/>
      <point x="579" y="480"/>
      <point x="574" y="478"/>
      <point x="572" y="472" type="curve"/>
      <point x="374" y="132" type="line" smooth="yes"/>
      <point x="361" y="110"/>
      <point x="349" y="88"/>
      <point x="335" y="65" type="curve"/>
      <point x="315" y="63" type="line"/>
      <point x="309" y="85"/>
      <point x="302" y="107"/>
      <point x="295" y="129" type="curve" smooth="yes"/>
      <point x="193" y="470" type="line"/>
      <point x="192" y="476"/>
      <point x="188" y="480"/>
      <point x="182" y="480" type="curve" smooth="yes"/>
      <point x="145" y="480" type="line" smooth="yes"/>
      <point x="136" y="480"/>
      <point x="131" y="476"/>
      <point x="130" y="468" type="curve" smooth="yes"/>
      <point x="39" y="0" type="line"/>
      <point x="63" y="0" type="line"/>
      <point x="152" y="458" type="line"/>
      <point x="172" y="458" type="line"/>
      <point x="294" y="54" type="line" smooth="yes"/>
      <point x="296" y="48"/>
      <point x="299" y="44"/>
      <point x="305" y="44" type="curve" smooth="yes"/>
      <point x="341" y="44" type="line" smooth="yes"/>
      <point x="347" y="44"/>
      <point x="350" y="46"/>
      <point x="354" y="52" type="curve" smooth="yes"/>
      <point x="590" y="458" type="line"/>
      <point x="610" y="458" type="line"/>
      <point x="569" y="0" type="line"/>
      <point x="593" y="0" type="line"/>
      <point x="634" y="466" type="line" smooth="yes"/>
      <point x="635" y="474"/>
      <point x="629" y="480"/>
    </contour>
  </outline>
</glyph>
<glyph name="u-cy" format="2">
  <advance width="510"/>
  <unicode hex="0443"/>
  <anchor x="280" y="558" name="top"/>
  <outline>
    <contour>
      <point x="487" y="480" type="curve"/>
      <point x="462" y="480" type="line"/>
      <point x="444" y="403"/>
      <point x="367" y="209"/>
      <point x="281" y="59" type="curve" smooth="yes"/>
      <point x="137" y="-203"/>
      <point x="51" y="-195"/>
      <point x="-11" y="-189" type="curve"/>
      <point x="-16" y="-210" type="line"/>
      <point x="71" y="-219"/>
      <point x="156" y="-218"/>
      <point x="306" y="56" type="curve" smooth="yes"/>
      <point x="386" y="197"/>
      <point x="461" y="372"/>
    </contour>
    <contour>
      <point x="82" y="480" type="line"/>
      <point x="56" y="480" type="line"/>
      <point x="154" y="37" type="line" smooth="yes"/>
      <point x="159" y="15"/>
      <point x="177" y="0"/>
      <point x="200" y="0" type="curve" smooth="yes"/>
      <point x="255" y="0" type="line"/>
      <point x="268" y="22" type="line"/>
      <point x="207" y="21" type="line" smooth="yes"/>
      <point x="191" y="21"/>
      <point x="179" y="31"/>
      <point x="175" y="47" type="curve" smooth="yes"/>
    </contour>
  </outline>
</glyph>
<glyph name="ef-cy" format="2">
  <advance width="693"/>
  <unicode hex="0444"/>
  <outline>
    <contour>
      <point x="372" y="492" type="curve" smooth="yes"/>
      <point x="169" y="492"/>
      <point x="85" y="422"/>
      <point x="59" y="242" type="curve" smooth="yes"/>
      <point x="34" y="60"/>
      <point x="101" y="-12"/>
      <point x="306" y="-12" type="curve" smooth="yes"/>
      <point x="509" y="-12"/>
      <point x="593" y="58"/>
      <point x="619" y="238" type="curve" smooth="yes"/>
      <point x="644" y="420"/>
      <point x="577" y="492"/>
    </contour>
    <contour>
      <point x="373" y="469" type="curve" smooth="yes"/>
      <point x="557" y="469"/>
      <point x="618" y="414"/>
      <point x="594" y="242" type="curve" smooth="yes"/>
      <point x="570" y="68"/>
      <point x="491" y="11"/>
      <point x="305" y="11" type="curve" smooth="yes"/>
      <point x="121" y="11"/>
      <point x="60" y="66"/>
      <point x="84" y="238" type="curve" smooth="yes"/>
      <point x="108" y="412"/>
      <point x="187" y="469"/>
    </contour>
    <contour>
      <point x="417" y="700" type="line"/>
      <point x="392" y="700" type="line"/>
      <point x="362" y="486" type="line"/>
      <point x="360" y="475" type="line"/>
      <point x="294" y="4" type="line"/>
      <point x="293" y="-4" type="line"/>
      <point x="264" y="-210" type="line"/>
      <point x="289" y="-210" type="line"/>
      <point x="318" y="-4" type="line"/>
      <point x="319" y="4" type="line"/>
      <point x="385" y="475" type="line"/>
      <point x="387" y="486" type="line"/>
    </contour>
  </outline>
</glyph>
<glyph name="tse-cy" format="2">
  <advance width="570"/>
  <unicode hex="0446"/>
  <outline>
    <contour>
      <point x="140" y="480" type="line"/>
      <point x="116" y="480" type="line"/>
      <point x="65" y="120" type="line" smooth="yes"/>
      <point x="52" y="34"/>
      <point x="92" y="-12"/>
      <point x="178" y="-12" type="curve" smooth="yes"/>
      <point x="249" y="-12"/>
      <point x="330" y="32"/>
      <point x="422" y="116" type="curve"/>
      <point x="421" y="140" type="line"/>
      <point x="323" y="55"/>
      <point x="254" y="11"/>
      <point x="182" y="11" type="curve" smooth="yes"/>
      <point x="109" y="11"/>
      <point x="78" y="45"/>
      <point x="89" y="121" type="curve" smooth="yes"/>
    </contour>
    <contour>
      <point x="476" y="5" type="line"/>
      <point x="447" y="-149" type="line"/>
      <point x="470" y="-149" type="line"/>
      <point x="493" y="0" type="line"/>
    </contour>
    <contour>
      <point x="490" y="480" type="line"/>
      <point x="466" y="480" type="line"/>
      <point x="418" y="133" type="line"/>
      <point x="416" y="117" type="line"/>
      <point x="410" y="67" type="line" smooth="yes"/>
      <point x="404" y="19"/>
      <point x="428" y="0"/>
      <point x="465" y="0" type="curve" smooth="yes"/>
      <point x="493" y="0" type="line"/>
      <point x="496" y="21" type="line"/>
      <point x="469" y="21" type="line" smooth="yes"/>
      <point x="444" y="21"/>
      <point x="426" y="28"/>
      <point x="432" y="66" type="curve" smooth="yes"/>
    </contour>
  </outline>
</glyph>
<glyph name="che-cy" format="2">
  <advance width="516"/>
  <unicode hex="0447"/>
  <anchor x="462" y="0" name="bottomright"/>
  <anchor x="281" y="558" name="top"/>
  <outline>
    <contour>
      <point x="114" y="480" type="line"/>
      <point x="90" y="480" type="line"/>
      <point x="62" y="285" type="line" smooth="yes"/>
      <point x="53" y="217"/>
      <point x="88" y="182"/>
      <point x="165" y="182" type="curve" smooth="yes"/>
      <point x="238" y="182"/>
      <point x="316" y="211"/>
      <point x="402" y="261" type="curve"/>
      <point x="402" y="283" type="line"/>
      <point x="311" y="232"/>
      <point x="251" y="206"/>
      <point x="170" y="206" type="curve" smooth="yes"/>
      <point x="104" y="206"/>
      <point x="79" y="228"/>
      <point x="87" y="287" type="curve" smooth="yes"/>
    </contour>
    <contour>
      <point x="450" y="480" type="line"/>
      <point x="426" y="480" type="line"/>
      <point x="358" y="0" type="line"/>
      <point x="382" y="0" type="line"/>
    </contour>
  </outline>
</glyph>
<glyph name="hardsign-cy" format="2">
  <advance width="611"/>
  <unicode hex="044A"/>
  <outline>
    <contour>
      <point x="303" y="480" type="line"/>
      <point x="278" y="473" type="line"/>
      <point x="181" y="137" type="line" smooth="yes"/>
      <point x="149" y="13"/>
      <point x="261" y="-12"/>
      <point x="346" y="-12" type="curve" smooth="yes"/>
      <point x="460" y="-12"/>
      <point x="519" y="17"/>
      <point x="534" y="129" type="curve" smooth="yes"/>
      <point x="548" y="233"/>
      <point x="515" y="273"/>
      <point x="375" y="273" type="curve" smooth="yes"/>
      <point x="324" y="273"/>
      <point x="265" y="267"/>
      <point x="208" y="208" type="curve"/>
      <point x="205" y="187" type="line"/>
      <point x="263" y="246"/>
      <point x="323" y="252"/>
      <point x="375" y="252" type="curve" smooth="yes"/>
      <point x="495" y="252"/>
      <point x="521" y="223"/>
      <point x="509" y="134" type="curve" smooth="yes"/>
      <point x="495" y="35"/>
      <point x="455" y="10"/>
      <point x="340" y="10" type="curve" smooth="yes"/>
      <point x="278" y="10"/>
      <point x="176" y="25"/>
      <point x="204" y="135" type="curve" smooth="yes"/>
    </contour>
    <contour>
      <point x="303" y="480" type="line"/>
      <point x="44" y="480" type="line"/>
      <point x="41" y="458" type="line"/>
      <point x="288" y="458" type="line"/>
    </contour>
  </outline>
</glyph>
<glyph name="softsign-cy" format="2">
  <advance width="499"/>
  <unicode hex="044C"/>
  <outline>
    <contour>
      <point x="142" y="480" type="line"/>
      <point x="118" y="480" type="line"/>
      <point x="63" y="108" type="line" smooth="yes"/>
      <point x="47" y="3"/>
      <point x="148" y="-12"/>
      <point x="235" y="-12" type="curve" smooth="yes"/>
      <point x="359" y="-12"/>
      <point x="407" y="18"/>
      <point x="423" y="129" type="curve" smooth="yes"/>
      <point x="438" y="235"/>
      <point x="401" y="273"/>
      <point x="263" y="273" type="curve" smooth="yes"/>
      <point x="210" y="273"/>
      <point x="147" y="267"/>
      <point x="87" y="208" type="curve"/>
      <point x="84" y="187" type="line"/>
      <point x="145" y="246"/>
      <point x="209" y="252"/>
      <point x="262" y="252" type="curve" smooth="yes"/>
      <point x="384" y="252"/>
      <point x="410" y="223"/>
      <point x="398" y="134" type="curve" smooth="yes"/>
      <point x="384" y="35"/>
      <point x="344" y="10"/>
      <point x="229" y="10" type="curve" smooth="yes"/>
      <point x="164" y="10"/>
      <point x="73" y="18"/>
      <point x="86" y="106" type="curve" smooth="yes"/>
    </contour>
  </outline>
</glyph>
<glyph name="lje-cy" format="2">
  <advance width="766"/>
  <unicode hex="0459"/>
  <outline>
    <contour>
      <point x="425" y="480" type="line"/>
      <point x="279" y="480" type="line" smooth="yes"/>
      <point x="229" y="480"/>
      <point x="198" y="452"/>
      <point x="186" y="396" type="curve" smooth="yes"/>
      <point x="138" y="198"/>
      <point x="125" y="156"/>
      <point x="76" y="93" type="curve" smooth="yes"/>
      <point x="48" y="57"/>
      <point x="21" y="39"/>
      <point x="-14" y="23" type="curve"/>
      <point x="-9" y="0" type="line"/>
      <point x="34" y="14"/>
      <point x="70" y="44"/>
      <point x="99" y="81" type="curve" smooth="yes"/>
      <point x="150" y="146"/>
      <point x="164" y="201"/>
      <point x="209" y="389" type="curve" smooth="yes"/>
      <point x="218" y="436"/>
      <point x="245" y="460"/>
      <point x="283" y="460" type="curve" smooth="yes"/>
      <point x="422" y="460" type="line"/>
    </contour>
    <contour>
      <point x="439" y="480" type="line"/>
      <point x="415" y="480" type="line"/>
      <point x="360" y="108" type="line" smooth="yes"/>
      <point x="345" y="3"/>
      <point x="439" y="-12"/>
      <point x="517" y="-12" type="curve" smooth="yes"/>
      <point x="632" y="-12"/>
      <point x="676" y="18"/>
      <point x="690" y="129" type="curve" smooth="yes"/>
      <point x="703" y="235"/>
      <point x="670" y="273"/>
      <point x="545" y="273" type="curve" smooth="yes"/>
      <point x="495" y="273"/>
      <point x="442" y="267"/>
      <point x="384" y="208" type="curve"/>
      <point x="381" y="187" type="line"/>
      <point x="440" y="246"/>
      <point x="494" y="252"/>
      <point x="544" y="252" type="curve" smooth="yes"/>
      <point x="653" y="252"/>
      <point x="675" y="223"/>
      <point x="665" y="134" type="curve" smooth="yes"/>
      <point x="653" y="35"/>
      <point x="617" y="10"/>
      <point x="511" y="10" type="curve" smooth="yes"/>
      <point x="451" y="10"/>
      <point x="371" y="18"/>
      <point x="383" y="106" type="curve" smooth="yes"/>
    </contour>
  </outline>
</glyph>
<glyph name="yusbig-cy" format="2">
  <advance width="670"/>
  <unicode hex="046B"/>
  <outline>
    <contour>
      <point x="-5" y="0" type="curve"/>
      <point x="22" y="0" type="line"/>
      <point x="148" y="214"/>
      <point x="178" y="240"/>
      <point x="325" y="240" type="curve"/>
      <point x="321" y="220"/>
      <point x="317" y="200"/>
      <point x="315" y="182" type="curve" smooth="yes"/>
      <point x="289" y="0" type="line"/>
      <point x="313" y="0" type="line"/>
      <point x="339" y="182" type="line" smooth="yes"/>
      <point x="341" y="200"/>
      <point x="343" y="220"/>
      <point x="346" y="240" type="curve"/>
      <point x="492" y="240"/>
      <point x="515" y="214"/>
      <point x="581" y="0" type="curve"/>
      <point x="608" y="0" type="line"/>
      <point x="545" y="197"/>
      <point x="530" y="260"/>
      <point x="358" y="260" type="curve"/>
      <point x="358" y="262" type="line"/>
      <point x="644" y="480" type="line"/>
      <point x="89" y="480" type="line"/>
      <point x="319" y="262" type="line"/>
      <point x="319" y="260" type="line"/>
      <point x="147" y="260"/>
      <point x="114" y="197"/>
    </contour>
    <contour>
      <point x="340" y="274" type="line"/>
      <point x="143" y="459" type="line"/>
      <point x="584" y="459" type="line"/>
    </contour>
  </outline>
</glyph>
<glyph name="fita-cy" format="2">
  <advance width="560"/>
  <unicode hex="0473"/>
  <outline>
    <contour>
      <point x="245" y="-12" type="curve" smooth="yes"/>
      <point x="400" y="-12"/>
      <point x="464" y="55"/>
      <point x="490" y="240" type="curve" smooth="yes"/>
      <point x="516" y="425"/>
      <point x="470" y="492"/>
      <point x="315" y="492" type="curve" smooth="yes"/>
      <point x="160" y="492"/>
      <point x="96" y="425"/>
      <point x="70" y="240" type="curve" smooth="yes"/>
      <point x="44" y="55"/>
      <point x="90" y="-12"/>
    </contour>
    <contour>
      <point x="248" y="11" type="curve" smooth="yes"/>
      <point x="112" y="11"/>
      <point x="71" y="67"/>
      <point x="95" y="240" type="curve" smooth="yes"/>
      <point x="119" y="413"/>
      <point x="176" y="469"/>
      <point x="312" y="469" type="curve" smooth="yes"/>
      <point x="448" y="469"/>
      <point x="489" y="413"/>
      <point x="465" y="240" type="curve" smooth="yes"/>
      <point x="441" y="67"/>
      <point x="384" y="11"/>
    </contour>
    <contour>
      <point x="83" y="240" type="line"/>
      <point x="478" y="240" type="line"/>
      <point x="481" y="260" type="line"/>
      <point x="86" y="260" type="line"/>
    </contour>
  </outline>
</glyph>
<glyph name="Izhitsa-cy" format="2">
  <advance width="636"/>
  <unicode hex="0474"/>
  <outline>
    <contour>
      <point x="230" y="0" type="curve" smooth="yes"/>
      <point x="272" y="0" type="line" smooth="yes"/>
      <point x="278" y="0"/>
      <point x="283" y="4"/>
      <point x="286" y="9" type="curve" smooth="yes"/>
      <point x="545" y="596" type="line" smooth="yes"/>
      <point x="576" y="666"/>
      <point x="601" y="682"/>
      <point x="654" y="682" type="curve" smooth="yes"/>
      <point x="659" y="682"/>
      <point x="664" y="682"/>
      <point x="669" y="682" type="curve"/>
      <point x="673" y="702" type="line"/>
      <point x="664" y="703"/>
      <point x="655" y="704"/>
      <point x="648" y="704" type="curve" smooth="yes"/>
      <point x="573" y="704"/>
      <point x="546" y="659"/>
      <point x="524" y="607" type="curve" smooth="yes"/>
      <point x="303" y="97" type="line" smooth="yes"/>
      <point x="275" y="33"/>
      <point x="280" y="49"/>
      <point x="268" y="22" type="curve"/>
      <point x="240" y="22" type="line"/>
      <point x="235" y="47"/>
      <point x="231" y="71"/>
      <point x="225" y="96" type="curve" smooth="yes"/>
      <point x="105" y="690" type="line"/>
      <point x="78" y="690" type="line"/>
      <point x="218" y="9" type="line" smooth="yes"/>
      <point x="219" y="4"/>
      <point x="224" y="0"/>
    </contour>
  </outline>
</glyph>
<glyph name="iishorttail-cy" format="2">
  <advance width="556"/>
  <unicode hex="048B"/>
  <outline>
    <contour>
      <point x="400" y="-143" type="line"/>
      <point x="419" y="-143" type="line"/>
      <point x="475" y="1" type="line"/>
      <point x="477" y="20" type="line"/>
      <point x="408" y="20" type="line"/>
      <point x="406" y="0" type="line"/>
      <point x="450" y="0" type="line"/>
    </contour>
    <component base="ii-cy"/>
    <component base="brevecomb-cy" xOffset="-23" yOffset="78"/>
  </outline>
</glyph>
<glyph name="Semisoftsign-cy" format="2">
  <advance width="600"/>
  <unicode hex="048C"/>
  <outline>
    <contour>
      <point x="64" y="532" type="line"/>
      <point x="462" y="532" type="line"/>
      <point x="466" y="555" type="line"/>
      <point x="68" y="555" type="line"/>
    </contour>
    <component base="Softsign-cy" xOffset="41"/>
  </outline>
</glyph>
<glyph name="Gheupturn-cy" format="2">
  <advance width="513"/>
  <unicode hex="0490"/>
  <outline>
    <contour>
      <point x="257" y="690" type="curve" smooth="yes"/>
      <point x="199" y="690"/>
      <point x="153" y="660"/>
      <point x="143" y="589" type="curve" smooth="yes"/>
      <point x="60" y="0" type="line"/>
      <point x="85" y="0" type="line"/>
      <point x="167" y="585" type="line" smooth="yes"/>
      <point x="175" y="645"/>
      <point x="214" y="668"/>
      <point x="262" y="668" type="curve" smooth="yes"/>
      <point x="539" y="668" type="line"/>
      <point x="542" y="686" type="line"/>
      <point x="446" y="690"/>
      <point x="354" y="690"/>
    </contour>
    <contour>
      <point x="568" y="841" type="line"/>
      <point x="550" y="841" type="line"/>
      <point x="517" y="669" type="line"/>
      <point x="542" y="686" type="line"/>
    </contour>
  </outline>
</glyph>
<glyph name="gheupturn-cy" format="2">
  <advance width="433"/>
  <unicode hex="0491"/>
  <outline>
    <contour>
      <point x="207" y="480" type="curve" smooth="yes"/>
      <point x="150" y="480"/>
      <point x="114" y="456"/>
      <point x="104" y="387" type="curve" smooth="yes"/>
      <point x="49" y="0" type="line"/>
      <point x="73" y="0" type="line"/>
      <point x="127" y="382" type="line" smooth="yes"/>
      <point x="136" y="444"/>
      <point x="162" y="458"/>
      <point x="212" y="458" type="curve" smooth="yes"/>
      <point x="428" y="458" type="line"/>
      <point x="431" y="477" type="line"/>
      <point x="355" y="480"/>
      <point x="284" y="480"/>
    </contour>
    <contour>
      <point x="454" y="627" type="line"/>
      <point x="436" y="627" type="line"/>
      <point x="406" y="461" type="line"/>
      <point x="431" y="477" type="line"/>
    </contour>
  </outline>
</glyph>
<glyph name="ghestroke-cy" format="2">
  <advance width="438"/>
  <unicode hex="0493"/>
  <outline>
    <contour>
      <point x="-2" y="209" type="line"/>
      <point x="289" y="209" type="line"/>
      <point x="293" y="229" type="line"/>
      <point x="2" y="229" type="line"/>
    </contour>
    <contour>
      <point x="218" y="480" type="curve" smooth="yes"/>
      <point x="160" y="480"/>
      <point x="121" y="445"/>
      <point x="113" y="386" type="curve" smooth="yes"/>
      <point x="58" y="0" type="line"/>
      <point x="82" y="0" type="line"/>
      <point x="136" y="383" type="line" smooth="yes"/>
      <point x="143" y="434"/>
      <point x="170" y="458"/>
      <point x="220" y="458" type="curve" smooth="yes"/>
      <point x="439" y="458" type="line"/>
      <point x="441" y="477" type="line"/>
      <point x="365" y="480"/>
      <point x="294" y="480"/>
    </contour>
  </outline>
</glyph>
<glyph name="Ghemiddlehook-cy" format="2">
  <advance width="578"/>
  <unicode hex="0494"/>
  <outline>
    <contour>
      <point x="209" y="-141" type="line"/>
      <point x="382" y="-135"/>
      <point x="472" y="-61"/>
      <point x="504" y="169" type="curve" smooth="yes"/>
      <point x="534" y="382"/>
      <point x="467" y="432"/>
      <point x="369" y="432" type="curve" smooth="yes"/>
      <point x="285" y="432"/>
      <point x="212" y="404"/>
      <point x="120" y="342" type="curve"/>
      <point x="117" y="319" type="line"/>
      <point x="203" y="373"/>
      <point x="268" y="409"/>
      <point x="363" y="409" type="curve" smooth="yes"/>
      <point x="449" y="409"/>
      <point x="507" y="370"/>
      <point x="479" y="168" type="curve" smooth="yes"/>
      <point x="447" y="-60"/>
      <point x="358" y="-110"/>
      <point x="209" y="-122" type="curve"/>
    </contour>
    <contour>
      <point x="258" y="690" type="curve" smooth="yes"/>
      <point x="199" y="690"/>
      <point x="150" y="647"/>
      <point x="142" y="588" type="curve" smooth="yes"/>
      <point x="59" y="0" type="line"/>
      <point x="84" y="0" type="line"/>
      <point x="167" y="586" type="line" smooth="yes"/>
      <point x="174" y="634"/>
      <point x="212" y="668"/>
      <point x="260" y="668" type="curve" smooth="yes"/>
      <point x="518" y="668" type="line"/>
      <point x="523" y="686" type="line"/>
      <point x="434" y="690"/>
      <point x="347" y="690"/>
    </contour>
  </outline>
</glyph>
<glyph name="ghemiddlehook-cy" format="2">
  <advance width="516"/>
  <unicode hex="0495"/>
  <outline>
    <contour>
      <point x="233" y="480" type="curve" smooth="yes"/>
      <point x="175" y="480"/>
      <point x="136" y="445"/>
      <point x="127" y="386" type="curve" smooth="yes"/>
      <point x="73" y="0" type="line"/>
      <point x="97" y="0" type="line"/>
      <point x="151" y="383" type="line" smooth="yes"/>
      <point x="158" y="434"/>
      <point x="184" y="458"/>
      <point x="234" y="458" type="curve" smooth="yes"/>
      <point x="433" y="458" type="line"/>
      <point x="436" y="477" type="line"/>
      <point x="367" y="480"/>
      <point x="302" y="480"/>
    </contour>
    <contour>
      <point x="180" y="-211" type="line"/>
      <point x="344" y="-206"/>
      <point x="429" y="-131"/>
      <point x="456" y="64" type="curve" smooth="yes"/>
      <point x="482" y="245"/>
      <point x="413" y="287"/>
      <point x="315" y="287" type="curve" smooth="yes"/>
      <point x="251" y="287"/>
      <point x="195" y="265"/>
      <point x="125" y="217" type="curve"/>
      <point x="121" y="194" type="line"/>
      <point x="187" y="236"/>
      <point x="236" y="264"/>
      <point x="309" y="264" type="curve" smooth="yes"/>
      <point x="395" y="264"/>
      <point x="455" y="231"/>
      <point x="431" y="63" type="curve" smooth="yes"/>
      <point x="404" y="-129"/>
      <point x="320" y="-181"/>
      <point x="181" y="-192" type="curve"/>
    </contour>
  </outline>
</glyph>
<glyph name="Zhedescender-cy" format="2">
  <advance width="931"/>
  <unicode hex="0496"/>
  <outline>
    <contour>
      <point x="785" y="0" type="line"/>
      <point x="887" y="0" type="line"/>
      <point x="890" y="22" type="line"/>
      <point x="788" y="22" type="line"/>
    </contour>
    <contour>
      <point x="848" y="-151" type="line"/>
      <point x="866" y="-151" type="line"/>
      <point x="888" y="7" type="line"/>
      <point x="864" y="7" type="line"/>
    </contour>
    <component base="Zhe-cy"/>
  </outline>
</glyph>
<glyph name="Kadescender-cy" format="2">
  <advance width="625"/>
  <unicode hex="049A"/>
  <outline>
    <contour>
      <point x="572" y="22" type="line"/>
      <point x="467" y="22" type="line"/>
      <point x="464" y="0" type="line"/>
      <point x="569" y="0" type="line"/>
    </contour>
    <contour>
      <point x="570" y="7" type="line"/>
      <point x="546" y="7" type="line"/>
      <point x="530" y="-151" type="line"/>
      <point x="548" y="-151" type="line"/>
    </contour>
    <component base="Ka-cy"/>
  </outline>
</glyph>
<glyph name="Kaverticalstroke-cy" format="2">
  <advance width="576"/>
  <unicode hex="049C"/>
  <outline>
    <contour>
      <point x="463" y="0" type="curve"/>
      <point x="490" y="0" type="line"/>
      <point x="441" y="175"/>
      <point x="410" y="351"/>
      <point x="285" y="359" type="curve"/>
      <point x="285" y="361" type="line"/>
      <point x="393" y="372"/>
      <point x="478" y="520"/>
      <point x="569" y="690" type="curve"/>
      <point x="543" y="690" type="line"/>
      <point x="459" y="539"/>
      <point x="376" y="375"/>
      <point x="240" y="371" type="curve"/>
      <point x="234" y="349" type="line"/>
      <point x="385" y="350"/>
      <point x="411" y="187"/>
    </contour>
    <contour>
      <point x="63" y="0" type="line"/>
      <point x="87" y="0" type="line"/>
      <point x="123" y="263" type="line" smooth="yes"/>
      <point x="128" y="296"/>
      <point x="132" y="325"/>
      <point x="134" y="361" type="curve"/>
      <point x="141" y="396"/>
      <point x="145" y="419"/>
      <point x="150" y="454" type="curve" smooth="yes"/>
      <point x="183" y="690" type="line"/>
      <point x="159" y="690" type="line"/>
    </contour>
    <contour>
      <point x="121" y="349" type="line"/>
      <point x="266" y="349" type="line"/>
      <point x="269" y="371" type="line"/>
      <point x="124" y="371" type="line"/>
    </contour>
    <contour>
      <point x="220" y="166" type="line"/>
      <point x="240" y="166" type="line"/>
      <point x="294" y="553" type="line"/>
      <point x="274" y="553" type="line"/>
    </contour>
  </outline>
</glyph>
<glyph name="kaverticalstroke-cy" format="2">
  <advance width="515"/>
  <unicode hex="049D"/>
  <anchor x="319" y="558" name="top"/>
  <outline>
    <contour>
      <point x="491" y="480" type="curve"/>
      <point x="465" y="480" type="line"/>
      <point x="397" y="373"/>
      <point x="332" y="261"/>
      <point x="219" y="261" type="curve"/>
      <point x="214" y="240" type="line"/>
      <point x="339" y="241"/>
      <point x="364" y="134"/>
      <point x="410" y="0" type="curve"/>
      <point x="437" y="0" type="line"/>
      <point x="394" y="128"/>
      <point x="364" y="243"/>
      <point x="259" y="250" type="curve"/>
      <point x="260" y="251" type="line"/>
      <point x="358" y="259"/>
      <point x="426" y="376"/>
    </contour>
    <contour>
      <point x="152" y="480" type="line"/>
      <point x="128" y="480" type="line"/>
      <point x="60" y="0" type="line"/>
      <point x="84" y="0" type="line"/>
      <point x="110" y="182" type="line" smooth="yes"/>
      <point x="113" y="205"/>
      <point x="116" y="226"/>
      <point x="117" y="251" type="curve"/>
      <point x="122" y="276"/>
      <point x="125" y="293"/>
      <point x="129" y="319" type="curve" smooth="yes"/>
    </contour>
    <contour>
      <point x="244" y="261" type="line"/>
      <point x="108" y="261" type="line"/>
      <point x="105" y="240" type="line"/>
      <point x="241" y="240" type="line"/>
    </contour>
    <contour>
      <point x="178" y="103" type="line"/>
      <point x="198" y="103" type="line"/>
      <point x="238" y="390" type="line"/>
      <point x="218" y="390" type="line"/>
    </contour>
  </outline>
</glyph>
<glyph name="Endescender-cy" format="2">
  <advance width="677"/>
  <unicode hex="04A2"/>
  <outline>
    <contour>
      <point x="600" y="7" type="line"/>
      <point x="576" y="7" type="line"/>
      <point x="560" y="-151" type="line"/>
      <point x="578" y="-151" type="line"/>
    </contour>
    <contour>
      <point x="602" y="22" type="line"/>
      <point x="500" y="22" type="line"/>
      <point x="497" y="0" type="line"/>
      <point x="599" y="0" type="line"/>
    </contour>
    <component base="En-cy" xOffset="7"/>
  </outline>
</glyph>
<glyph name="Enghe-cy" format="2">
  <advance width="875"/>
  <unicode hex="04A4"/>
  <outline>
    <contour>
      <point x="460" y="0" type="line"/>
      <point x="485" y="0" type="line"/>
      <point x="567" y="586" type="line" smooth="yes"/>
      <point x="574" y="634"/>
      <point x="612" y="668"/>
      <point x="660" y="668" type="curve" smooth="yes"/>
      <point x="898" y="668" type="line"/>
      <point x="903" y="686" type="line"/>
      <point x="820" y="690"/>
      <point x="741" y="690"/>
      <point x="658" y="690" type="curve" smooth="yes"/>
      <point x="599" y="690"/>
      <point x="550" y="647"/>
      <point x="542" y="588" type="curve" smooth="yes"/>
    </contour>
    <contour>
      <point x="63" y="0" type="line"/>
      <point x="88" y="0" type="line"/>
      <point x="184" y="690" type="line"/>
      <point x="159" y="690" type="line"/>
    </contour>
    <contour>
      <point x="130" y="359" type="line"/>
      <point x="520" y="359" type="line"/>
      <point x="523" y="381" type="line"/>
      <point x="133" y="381" type="line"/>
    </contour>
  </outline>
</glyph>
<glyph name="enghe-cy" format="2">
  <advance width="760"/>
  <unicode hex="04A5"/>
  <outline>
    <contour>
      <point x="152" y="480" type="line"/>
      <point x="128" y="480" type="line"/>
      <point x="60" y="0" type="line"/>
      <point x="84" y="0" type="line"/>
    </contour>
    <contour>
      <point x="441" y="267" type="line"/>
      <point x="116" y="267" type="line"/>
      <point x="113" y="246" type="line"/>
      <point x="438" y="246" type="line"/>
    </contour>
    <contour>
      <point x="554" y="480" type="curve" smooth="yes"/>
      <point x="496" y="480"/>
      <point x="457" y="445"/>
      <point x="449" y="386" type="curve" smooth="yes"/>
      <point x="394" y="0" type="line"/>
      <point x="418" y="0" type="line"/>
      <point x="472" y="383" type="line" smooth="yes"/>
      <point x="479" y="434"/>
      <point x="506" y="458"/>
      <point x="556" y="458" type="curve" smooth="yes"/>
      <point x="761" y="458" type="line"/>
      <point x="763" y="477" type="line"/>
      <point x="692" y="480"/>
      <point x="625" y="480"/>
    </contour>
  </outline>
</glyph>
<glyph name="pemiddlehook-cy" format="2">
  <advance width="878"/>
  <unicode hex="04A7"/>
  <outline>
    <contour>
      <point x="527" y="-216" type="line"/>
      <point x="701" y="-210"/>
      <point x="796" y="-96"/>
      <point x="822" y="93" type="curve" smooth="yes"/>
      <point x="847" y="276"/>
      <point x="781" y="326"/>
      <point x="683" y="326" type="curve" smooth="yes"/>
      <point x="606" y="326"/>
      <point x="539" y="298"/>
      <point x="454" y="236" type="curve"/>
      <point x="451" y="213" type="line"/>
      <point x="530" y="267"/>
      <point x="590" y="303"/>
      <point x="677" y="303" type="curve" smooth="yes"/>
      <point x="763" y="303"/>
      <point x="821" y="264"/>
      <point x="797" y="92" type="curve" smooth="yes"/>
      <point x="771" y="-96"/>
      <point x="676" y="-185"/>
      <point x="528" y="-197" type="curve"/>
    </contour>
    <component base="pe-cy"/>
  </outline>
</glyph>
<glyph name="Tedescender-cy" format="2">
  <advance width="558"/>
  <unicode hex="04AC"/>
  <outline>
    <contour>
      <point x="289" y="-151" type="line"/>
      <point x="307" y="-151" type="line"/>
      <point x="329" y="7" type="line"/>
      <point x="305" y="7" type="line"/>
    </contour>
    <contour>
      <point x="226" y="0" type="line"/>
      <point x="328" y="0" type="line"/>
      <point x="331" y="22" type="line"/>
      <point x="229" y="22" type="line"/>
    </contour>
    <component base="Te-cy"/>
  </outline>
</glyph>
<glyph name="Ustraitstroke-cy" format="2">
  <advance width="553"/>
  <unicode hex="04B0"/>
  <guideline x="271" y="289" angle="90"/>
  <outline>
    <contour>
      <point x="581" y="690" type="line"/>
      <point x="553" y="690" type="line"/>
      <point x="326" y="357" type="line" smooth="yes"/>
      <point x="312" y="336"/>
      <point x="294" y="309"/>
      <point x="279" y="287" type="curve"/>
      <point x="273" y="287" type="line"/>
      <point x="264" y="309"/>
      <point x="254" y="334"/>
      <point x="245" y="356" type="curve" smooth="yes"/>
      <point x="111" y="690" type="line"/>
      <point x="85" y="690" type="line"/>
      <point x="263" y="251" type="line"/>
      <point x="281" y="250" type="line"/>
    </contour>
    <contour>
      <point x="289" y="281" type="line"/>
      <point x="264" y="281" type="line"/>
      <point x="224" y="0" type="line"/>
      <point x="249" y="0" type="line"/>
    </contour>
    <contour>
      <point x="448" y="263" type="line"/>
      <point x="98" y="263" type="line"/>
      <point x="95" y="240" type="line"/>
      <point x="445" y="240" type="line"/>
    </contour>
  </outline>
</glyph>
<glyph name="ustraitstroke-cy" format="2">
  <advance width="560"/>
  <unicode hex="04B1"/>
  <guideline x="282" y="289" angle="34.2045"/>
  <outline>
    <contour>
      <point x="553" y="480" type="line"/>
      <point x="525" y="480" type="line"/>
      <point x="298" y="147" type="line" smooth="yes"/>
      <point x="284" y="126"/>
      <point x="266" y="99"/>
      <point x="251" y="77" type="curve"/>
      <point x="245" y="77" type="line"/>
      <point x="236" y="99"/>
      <point x="226" y="124"/>
      <point x="217" y="146" type="curve" smooth="yes"/>
      <point x="83" y="480" type="line"/>
      <point x="57" y="480" type="line"/>
      <point x="235" y="41" type="line"/>
      <point x="253" y="40" type="line"/>
    </contour>
    <contour>
      <point x="261" y="71" type="line"/>
      <point x="236" y="71" type="line"/>
      <point x="196" y="-210" type="line"/>
      <point x="221" y="-210" type="line"/>
    </contour>
    <contour>
      <point x="420" y="53" type="line"/>
      <point x="70" y="53" type="line"/>
      <point x="67" y="33" type="line"/>
      <point x="417" y="33" type="line"/>
    </contour>
  </outline>
</glyph>
<glyph name="Hadescender-cy" format="2">
  <advance width="642"/>
  <unicode hex="04B2"/>
  <outline>
    <contour>
      <point x="133" y="690" type="line"/>
      <point x="106" y="690" type="line"/>
      <point x="266" y="361" type="line"/>
      <point x="-4" y="0" type="line"/>
      <point x="26" y="0" type="line"/>
      <point x="294" y="358" type="line"/>
    </contour>
    <contour>
      <point x="338" y="372" type="line"/>
      <point x="286" y="372" type="line"/>
      <point x="282" y="350" type="line"/>
      <point x="334" y="350" type="line"/>
    </contour>
    <contour>
      <point x="597" y="690" type="line"/>
      <point x="568" y="690" type="line"/>
      <point x="317" y="363" type="line"/>
      <point x="486" y="0" type="line"/>
      <point x="513" y="0" type="line"/>
      <point x="345" y="360" type="line"/>
    </contour>
    <contour>
      <point x="591" y="7" type="line"/>
      <point x="567" y="7" type="line"/>
      <point x="551" y="-151" type="line"/>
      <point x="569" y="-151" type="line"/>
    </contour>
    <contour>
      <point x="593" y="22" type="line"/>
      <point x="491" y="22" type="line"/>
      <point x="488" y="0" type="line"/>
      <point x="590" y="0" type="line"/>
    </contour>
  </outline>
</glyph>
<glyph name="Tetse-cy" format="2">
  <advance width="808"/>
  <unicode hex="04B4"/>
  <outline>
    <contour>
      <point x="626" y="0" type="line"/>
      <point x="651" y="0" type="line"/>
      <point x="748" y="690" type="line"/>
      <point x="723" y="690" type="line"/>
    </contour>
    <contour>
      <point x="203" y="0" type="line"/>
      <point x="228" y="0" type="line"/>
      <point x="325" y="690" type="line"/>
      <point x="300" y="690" type="line"/>
    </contour>
    <contour>
      <point x="220" y="0" type="line"/>
      <point x="733" y="0" type="line"/>
      <point x="736" y="22" type="line"/>
      <point x="223" y="22" type="line"/>
    </contour>
    <contour>
      <point x="694" y="-151" type="line"/>
      <point x="712" y="-151" type="line"/>
      <point x="734" y="7" type="line"/>
      <point x="710" y="7" type="line"/>
    </contour>
    <contour>
      <point x="77" y="668" type="line"/>
      <point x="577" y="668" type="line"/>
      <point x="580" y="690" type="line"/>
      <point x="80" y="690" type="line"/>
    </contour>
  </outline>
</glyph>
<glyph name="tetse-cy" format="2">
  <advance width="662"/>
  <unicode hex="04B5"/>
  <outline>
    <contour>
      <point x="523" y="0" type="line"/>
      <point x="548" y="0" type="line"/>
      <point x="615" y="480" type="line"/>
      <point x="590" y="480" type="line"/>
    </contour>
    <contour>
      <point x="191" y="0" type="line"/>
      <point x="598" y="0" type="line"/>
      <point x="601" y="22" type="line"/>
      <point x="194" y="22" type="line"/>
    </contour>
    <contour>
      <point x="174" y="0" type="line"/>
      <point x="199" y="0" type="line"/>
      <point x="266" y="480" type="line"/>
      <point x="241" y="480" type="line"/>
    </contour>
    <contour>
      <point x="559" y="-151" type="line"/>
      <point x="577" y="-151" type="line"/>
      <point x="599" y="7" type="line"/>
      <point x="575" y="7" type="line"/>
    </contour>
    <contour>
      <point x="51" y="458" type="line"/>
      <point x="454" y="458" type="line"/>
      <point x="457" y="480" type="line"/>
      <point x="54" y="480" type="line"/>
    </contour>
  </outline>
</glyph>
<glyph name="chedescender-cy" format="2">
  <advance width="528"/>
  <unicode hex="04B7"/>
  <outline>
    <contour>
      <point x="114" y="480" type="line"/>
      <point x="90" y="480" type="line"/>
      <point x="62" y="285" type="line" smooth="yes"/>
      <point x="53" y="217"/>
      <point x="88" y="182"/>
      <point x="165" y="182" type="curve" smooth="yes"/>
      <point x="238" y="182"/>
      <point x="316" y="211"/>
      <point x="402" y="261" type="curve"/>
      <point x="402" y="283" type="line"/>
      <point x="311" y="232"/>
      <point x="251" y="206"/>
      <point x="170" y="206" type="curve" smooth="yes"/>
      <point x="104" y="206"/>
      <point x="79" y="228"/>
      <point x="87" y="287" type="curve" smooth="yes"/>
    </contour>
    <contour>
      <point x="450" y="480" type="line"/>
      <point x="426" y="480" type="line"/>
      <point x="358" y="0" type="line"/>
      <point x="382" y="0" type="line"/>
    </contour>
    <contour>
      <point x="438" y="21" type="line"/>
      <point x="372" y="21" type="line"/>
      <point x="369" y="0" type="line"/>
      <point x="435" y="0" type="line"/>
    </contour>
    <contour>
      <point x="436" y="5" type="line"/>
      <point x="413" y="5" type="line"/>
      <point x="398" y="-143" type="line"/>
      <point x="415" y="-143" type="line"/>
    </contour>
  </outline>
</glyph>
<glyph name="Cheverticalstroke-cy" format="2">
  <advance width="603"/>
  <unicode hex="04B8"/>
  <outline>
    <contour>
      <point x="245" y="120" type="line"/>
      <point x="265" y="120" type="line"/>
      <point x="319" y="501" type="line"/>
      <point x="299" y="501" type="line"/>
    </contour>
    <component base="Che-cy"/>
  </outline>
</glyph>
<glyph name="cheverticalstroke-cy" format="2">
  <advance width="511"/>
  <unicode hex="04B9"/>
  <outline>
    <contour>
      <point x="123" y="480" type="line"/>
      <point x="99" y="480" type="line"/>
      <point x="71" y="284" type="line" smooth="yes"/>
      <point x="62" y="216"/>
      <point x="92" y="182"/>
      <point x="158" y="182" type="curve" smooth="yes"/>
      <point x="232" y="182"/>
      <point x="310" y="198"/>
      <point x="398" y="242" type="curve"/>
      <point x="400" y="263" type="line"/>
      <point x="307" y="220"/>
      <point x="247" y="206"/>
      <point x="167" y="206" type="curve" smooth="yes"/>
      <point x="111" y="206"/>
      <point x="88" y="231"/>
      <point x="96" y="288" type="curve" smooth="yes"/>
    </contour>
    <contour>
      <point x="445" y="480" type="line"/>
      <point x="421" y="480" type="line"/>
      <point x="353" y="0" type="line"/>
      <point x="377" y="0" type="line"/>
    </contour>
    <contour>
      <point x="204" y="59" type="line"/>
      <point x="224" y="59" type="line"/>
      <point x="266" y="360" type="line"/>
      <point x="246" y="360" type="line"/>
    </contour>
  </outline>
</glyph>
<glyph name="Palochka-cy" format="2">
  <advance width="231"/>
  <unicode hex="04C0"/>
  <outline>
    <contour>
      <point x="184" y="690" type="line"/>
      <point x="159" y="690" type="line"/>
      <point x="62" y="0" type="line"/>
      <point x="87" y="0" type="line"/>
    </contour>
  </outline>
</glyph>
<glyph name="Kahook-cy" format="2">
  <advance width="576"/>
  <unicode hex="04C3"/>
  <outline>
    <contour>
      <point x="224" y="-152" type="line"/>
      <point x="381" y="-157"/>
      <point x="471" y="-54"/>
      <point x="492" y="96" type="curve" smooth="yes"/>
      <point x="507" y="208"/>
      <point x="444" y="349"/>
      <point x="281" y="361" type="curve"/>
      <point x="281" y="363" type="line"/>
      <point x="389" y="374"/>
      <point x="477" y="520"/>
      <point x="569" y="690" type="curve"/>
      <point x="543" y="690" type="line"/>
      <point x="460" y="539"/>
      <point x="374" y="371"/>
      <point x="236" y="371" type="curve" smooth="yes"/>
      <point x="123" y="371" type="line"/>
      <point x="120" y="349" type="line"/>
      <point x="233" y="349" type="line" smooth="yes"/>
      <point x="401" y="349"/>
      <point x="484" y="218"/>
      <point x="467" y="96" type="curve" smooth="yes"/>
      <point x="444" y="-62"/>
      <point x="355" y="-128"/>
      <point x="226" y="-135" type="curve"/>
    </contour>
    <contour>
      <point x="62" y="0" type="line"/>
      <point x="86" y="0" type="line"/>
      <point x="123" y="263" type="line" smooth="yes"/>
      <point x="128" y="296"/>
      <point x="132" y="325"/>
      <point x="134" y="361" type="curve"/>
      <point x="141" y="396"/>
      <point x="145" y="419"/>
      <point x="150" y="454" type="curve" smooth="yes"/>
      <point x="183" y="690" type="line"/>
      <point x="159" y="690" type="line"/>
    </contour>
  </outline>
</glyph>
<glyph name="kahook-cy" format="2">
  <advance width="515"/>
  <unicode hex="04C4"/>
  <outline>
    <contour>
      <point x="205" y="-142" type="line"/>
      <point x="361" y="-151"/>
      <point x="421" y="-59"/>
      <point x="436" y="45" type="curve" smooth="yes"/>
      <point x="453" y="167"/>
      <point x="363" y="244"/>
      <point x="269" y="250" type="curve"/>
      <point x="270" y="251" type="line"/>
      <point x="368" y="259"/>
      <point x="436" y="376"/>
      <point x="501" y="480" type="curve"/>
      <point x="475" y="480" type="line"/>
      <point x="407" y="373"/>
      <point x="342" y="261"/>
      <point x="229" y="261" type="curve"/>
      <point x="224" y="240" type="line"/>
      <point x="337" y="241"/>
      <point x="428" y="171"/>
      <point x="411" y="45" type="curve" smooth="yes"/>
      <point x="398" y="-47"/>
      <point x="354" y="-125"/>
      <point x="208" y="-125" type="curve"/>
    </contour>
    <contour>
      <point x="70" y="0" type="line"/>
      <point x="94" y="0" type="line"/>
      <point x="120" y="182" type="line" smooth="yes"/>
      <point x="123" y="205"/>
      <point x="126" y="226"/>
      <point x="127" y="251" type="curve"/>
      <point x="132" y="276"/>
      <point x="135" y="293"/>
      <point x="139" y="319" type="curve" smooth="yes"/>
      <point x="162" y="480" type="line"/>
      <point x="138" y="480" type="line"/>
    </contour>
    <contour>
      <point x="115" y="240" type="line"/>
      <point x="251" y="240" type="line"/>
      <point x="254" y="261" type="line"/>
      <point x="118" y="261" type="line"/>
    </contour>
  </outline>
</glyph>
<glyph name="eltail-cy" format="2">
  <advance width="537"/>
  <unicode hex="04C6"/>
  <outline>
    <contour>
      <point x="382" y="20" type="line"/>
      <point x="380" y="0" type="line"/>
      <point x="424" y="0" type="line"/>
      <point x="374" y="-143" type="line"/>
      <point x="393" y="-143" type="line"/>
      <point x="449" y="1" type="line"/>
      <point x="451" y="20" type="line"/>
    </contour>
    <component base="el-cy"/>
  </outline>
</glyph>
<glyph name="chekhakassian-cy" format="2">
  <advance width="505"/>
  <unicode hex="04CC"/>
  <outline>
    <contour>
      <point x="334" y="21" type="line"/>
      <point x="334" y="0" type="line"/>
      <point x="400" y="0" type="line"/>
      <point x="400" y="21" type="line"/>
    </contour>
    <contour>
      <point x="334" y="5" type="line"/>
      <point x="334" y="-143" type="line"/>
      <point x="351" y="-143" type="line"/>
      <point x="357" y="5" type="line"/>
    </contour>
    <component base="che-cy"/>
  </outline>
</glyph>
<glyph name="Emtail-cy" format="2">
  <advance width="866"/>
  <unicode hex="04CD"/>
  <outline>
    <contour>
      <point x="790" y="3" type="line"/>
      <point x="793" y="22" type="line"/>
      <point x="704" y="22" type="line"/>
      <point x="701" y="0" type="line"/>
      <point x="765" y="0" type="line"/>
      <point x="714" y="-151" type="line"/>
      <point x="733" y="-151" type="line"/>
    </contour>
    <component base="Em-cy"/>
  </outline>
</glyph>
<glyph name="Obarred-cy" format="2">
  <advance width="660"/>
  <unicode hex="04E8"/>
  <anchor x="386" y="740" name="top"/>
  <outline>
    <contour>
      <point x="97" y="334" type="line"/>
      <point x="580" y="334" type="line"/>
      <point x="580" y="355" type="line"/>
      <point x="97" y="355" type="line"/>
    </contour>
    <component base="O-cy"/>
  </outline>
</glyph>
<glyph name="Gedescender-cy" format="2">
  <advance width="503"/>
  <unicode hex="04F6"/>
  <outline>
    <contour>
      <point x="163" y="7" type="line"/>
      <point x="139" y="7" type="line"/>
      <point x="123" y="-151" type="line"/>
      <point x="141" y="-151" type="line"/>
    </contour>
    <contour>
      <point x="165" y="22" type="line"/>
      <point x="63" y="22" type="line"/>
      <point x="60" y="0" type="line"/>
      <point x="162" y="0" type="line"/>
    </contour>
    <component base="Ge-cy"/>
  </outline>
</glyph>
<glyph name="gestrokehook-cy" format="2">
  <advance width="438"/>
  <unicode hex="04FB"/>
  <outline>
    <contour>
      <point x="43" y="-156" type="line"/>
      <point x="112" y="-156"/>
      <point x="151" y="-118"/>
      <point x="162" y="-45" type="curve" smooth="yes"/>
      <point x="172" y="22" type="line"/>
      <point x="63" y="22" type="line"/>
      <point x="59" y="0" type="line"/>
      <point x="145" y="0" type="line"/>
      <point x="139" y="-44" type="line" smooth="yes"/>
      <point x="131" y="-105"/>
      <point x="98" y="-135"/>
      <point x="46" y="-135" type="curve"/>
    </contour>
    <component base="ghestroke-cy"/>
  </outline>
</glyph>
<glyph name="hahook-cy" format="2">
  <advance width="494"/>
  <unicode hex="04FD"/>
  <outline>
    <contour>
      <point x="205" y="-158" type="line"/>
      <point x="345" y="-162"/>
      <point x="410" y="-109"/>
      <point x="424" y="-12" type="curve" smooth="yes"/>
      <point x="432" y="44"/>
      <point x="395" y="104"/>
      <point x="286" y="252" type="curve"/>
      <point x="492" y="480" type="line"/>
      <point x="463" y="480" type="line"/>
      <point x="257" y="252" type="line"/>
      <point x="345" y="128"/>
      <point x="408" y="53"/>
      <point x="398" y="-14" type="curve" smooth="yes"/>
      <point x="385" y="-110"/>
      <point x="317" y="-138"/>
      <point x="208" y="-141" type="curve"/>
    </contour>
    <contour>
      <point x="-7" y="0" type="line"/>
      <point x="22" y="0" type="line"/>
      <point x="243" y="252" type="line"/>
      <point x="101" y="480" type="line"/>
      <point x="72" y="480" type="line"/>
      <point x="214" y="252" type="line"/>
    </contour>
    <contour>
      <point x="228" y="242" type="line"/>
      <point x="275" y="242" type="line"/>
      <point x="278" y="263" type="line"/>
      <point x="231" y="263" type="line"/>
    </contour>
  </outline>
</glyph>
<glyph name="hastroke-cy" format="2">
  <advance width="505"/>
  <unicode hex="04FF"/>
  <outline>
    <contour>
      <point x="420" y="261" type="line"/>
      <point x="70" y="261" type="line"/>
      <point x="68" y="241" type="line"/>
      <point x="418" y="241" type="line"/>
    </contour>
    <component base="ha-cy"/>
  </outline>
</glyph>
<glyph name="elhook-cy" format="2">
  <advance width="552"/>
  <unicode hex="0513"/>
  <outline>
    <contour>
      <point x="473" y="480" type="line"/>
      <point x="311" y="480" type="line" smooth="yes"/>
      <point x="247" y="480"/>
      <point x="216" y="449"/>
      <point x="200" y="390" type="curve" smooth="yes"/>
      <point x="184" y="331"/>
      <point x="156" y="184"/>
      <point x="102" y="100" type="curve" smooth="yes"/>
      <point x="83" y="70"/>
      <point x="52" y="37"/>
      <point x="2" y="16" type="curve"/>
      <point x="3" y="-5" type="line"/>
      <point x="53" y="10"/>
      <point x="94" y="48"/>
      <point x="121" y="89" type="curve" smooth="yes"/>
      <point x="173" y="170"/>
      <point x="198" y="291"/>
      <point x="223" y="389" type="curve" smooth="yes"/>
      <point x="234" y="435"/>
      <point x="259" y="459"/>
      <point x="307" y="459" type="curve" smooth="yes"/>
      <point x="471" y="459" type="line"/>
    </contour>
    <contour>
      <point x="425" y="45" type="curve" smooth="yes"/>
      <point x="486" y="480" type="line"/>
      <point x="462" y="480" type="line"/>
      <point x="401" y="46" type="line" smooth="yes"/>
      <point x="384" y="-81"/>
      <point x="349" y="-135"/>
      <point x="227" y="-135" type="curve"/>
      <point x="225" y="-152" type="line"/>
      <point x="357" y="-161"/>
      <point x="406" y="-94"/>
    </contour>
  </outline>
</glyph>
<glyph name="Pedescender-cy" format="2">
  <advance width="674"/>
  <unicode hex="0524"/>
  <outline>
    <contour>
      <point x="598" y="22" type="line"/>
      <point x="496" y="22" type="line"/>
      <point x="493" y="0" type="line"/>
      <point x="595" y="0" type="line"/>
    </contour>
    <contour>
      <point x="596" y="7" type="line"/>
      <point x="572" y="7" type="line"/>
      <point x="556" y="-151" type="line"/>
      <point x="574" y="-151" type="line"/>
    </contour>
    <component base="Pe-cy"/>
  </outline>
</glyph>
<glyph name="Shhadescender-cy" format="2">
  <advance width="634"/>
  <unicode hex="0526"/>
  <outline>
    <contour>
      <point x="564" y="22" type="line"/>
      <point x="472" y="22" type="line"/>
      <point x="469" y="0" type="line"/>
      <point x="561" y="0" type="line"/>
    </contour>
    <contour>
      <point x="562" y="7" type="line"/>
      <point x="538" y="7" type="line"/>
      <point x="522" y="-151" type="line"/>
      <point x="540" y="-151" type="line"/>
    </contour>
    <component base="Shha-cy"/>
  </outline>
</glyph>
<glyph name="Eldescender-cy" format="2">
  <advance width="644"/>
  <unicode hex="052E"/>
  <outline>
    <contour>
      <point x="567" y="7" type="line"/>
      <point x="543" y="7" type="line"/>
      <point x="527" y="-151" type="line"/>
      <point x="545" y="-151" type="line"/>
    </contour>
    <contour>
      <point x="569" y="22" type="line"/>
      <point x="467" y="22" type="line"/>
      <point x="464" y="0" type="line"/>
      <point x="566" y="0" type="line"/>
    </contour>
    <component base="El-cy"/>
  </outline>
</glyph>
<glyph name="eldescender-cy" format="2">
  <advance width="536"/>
  <unicode hex="052F"/>
  <outline>
    <contour>
      <point x="443" y="21" type="line"/>
      <point x="382" y="21" type="line"/>
      <point x="379" y="0" type="line"/>
      <point x="417" y="0" type="line"/>
      <point x="403" y="-143" type="line"/>
      <point x="420" y="-143" type="line"/>
    </contour>
    <component base="el-cy"/>
  </outline>
</glyph>
<glyph name="emdash" format="2">
  <advance width="931"/>
  <unicode hex="2014"/>
  <outline>
    <contour>
      <point x="842" y="262" type="line"/>
      <point x="81" y="262" type="line"/>
      <point x="78" y="240" type="line"/>
      <point x="839" y="240" type="line"/>
    </contour>
  </outline>
</glyph>
<glyph name="daggerdbl" format="2">
  <advance width="412"/>
  <unicode hex="2021"/>
  <outline>
    <contour>
      <point x="272" y="690" type="curve" smooth="yes"/>
      <point x="266" y="690" type="line" smooth="yes"/>
      <point x="259" y="690"/>
      <point x="256" y="687"/>
      <point x="255" y="680" type="curve" smooth="yes"/>
      <point x="242" y="589" type="line" smooth="yes"/>
      <point x="237" y="556"/>
      <point x="235" y="527"/>
      <point x="234" y="491" type="curve"/>
      <point x="248" y="491" type="line"/>
      <point x="257" y="527"/>
      <point x="263" y="556"/>
      <point x="268" y="589" type="curve" smooth="yes"/>
      <point x="281" y="680" type="line" smooth="yes"/>
      <point x="282" y="687"/>
      <point x="279" y="690"/>
    </contour>
    <contour>
      <point x="74" y="470" type="curve" smooth="yes"/>
      <point x="73" y="464" type="line" smooth="yes"/>
      <point x="72" y="457"/>
      <point x="75" y="454"/>
      <point x="82" y="454" type="curve" smooth="yes"/>
      <point x="143" y="454" type="line" smooth="yes"/>
      <point x="158" y="454"/>
      <point x="189" y="456"/>
      <point x="218" y="460" type="curve"/>
      <point x="220" y="474" type="line"/>
      <point x="192" y="478"/>
      <point x="162" y="480"/>
      <point x="147" y="480" type="curve" smooth="yes"/>
      <point x="86" y="480" type="line" smooth="yes"/>
      <point x="79" y="480"/>
      <point x="75" y="477"/>
    </contour>
    <contour>
      <point x="258" y="474" type="curve"/>
      <point x="256" y="460" type="line"/>
      <point x="283" y="456"/>
      <point x="314" y="454"/>
      <point x="329" y="454" type="curve" smooth="yes"/>
      <point x="390" y="454" type="line" smooth="yes"/>
      <point x="397" y="454"/>
      <point x="400" y="457"/>
      <point x="401" y="464" type="curve" smooth="yes"/>
      <point x="402" y="470" type="line" smooth="yes"/>
      <point x="403" y="477"/>
      <point x="401" y="480"/>
      <point x="394" y="480" type="curve" smooth="yes"/>
      <point x="333" y="480" type="line" smooth="yes"/>
      <point x="318" y="480"/>
      <point x="286" y="478"/>
    </contour>
    <contour>
      <point x="154" y="-110" type="curve" smooth="yes"/>
      <point x="160" y="-110" type="line" smooth="yes"/>
      <point x="167" y="-110"/>
      <point x="170" y="-107"/>
      <point x="171" y="-100" type="curve" smooth="yes"/>
      <point x="184" y="-9" type="line" smooth="yes"/>
      <point x="189" y="24"/>
      <point x="191" y="53"/>
      <point x="192" y="89" type="curve"/>
      <point x="178" y="89" type="line"/>
      <point x="169" y="53"/>
      <point x="163" y="24"/>
      <point x="158" y="-9" type="curve" smooth="yes"/>
      <point x="145" y="-100" type="line" smooth="yes"/>
      <point x="144" y="-107"/>
      <point x="147" y="-110"/>
    </contour>
    <contour>
      <point x="352" y="110" type="curve" smooth="yes"/>
      <point x="353" y="116" type="line" smooth="yes"/>
      <point x="354" y="123"/>
      <point x="351" y="126"/>
      <point x="344" y="126" type="curve" smooth="yes"/>
      <point x="283" y="126" type="line" smooth="yes"/>
      <point x="268" y="126"/>
      <point x="237" y="124"/>
      <point x="208" y="120" type="curve"/>
      <point x="206" y="106" type="line"/>
      <point x="234" y="102"/>
      <point x="264" y="100"/>
      <point x="279" y="100" type="curve" smooth="yes"/>
      <point x="340" y="100" type="line" smooth="yes"/>
      <point x="347" y="100"/>
      <point x="351" y="103"/>
    </contour>
    <contour>
      <point x="36" y="126" type="line" smooth="yes"/>
      <point x="29" y="126"/>
      <point x="26" y="123"/>
      <point x="25" y="116" type="curve" smooth="yes"/>
      <point x="24" y="110" type="line" smooth="yes"/>
      <point x="23" y="103"/>
      <point x="25" y="100"/>
      <point x="32" y="100" type="curve" smooth="yes"/>
      <point x="93" y="100" type="line" smooth="yes"/>
      <point x="108" y="100"/>
      <point x="140" y="102"/>
      <point x="168" y="106" type="curve"/>
      <point x="170" y="120" type="line"/>
      <point x="143" y="124"/>
      <point x="112" y="126"/>
      <point x="97" y="126" type="curve" smooth="yes"/>
    </contour>
    <contour>
      <point x="228" y="445" type="line"/>
      <point x="219" y="410"/>
      <point x="215" y="387"/>
      <point x="210" y="352" type="curve" smooth="yes"/>
      <point x="192" y="228" type="line" smooth="yes"/>
      <point x="187" y="193"/>
      <point x="185" y="170"/>
      <point x="184" y="135" type="curve"/>
      <point x="198" y="135" type="line"/>
      <point x="207" y="170"/>
      <point x="211" y="193"/>
      <point x="216" y="228" type="curve" smooth="yes"/>
      <point x="234" y="352" type="line" smooth="yes"/>
      <point x="239" y="387"/>
      <point x="241" y="410"/>
      <point x="242" y="445" type="curve"/>
    </contour>
  </outline>
</glyph>
<glyph name="perthousand" format="2">
  <advance width="1237"/>
  <unicode hex="2030"/>
  <outline>
    <contour>
      <point x="745" y="690" type="line"/>
      <point x="721" y="690" type="line"/>
      <point x="144" y="0" type="line"/>
      <point x="168" y="0" type="line"/>
    </contour>
    <contour>
      <point x="266" y="683" type="curve" smooth="yes"/>
      <point x="362" y="683"/>
      <point x="382" y="629"/>
      <point x="365" y="500" type="curve" smooth="yes"/>
      <point x="348" y="371"/>
      <point x="308" y="313"/>
      <point x="209" y="313" type="curve" smooth="yes"/>
      <point x="115" y="313"/>
      <point x="92" y="369"/>
      <point x="110" y="496" type="curve" smooth="yes"/>
      <point x="128" y="625"/>
      <point x="162" y="683"/>
    </contour>
    <contour>
      <point x="264" y="702" type="curve" smooth="yes"/>
      <point x="151" y="702"/>
      <point x="107" y="639"/>
      <point x="88" y="500" type="curve" smooth="yes"/>
      <point x="68" y="359"/>
      <point x="98" y="294"/>
      <point x="211" y="294" type="curve" smooth="yes"/>
      <point x="320" y="294"/>
      <point x="367" y="357"/>
      <point x="387" y="496" type="curve" smooth="yes"/>
      <point x="407" y="637"/>
      <point x="377" y="702"/>
    </contour>
    <contour>
      <point x="685" y="382" type="curve" smooth="yes"/>
      <point x="781" y="382"/>
      <point x="801" y="328"/>
      <point x="784" y="199" type="curve" smooth="yes"/>
      <point x="767" y="70"/>
      <point x="727" y="12"/>
      <point x="628" y="12" type="curve" smooth="yes"/>
      <point x="534" y="12"/>
      <point x="511" y="68"/>
      <point x="529" y="195" type="curve" smooth="yes"/>
      <point x="547" y="324"/>
      <point x="581" y="382"/>
    </contour>
    <contour>
      <point x="683" y="401" type="curve" smooth="yes"/>
      <point x="570" y="401"/>
      <point x="526" y="338"/>
      <point x="507" y="199" type="curve" smooth="yes"/>
      <point x="487" y="58"/>
      <point x="517" y="-7"/>
      <point x="630" y="-7" type="curve" smooth="yes"/>
      <point x="739" y="-7"/>
      <point x="786" y="56"/>
      <point x="806" y="195" type="curve" smooth="yes"/>
      <point x="826" y="336"/>
      <point x="796" y="401"/>
    </contour>
    <contour>
      <point x="1042" y="382" type="curve" smooth="yes"/>
      <point x="1138" y="382"/>
      <point x="1158" y="328"/>
      <point x="1141" y="199" type="curve" smooth="yes"/>
      <point x="1124" y="70"/>
      <point x="1084" y="12"/>
      <point x="985" y="12" type="curve" smooth="yes"/>
      <point x="891" y="12"/>
      <point x="868" y="68"/>
      <point x="886" y="195" type="curve" smooth="yes"/>
      <point x="904" y="324"/>
      <point x="938" y="382"/>
    </contour>
    <contour>
      <point x="1040" y="401" type="curve" smooth="yes"/>
      <point x="927" y="401"/>
      <point x="883" y="338"/>
      <point x="864" y="199" type="curve" smooth="yes"/>
      <point x="844" y="58"/>
      <point x="874" y="-7"/>
      <point x="987" y="-7" type="curve" smooth="yes"/>
      <point x="1096" y="-7"/>
      <point x="1143" y="56"/>
      <point x="1163" y="195" type="curve" smooth="yes"/>
      <point x="1183" y="336"/>
      <point x="1153" y="401"/>
    </contour>
  </outline>
</glyph>
<glyph name="sixsuperior" format="2">
  <advance width="413"/>
  <unicode hex="2076"/>
  <outline>
    <contour>
      <point x="305" y="753" type="curve" smooth="yes"/>
      <point x="198" y="753"/>
      <point x="147" y="726"/>
      <point x="118" y="525" type="curve" smooth="yes"/>
      <point x="100" y="397"/>
      <point x="117" y="347"/>
      <point x="227" y="347" type="curve" smooth="yes"/>
      <point x="331" y="347"/>
      <point x="373" y="407"/>
      <point x="373" y="522" type="curve" smooth="yes"/>
      <point x="373" y="584"/>
      <point x="336" y="608"/>
      <point x="272" y="608" type="curve" smooth="yes"/>
      <point x="218" y="608"/>
      <point x="184" y="592"/>
      <point x="140" y="543" type="curve"/>
      <point x="139" y="525" type="line"/>
      <point x="189" y="575"/>
      <point x="222" y="587"/>
      <point x="268" y="587" type="curve" smooth="yes"/>
      <point x="320" y="587"/>
      <point x="348" y="569"/>
      <point x="348" y="526" type="curve" smooth="yes"/>
      <point x="348" y="422"/>
      <point x="325" y="368"/>
      <point x="232" y="368" type="curve" smooth="yes"/>
      <point x="134" y="368"/>
      <point x="127" y="413"/>
      <point x="142" y="524" type="curve" smooth="yes"/>
      <point x="168" y="710"/>
      <point x="203" y="732"/>
      <point x="302" y="732" type="curve" smooth="yes"/>
      <point x="331" y="732"/>
      <point x="354" y="726"/>
      <point x="375" y="721" type="curve"/>
      <point x="383" y="740" type="line"/>
      <point x="357" y="748"/>
      <point x="326" y="753"/>
    </contour>
  </outline>
</glyph>
<glyph name="colonsign" format="2">
  <advance width="567"/>
  <unicode hex="20A1"/>
  <outline>
    <contour>
      <point x="386" y="702" type="curve" smooth="yes"/>
      <point x="198" y="702"/>
      <point x="120" y="609"/>
      <point x="83" y="347" type="curve" smooth="yes"/>
      <point x="46" y="83"/>
      <point x="100" y="-12"/>
      <point x="290" y="-12" type="curve" smooth="yes"/>
      <point x="373" y="-12"/>
      <point x="434" y="-6"/>
      <point x="489" y="6" type="curve"/>
      <point x="484" y="24" type="line"/>
      <point x="430" y="15"/>
      <point x="370" y="11"/>
      <point x="289" y="11" type="curve" smooth="yes"/>
      <point x="118" y="11"/>
      <point x="74" y="96"/>
      <point x="108" y="343" type="curve" smooth="yes"/>
      <point x="143" y="592"/>
      <point x="209" y="679"/>
      <point x="387" y="679" type="curve" smooth="yes"/>
      <point x="461" y="679"/>
      <point x="507" y="676"/>
      <point x="562" y="667" type="curve"/>
      <point x="569" y="685" type="line"/>
      <point x="518" y="697"/>
      <point x="466" y="702"/>
    </contour>
    <contour>
      <point x="125" y="-135" type="line"/>
      <point x="146" y="-135" type="line"/>
      <point x="568" y="804" type="line"/>
      <point x="547" y="804" type="line"/>
    </contour>
    <contour>
      <point x="25" y="-135" type="line"/>
      <point x="46" y="-135" type="line"/>
      <point x="468" y="804" type="line"/>
      <point x="447" y="804" type="line"/>
    </contour>
  </outline>
</glyph>
<glyph name="ruble" format="2">
  <advance width="522"/>
  <unicode hex="20BD"/>
  <outline>
    <contour>
      <point x="327" y="698" type="curve" smooth="yes"/>
      <point x="285" y="698"/>
      <point x="238" y="697"/>
      <point x="167" y="690" type="curve"/>
      <point x="180" y="672" type="line"/>
      <point x="207" y="674"/>
      <point x="286" y="675"/>
      <point x="328" y="675" type="curve" smooth="yes"/>
      <point x="454" y="675"/>
      <point x="494" y="639"/>
      <point x="474" y="497" type="curve" smooth="yes"/>
      <point x="454" y="353"/>
      <point x="402" y="317"/>
      <point x="274" y="315" type="curve" smooth="yes"/>
      <point x="216" y="314"/>
      <point x="94" y="315"/>
      <point x="29" y="315" type="curve"/>
      <point x="27" y="297" type="line"/>
      <point x="49" y="295"/>
      <point x="177" y="292"/>
      <point x="274" y="292" type="curve" smooth="yes"/>
      <point x="419" y="292"/>
      <point x="477" y="335"/>
      <point x="500" y="494" type="curve" smooth="yes"/>
      <point x="523" y="653"/>
      <point x="474" y="698"/>
    </contour>
    <contour>
      <point x="192" y="690" type="line"/>
      <point x="167" y="690" type="line"/>
      <point x="70" y="0" type="line"/>
      <point x="95" y="0" type="line"/>
    </contour>
    <contour>
      <point x="375" y="165" type="line"/>
      <point x="10" y="165" type="line"/>
      <point x="8" y="144" type="line"/>
      <point x="365" y="144" type="line"/>
    </contour>
  </outline>
</glyph>
<glyph name="estimated" format="2">
  <advance width="620"/>
  <unicode hex="212E"/>
  <outline>
    <contour>
      <point x="430" y="250" type="line"/>
      <point x="549" y="250" type="line"/>
      <point x="549" y="413"/>
      <point x="437" y="492"/>
      <point x="314" y="492" type="curve" smooth="yes"/>
      <point x="179" y="492"/>
      <point x="74" y="405"/>
      <point x="74" y="240" type="curve" smooth="yes"/>
      <point x="74" y="75"/>
      <point x="179" y="-12"/>
      <point x="314" y="-12" type="curve" smooth="yes"/>
      <point x="386" y="-12"/>
      <point x="457" y="18"/>
      <point x="516" y="98" type="curve"/>
      <point x="502" y="109" type="line"/>
      <point x="446" y="44"/>
      <point x="395" y="11"/>
      <point x="320" y="11" type="curve" smooth="yes"/>
      <point x="260" y="11"/>
      <point x="189" y="27"/>
      <point x="189" y="88" type="curve" smooth="yes"/>
      <point x="189" y="392" type="line" smooth="yes"/>
      <point x="189" y="455"/>
      <point x="254" y="469"/>
      <point x="314" y="469" type="curve" smooth="yes"/>
      <point x="371" y="469"/>
      <point x="430" y="455"/>
      <point x="430" y="392" type="curve" smooth="yes"/>
    </contour>
    <contour>
      <point x="418" y="259" type="line"/>
      <point x="362" y="259"/>
      <point x="184" y="256"/>
      <point x="162" y="254" type="curve"/>
      <point x="162" y="236" type="line"/>
      <point x="549" y="236" type="line"/>
      <point x="549" y="259" type="line"/>
    </contour>
  </outline>
</glyph>
<glyph name="partialdiff" format="2">
  <advance width="567"/>
  <unicode hex="2202"/>
  <outline>
    <contour>
      <point x="204" y="702" type="curve"/>
      <point x="203" y="682" type="line"/>
      <point x="456" y="686"/>
      <point x="512" y="616"/>
      <point x="469" y="342" type="curve" smooth="yes"/>
      <point x="440" y="153"/>
      <point x="372" y="11"/>
      <point x="220" y="11" type="curve" smooth="yes"/>
      <point x="103" y="11"/>
      <point x="51" y="80"/>
      <point x="83" y="216" type="curve" smooth="yes"/>
      <point x="114" y="350"/>
      <point x="187" y="419"/>
      <point x="290" y="419" type="curve" smooth="yes"/>
      <point x="338" y="419"/>
      <point x="425" y="401"/>
      <point x="469" y="290" type="curve"/>
      <point x="476" y="304" type="line"/>
      <point x="443" y="409"/>
      <point x="364" y="441"/>
      <point x="290" y="441" type="curve" smooth="yes"/>
      <point x="169" y="441"/>
      <point x="90" y="363"/>
      <point x="58" y="218" type="curve" smooth="yes"/>
      <point x="24" y="75"/>
      <point x="81" y="-12"/>
      <point x="221" y="-12" type="curve" smooth="yes"/>
      <point x="371" y="-12"/>
      <point x="457" y="101"/>
      <point x="493" y="334" type="curve" smooth="yes"/>
      <point x="544" y="651"/>
      <point x="457" y="702"/>
    </contour>
  </outline>
</glyph>
<glyph name="emptyset" format="2">
  <advance width="685"/>
  <unicode hex="2205"/>
  <outline>
    <contour>
      <point x="350" y="633" type="curve" smooth="yes"/>
      <point x="188" y="633"/>
      <point x="57" y="502"/>
      <point x="57" y="341" type="curve" smooth="yes"/>
      <point x="57" y="179"/>
      <point x="188" y="48"/>
      <point x="350" y="48" type="curve" smooth="yes"/>
      <point x="511" y="48"/>
      <point x="642" y="179"/>
      <point x="642" y="341" type="curve" smooth="yes"/>
      <point x="642" y="502"/>
      <point x="511" y="633"/>
    </contour>
    <contour>
      <point x="366" y="171" type="line" smooth="yes"/>
      <point x="371" y="171"/>
      <point x="374" y="168"/>
      <point x="374" y="163" type="curve" smooth="yes"/>
      <point x="374" y="126" type="line" smooth="yes"/>
      <point x="374" y="122"/>
      <point x="371" y="119"/>
      <point x="366" y="119" type="curve" smooth="yes"/>
      <point x="327" y="119" type="line" smooth="yes"/>
      <point x="323" y="119"/>
      <point x="320" y="122"/>
      <point x="320" y="126" type="curve" smooth="yes"/>
      <point x="320" y="163" type="line" smooth="yes"/>
      <point x="320" y="168"/>
      <point x="323" y="171"/>
      <point x="327" y="171" type="curve" smooth="yes"/>
    </contour>
    <contour>
      <point x="350" y="545" type="curve" smooth="yes"/>
      <point x="426" y="545"/>
      <point x="467" y="515"/>
      <point x="467" y="452" type="curve" smooth="yes"/>
      <point x="467" y="361"/>
      <point x="373" y="346"/>
      <point x="373" y="241" type="curve"/>
      <point x="319" y="241" type="line"/>
      <point x="319" y="356"/>
      <point x="416" y="387"/>
      <point x="416" y="452" type="curve" smooth="yes"/>
      <point x="416" y="481"/>
      <point x="392" y="498"/>
      <point x="350" y="498" type="curve" smooth="yes"/>
      <point x="289" y="498"/>
      <point x="271" y="495"/>
      <point x="231" y="489" type="curve"/>
      <point x="228" y="534" type="line"/>
      <point x="267" y="540"/>
      <point x="284" y="545"/>
    </contour>
  </outline>
</glyph>
<glyph name="increment" format="2">
  <advance width="555"/>
  <unicode hex="2206"/>
  <outline>
    <contour>
      <point x="350" y="690" type="curve" smooth="yes"/>
      <point x="329" y="690" type="line" smooth="yes"/>
      <point x="323" y="690"/>
      <point x="318" y="687"/>
      <point x="315" y="681" type="curve" smooth="yes"/>
      <point x="-11" y="22" type="line"/>
      <point x="-14" y="0" type="line"/>
      <point x="6" y="0" type="line"/>
      <point x="307" y="612" type="line" smooth="yes"/>
      <point x="316" y="631"/>
      <point x="325" y="649"/>
      <point x="334" y="668" type="curve"/>
      <point x="339" y="668" type="line"/>
      <point x="344" y="649"/>
      <point x="348" y="631"/>
      <point x="352" y="612" type="curve" smooth="yes"/>
      <point x="483" y="0" type="line"/>
      <point x="500" y="0" type="line"/>
      <point x="503" y="22" type="line"/>
      <point x="362" y="681" type="line" smooth="yes"/>
      <point x="361" y="687"/>
      <point x="356" y="690"/>
    </contour>
    <contour>
      <point x="503" y="22" type="line"/>
      <point x="-11" y="22" type="line"/>
      <point x="-14" y="0" type="line"/>
      <point x="500" y="0" type="line"/>
    </contour>
  </outline>
</glyph>
<glyph name="divisionslash" format="2">
  <advance width="475"/>
  <unicode hex="2215"/>
  <outline>
    <contour>
      <point x="499" y="680" type="line"/>
      <point x="474" y="680" type="line"/>
      <point x="-5" y="-69" type="line"/>
      <point x="20" y="-69" type="line"/>
    </contour>
  </outline>
</glyph>
<glyph name="radical" format="2">
  <advance width="548"/>
  <unicode hex="221A"/>
  <outline>
    <contour>
      <point x="596" y="876" type="line"/>
      <point x="570" y="876" type="line"/>
      <point x="169" y="22" type="line"/>
      <point x="155" y="22" type="line"/>
      <point x="97" y="480" type="line"/>
      <point x="73" y="480" type="line"/>
      <point x="134" y="9" type="line" smooth="yes"/>
      <point x="134" y="4"/>
      <point x="140" y="0"/>
      <point x="146" y="0" type="curve" smooth="yes"/>
      <point x="173" y="0" type="line" smooth="yes"/>
      <point x="179" y="0"/>
      <point x="184" y="2"/>
      <point x="186" y="7" type="curve" smooth="yes"/>
    </contour>
  </outline>
</glyph>
<glyph name="integral" format="2">
  <advance width="388"/>
  <unicode hex="222B"/>
  <outline>
    <contour>
      <point x="325" y="714" type="curve" smooth="yes"/>
      <point x="248" y="714"/>
      <point x="210" y="670"/>
      <point x="203" y="582" type="curve" smooth="yes"/>
      <point x="149" y="-88" type="line" smooth="yes"/>
      <point x="142" y="-170"/>
      <point x="109" y="-200"/>
      <point x="43" y="-200" type="curve" smooth="yes"/>
      <point x="-23" y="-200" type="line"/>
      <point x="-27" y="-218" type="line"/>
      <point x="-6" y="-221"/>
      <point x="30" y="-222"/>
      <point x="51" y="-222" type="curve" smooth="yes"/>
      <point x="128" y="-222"/>
      <point x="165" y="-178"/>
      <point x="173" y="-90" type="curve" smooth="yes"/>
      <point x="227" y="580" type="line" smooth="yes"/>
      <point x="233" y="662"/>
      <point x="267" y="692"/>
      <point x="333" y="692" type="curve" smooth="yes"/>
      <point x="399" y="692" type="line"/>
      <point x="403" y="710" type="line"/>
      <point x="381" y="713"/>
      <point x="346" y="714"/>
    </contour>
  </outline>
</glyph>
<glyph name="notequal" format="2">
  <advance width="612"/>
  <unicode hex="2260"/>
  <outline>
    <contour>
      <point x="452" y="514" type="line"/>
      <point x="110" y="58" type="line"/>
      <point x="128" y="49" type="line"/>
      <point x="469" y="505" type="line"/>
    </contour>
    <component base="equal" xOffset="10"/>
  </outline>
</glyph>
<glyph name="Oslash.rvrn" format="2">
  <advance width="660"/>
  <anchor x="389" y="740" name="top"/>
  <outline>
    <contour>
      <point x="156" y="28" type="line"/>
      <point x="139" y="42" type="line"/>
      <point x="89" y="-41" type="line"/>
      <point x="108" y="-51" type="line"/>
    </contour>
    <contour>
      <point x="516" y="661" type="line"/>
      <point x="534" y="648" type="line"/>
      <point x="585" y="731" type="line"/>
      <point x="565" y="741" type="line"/>
    </contour>
    <component base="O"/>
  </outline>
</glyph>
<glyph name=".notdef" format="2">
  <advance width="656"/>
  <outline>
    <contour>
      <point x="218" y="690" type="line"/>
      <point x="177" y="690" type="line"/>
      <point x="79" y="0" type="line"/>
      <point x="120" y="0" type="line"/>
    </contour>
    <contour>
      <point x="607" y="690" type="line"/>
      <point x="566" y="690" type="line"/>
      <point x="468" y="0" type="line"/>
      <point x="509" y="0" type="line"/>
    </contour>
    <contour>
      <point x="177" y="690" type="line"/>
      <point x="172" y="649" type="line"/>
      <point x="602" y="649" type="line"/>
      <point x="607" y="690" type="line"/>
    </contour>
    <contour>
      <point x="85" y="41" type="line"/>
      <point x="79" y="0" type="line"/>
      <point x="509" y="0" type="line"/>
      <point x="515" y="41" type="line"/>
    </contour>
  </outline>
</glyph>
<glyph name="breveacute" format="2">
  <advance width="357"/>
  <anchor x="224" y="554" name="_top"/>
  <outline>
    <contour>
      <point x="360" y="688" type="line"/>
      <point x="352" y="628"/>
      <point x="300" y="593"/>
      <point x="228" y="593" type="curve" smooth="yes"/>
      <point x="156" y="593"/>
      <point x="114" y="626"/>
      <point x="123" y="686" type="curve"/>
      <point x="105" y="684" type="line"/>
      <point x="95" y="613"/>
      <point x="143" y="569"/>
      <point x="228" y="569" type="curve" smooth="yes"/>
      <point x="310" y="569"/>
      <point x="367" y="611"/>
      <point x="377" y="682" type="curve"/>
    </contour>
    <contour>
      <point x="325" y="799" type="line"/>
      <point x="203" y="691" type="line"/>
      <point x="216" y="678" type="line"/>
      <point x="341" y="781" type="line"/>
    </contour>
  </outline>
</glyph>
<glyph name="brevecomb-cy" format="2">
  <anchor x="339" y="480" name="_top"/>
  <outline>
    <contour>
      <point x="467" y="615" type="line"/>
      <point x="457" y="549"/>
      <point x="406" y="511"/>
      <point x="341" y="511" type="curve" smooth="yes"/>
      <point x="274" y="511"/>
      <point x="233" y="549"/>
      <point x="243" y="615" type="curve"/>
      <point x="219" y="615" type="line"/>
      <point x="209" y="544"/>
      <point x="254" y="493"/>
      <point x="338" y="493" type="curve" smooth="yes"/>
      <point x="421" y="493"/>
      <point x="481" y="544"/>
      <point x="491" y="615" type="curve"/>
    </contour>
  </outline>
</glyph>
<glyph name="caron.alt" format="2">
  <advance width="205"/>
  <anchor x="143" y="554" name="_top"/>
  <outline>
    <contour>
      <point x="172" y="700" type="curve" smooth="yes"/>
      <point x="162" y="700" type="line" smooth="yes"/>
      <point x="154" y="700"/>
      <point x="152" y="698"/>
      <point x="151" y="691" type="curve" smooth="yes"/>
      <point x="143" y="635" type="line" smooth="yes"/>
      <point x="142" y="630"/>
      <point x="145" y="626"/>
      <point x="148" y="626" type="curve"/>
      <point x="142" y="587"/>
      <point x="136" y="560"/>
      <point x="125" y="528" type="curve"/>
      <point x="138" y="524" type="line"/>
      <point x="152" y="555"/>
      <point x="167" y="603"/>
      <point x="171" y="633" type="curve" smooth="yes"/>
      <point x="179" y="691" type="line" smooth="yes"/>
      <point x="180" y="698"/>
      <point x="178" y="700"/>
    </contour>
  </outline>
</glyph>
<glyph name="caroncomb.alt" format="2">
  <anchor x="-62" y="554" name="_top"/>
  <outline>
    <contour>
      <point x="-33" y="700" type="curve" smooth="yes"/>
      <point x="-43" y="700" type="line" smooth="yes"/>
      <point x="-51" y="700"/>
      <point x="-53" y="698"/>
      <point x="-54" y="691" type="curve" smooth="yes"/>
      <point x="-62" y="635" type="line" smooth="yes"/>
      <point x="-63" y="630"/>
      <point x="-60" y="626"/>
      <point x="-57" y="626" type="curve"/>
      <point x="-63" y="587"/>
      <point x="-69" y="560"/>
      <point x="-80" y="528" type="curve"/>
      <point x="-67" y="524" type="line"/>
      <point x="-53" y="555"/>
      <point x="-38" y="603"/>
      <point x="-34" y="633" type="curve" smooth="yes"/>
      <point x="-26" y="691" type="line" smooth="yes"/>
      <point x="-25" y="698"/>
      <point x="-27" y="700"/>
    </contour>
  </outline>
</glyph>
<glyph name="circumflexgrave" format="2">
  <advance width="392"/>
  <anchor x="247" y="564" name="_top"/>
  <outline>
    <contour>
      <point x="270" y="693" type="line"/>
      <point x="252" y="693" type="line"/>
      <point x="113" y="586" type="line"/>
      <point x="123" y="573" type="line"/>
      <point x="255" y="666" type="line"/>
      <point x="264" y="666" type="line"/>
      <point x="368" y="574" type="line"/>
      <point x="380" y="586" type="line"/>
    </contour>
    <contour>
      <point x="79" y="782" type="line"/>
      <point x="62" y="765" type="line"/>
      <point x="156" y="667" type="line"/>
      <point x="168" y="678" type="line"/>
    </contour>
  </outline>
</glyph>
<glyph name="circumflextilde" format="2">
  <advance width="392"/>
  <anchor x="241" y="564" name="_top"/>
  <outline>
    <contour>
      <point x="270" y="693" type="line"/>
      <point x="252" y="693" type="line"/>
      <point x="113" y="586" type="line"/>
      <point x="123" y="573" type="line"/>
      <point x="255" y="666" type="line"/>
      <point x="264" y="666" type="line"/>
      <point x="368" y="574" type="line"/>
      <point x="380" y="586" type="line"/>
    </contour>
    <contour>
      <point x="209" y="816" type="curve" smooth="yes"/>
      <point x="165" y="820"/>
      <point x="135" y="790"/>
      <point x="129" y="732" type="curve"/>
      <point x="145" y="730" type="line"/>
      <point x="151" y="777"/>
      <point x="170" y="799"/>
      <point x="210" y="795" type="curve" smooth="yes"/>
      <point x="256" y="790"/>
      <point x="264" y="734"/>
      <point x="328" y="730" type="curve" smooth="yes"/>
      <point x="372" y="727"/>
      <point x="402" y="755"/>
      <point x="407" y="810" type="curve"/>
      <point x="391" y="812" type="line"/>
      <point x="386" y="767"/>
      <point x="367" y="748"/>
      <point x="327" y="751" type="curve" smooth="yes"/>
      <point x="273" y="755"/>
      <point x="265" y="811"/>
    </contour>
  </outline>
</glyph>
<glyph name="dieresisacute" format="2">
  <advance width="399"/>
  <anchor x="246" y="572" name="_top"/>
  <outline>
    <contour>
      <point x="178" y="639" type="curve" smooth="yes"/>
      <point x="170" y="639" type="line" smooth="yes"/>
      <point x="163" y="639"/>
      <point x="160" y="636"/>
      <point x="159" y="629" type="curve" smooth="yes"/>
      <point x="152" y="579" type="line" smooth="yes"/>
      <point x="151" y="571"/>
      <point x="155" y="569"/>
      <point x="161" y="569" type="curve" smooth="yes"/>
      <point x="167" y="569" type="line" smooth="yes"/>
      <point x="175" y="569"/>
      <point x="178" y="571"/>
      <point x="179" y="580" type="curve" smooth="yes"/>
      <point x="186" y="629" type="line" smooth="yes"/>
      <point x="187" y="636"/>
      <point x="185" y="639"/>
    </contour>
    <contour>
      <point x="339" y="639" type="curve" smooth="yes"/>
      <point x="331" y="639" type="line" smooth="yes"/>
      <point x="324" y="639"/>
      <point x="321" y="636"/>
      <point x="320" y="629" type="curve" smooth="yes"/>
      <point x="313" y="579" type="line" smooth="yes"/>
      <point x="312" y="571"/>
      <point x="315" y="569"/>
      <point x="322" y="569" type="curve" smooth="yes"/>
      <point x="328" y="569" type="line" smooth="yes"/>
      <point x="336" y="569"/>
      <point x="339" y="571"/>
      <point x="340" y="580" type="curve" smooth="yes"/>
      <point x="347" y="629" type="line" smooth="yes"/>
      <point x="348" y="636"/>
      <point x="346" y="639"/>
    </contour>
    <contour>
      <point x="356" y="815" type="line"/>
      <point x="213" y="693" type="line"/>
      <point x="225" y="680" type="line"/>
      <point x="372" y="798" type="line"/>
    </contour>
  </outline>
</glyph>
<glyph name="dieresismacron" format="2">
  <advance width="399"/>
  <anchor x="248" y="582" name="_top"/>
  <outline>
    <contour>
      <point x="182" y="669" type="curve" smooth="yes"/>
      <point x="174" y="669" type="line" smooth="yes"/>
      <point x="167" y="669"/>
      <point x="164" y="666"/>
      <point x="163" y="659" type="curve" smooth="yes"/>
      <point x="156" y="609" type="line" smooth="yes"/>
      <point x="155" y="601"/>
      <point x="159" y="599"/>
      <point x="165" y="599" type="curve" smooth="yes"/>
      <point x="171" y="599" type="line" smooth="yes"/>
      <point x="179" y="599"/>
      <point x="182" y="601"/>
      <point x="183" y="610" type="curve" smooth="yes"/>
      <point x="190" y="659" type="line" smooth="yes"/>
      <point x="191" y="666"/>
      <point x="189" y="669"/>
    </contour>
    <contour>
      <point x="343" y="669" type="curve" smooth="yes"/>
      <point x="335" y="669" type="line" smooth="yes"/>
      <point x="328" y="669"/>
      <point x="325" y="666"/>
      <point x="324" y="659" type="curve" smooth="yes"/>
      <point x="317" y="609" type="line" smooth="yes"/>
      <point x="316" y="601"/>
      <point x="319" y="599"/>
      <point x="326" y="599" type="curve" smooth="yes"/>
      <point x="332" y="599" type="line" smooth="yes"/>
      <point x="340" y="599"/>
      <point x="343" y="601"/>
      <point x="344" y="610" type="curve" smooth="yes"/>
      <point x="351" y="659" type="line" smooth="yes"/>
      <point x="352" y="666"/>
      <point x="350" y="669"/>
    </contour>
    <contour>
      <point x="387" y="754" type="line"/>
      <point x="151" y="754" type="line"/>
      <point x="148" y="733" type="line"/>
      <point x="384" y="733" type="line"/>
    </contour>
  </outline>
</glyph>
<glyph name="dotaccentmacron" format="2">
  <advance width="399"/>
  <anchor x="247" y="572" name="_top"/>
  <outline>
    <contour>
      <point x="387" y="754" type="line"/>
      <point x="151" y="754" type="line"/>
      <point x="148" y="733" type="line"/>
      <point x="384" y="733" type="line"/>
    </contour>
    <contour>
      <point x="264" y="667" type="curve" smooth="yes"/>
      <point x="254" y="667" type="line" smooth="yes"/>
      <point x="246" y="667"/>
      <point x="243" y="663"/>
      <point x="242" y="655" type="curve" smooth="yes"/>
      <point x="235" y="601" type="line" smooth="yes"/>
      <point x="234" y="593"/>
      <point x="238" y="589"/>
      <point x="245" y="589" type="curve" smooth="yes"/>
      <point x="253" y="589" type="line" smooth="yes"/>
      <point x="261" y="589"/>
      <point x="265" y="593"/>
      <point x="266" y="601" type="curve" smooth="yes"/>
      <point x="273" y="655" type="line" smooth="yes"/>
      <point x="274" y="663"/>
      <point x="271" y="667"/>
    </contour>
  </outline>
</glyph>
<glyph name="dotbelow" format="2">
  <advance width="206"/>
  <anchor x="66" y="0" name="_bottom"/>
  <outline>
    <contour>
      <point x="65" y="-64" type="curve" smooth="yes"/>
      <point x="54" y="-64" type="line" smooth="yes"/>
      <point x="45" y="-64"/>
      <point x="42" y="-68"/>
      <point x="41" y="-77" type="curve" smooth="yes"/>
      <point x="33" y="-137" type="line" smooth="yes"/>
      <point x="32" y="-145"/>
      <point x="36" y="-150"/>
      <point x="44" y="-150" type="curve" smooth="yes"/>
      <point x="53" y="-150" type="line" smooth="yes"/>
      <point x="62" y="-150"/>
      <point x="66" y="-146"/>
      <point x="67" y="-137" type="curve" smooth="yes"/>
      <point x="75" y="-77" type="line" smooth="yes"/>
      <point x="76" y="-68"/>
      <point x="73" y="-64"/>
    </contour>
  </outline>
</glyph>
<glyph name="eight.osf" format="2">
  <advance width="551"/>
  <outline>
    <contour>
      <point x="340" y="698" type="curve" smooth="yes"/>
      <point x="179" y="698"/>
      <point x="133" y="639"/>
      <point x="117" y="518" type="curve" smooth="yes"/>
      <point x="104" y="422"/>
      <point x="115" y="368"/>
      <point x="184" y="360" type="curve"/>
      <point x="184" y="356" type="line"/>
      <point x="98" y="347"/>
      <point x="71" y="286"/>
      <point x="55" y="172" type="curve" smooth="yes"/>
      <point x="37" y="44"/>
      <point x="68" y="-9"/>
      <point x="240" y="-8" type="curve" smooth="yes"/>
      <point x="416" y="-7"/>
      <point x="458" y="44"/>
      <point x="476" y="172" type="curve" smooth="yes"/>
      <point x="492" y="286"/>
      <point x="481" y="347"/>
      <point x="399" y="356" type="curve"/>
      <point x="399" y="360" type="line"/>
      <point x="470" y="368"/>
      <point x="497" y="422"/>
      <point x="510" y="518" type="curve" smooth="yes"/>
      <point x="526" y="639"/>
      <point x="502" y="698"/>
    </contour>
    <contour>
      <point x="291" y="347" type="curve" smooth="yes"/>
      <point x="447" y="348"/>
      <point x="472" y="323"/>
      <point x="451" y="172" type="curve" smooth="yes"/>
      <point x="436" y="62"/>
      <point x="400" y="16"/>
      <point x="244" y="16" type="curve" smooth="yes"/>
      <point x="90" y="16"/>
      <point x="64" y="62"/>
      <point x="80" y="172" type="curve" smooth="yes"/>
      <point x="102" y="321"/>
      <point x="131" y="346"/>
    </contour>
    <contour>
      <point x="336" y="675" type="curve" smooth="yes"/>
      <point x="482" y="675"/>
      <point x="501" y="631"/>
      <point x="485" y="518" type="curve" smooth="yes"/>
      <point x="467" y="394"/>
      <point x="445" y="369"/>
      <point x="294" y="369" type="curve" smooth="yes"/>
      <point x="147" y="369"/>
      <point x="125" y="392"/>
      <point x="142" y="518" type="curve" smooth="yes"/>
      <point x="157" y="631"/>
      <point x="192" y="675"/>
    </contour>
  </outline>
</glyph>
<glyph name="euro.rvrn" format="2">
  <advance width="643"/>
  <outline>
    <contour>
      <point x="447" y="297" type="line"/>
      <point x="66" y="297" type="line"/>
      <point x="63" y="276" type="line"/>
      <point x="436" y="276" type="line"/>
    </contour>
    <contour>
      <point x="500" y="436" type="line"/>
      <point x="86" y="436" type="line"/>
      <point x="83" y="415" type="line"/>
      <point x="489" y="415" type="line"/>
    </contour>
    <contour>
      <point x="490" y="702" type="curve" smooth="yes"/>
      <point x="307" y="702"/>
      <point x="223" y="617"/>
      <point x="182" y="426" type="curve"/>
      <point x="208" y="426" type="line"/>
      <point x="253" y="628"/>
      <point x="346" y="679"/>
      <point x="493" y="679" type="curve" smooth="yes"/>
      <point x="534" y="679"/>
      <point x="579" y="675"/>
      <point x="623" y="667" type="curve"/>
      <point x="630" y="685" type="line"/>
      <point x="596" y="694"/>
      <point x="546" y="702"/>
    </contour>
    <contour>
      <point x="161" y="289" type="line"/>
      <point x="143" y="85"/>
      <point x="200" y="-12"/>
      <point x="391" y="-12" type="curve" smooth="yes"/>
      <point x="438" y="-12"/>
      <point x="498" y="-6"/>
      <point x="544" y="6" type="curve"/>
      <point x="539" y="24" type="line"/>
      <point x="489" y="14"/>
      <point x="425" y="11"/>
      <point x="392" y="11" type="curve" smooth="yes"/>
      <point x="235" y="11"/>
      <point x="168" y="78"/>
      <point x="187" y="289" type="curve"/>
    </contour>
  </outline>
</glyph>
<glyph name="f_f_i" format="2">
  <advance width="848"/>
  <outline>
    <contour>
      <point x="300" y="695" type="curve" smooth="yes"/>
      <point x="209" y="695"/>
      <point x="170" y="651"/>
      <point x="158" y="563" type="curve" smooth="yes"/>
      <point x="68" y="-76" type="line" smooth="yes"/>
      <point x="56" y="-158"/>
      <point x="26" y="-188"/>
      <point x="-48" y="-188" type="curve" smooth="yes"/>
      <point x="-127" y="-188" type="line"/>
      <point x="-128" y="-206" type="line"/>
      <point x="-103" y="-209"/>
      <point x="-62" y="-210"/>
      <point x="-40" y="-210" type="curve" smooth="yes"/>
      <point x="45" y="-210"/>
      <point x="79" y="-167"/>
      <point x="92" y="-78" type="curve" smooth="yes"/>
      <point x="182" y="561" type="line" smooth="yes"/>
      <point x="194" y="643"/>
      <point x="228" y="673"/>
      <point x="308" y="673" type="curve" smooth="yes"/>
      <point x="417" y="673" type="line"/>
      <point x="418" y="691" type="line"/>
      <point x="384" y="694"/>
      <point x="329" y="695"/>
    </contour>
    <contour>
      <point x="606" y="714" type="curve" smooth="yes"/>
      <point x="515" y="714"/>
      <point x="476" y="670"/>
      <point x="464" y="582" type="curve" smooth="yes"/>
      <point x="376" y="-44" type="line" smooth="yes"/>
      <point x="364" y="-126"/>
      <point x="334" y="-156"/>
      <point x="260" y="-156" type="curve" smooth="yes"/>
      <point x="181" y="-156" type="line"/>
      <point x="180" y="-174" type="line"/>
      <point x="205" y="-177"/>
      <point x="246" y="-178"/>
      <point x="268" y="-178" type="curve" smooth="yes"/>
      <point x="353" y="-178"/>
      <point x="387" y="-135"/>
      <point x="400" y="-46" type="curve" smooth="yes"/>
      <point x="488" y="580" type="line" smooth="yes"/>
      <point x="500" y="662"/>
      <point x="534" y="692"/>
      <point x="614" y="692" type="curve" smooth="yes"/>
      <point x="723" y="692" type="line"/>
      <point x="724" y="710" type="line"/>
      <point x="690" y="713"/>
      <point x="635" y="714"/>
    </contour>
    <contour>
      <point x="769" y="480" type="line"/>
      <point x="153" y="480" type="line"/>
      <point x="59" y="475" type="line"/>
      <point x="56" y="458" type="line"/>
      <point x="765" y="457" type="line"/>
    </contour>
    <contour>
      <point x="778" y="480" type="line"/>
      <point x="754" y="480" type="line"/>
      <point x="686" y="0" type="line"/>
      <point x="710" y="0" type="line"/>
    </contour>
    <contour>
      <point x="798" y="679" type="curve" smooth="yes"/>
      <point x="788" y="679" type="line" smooth="yes"/>
      <point x="780" y="679"/>
      <point x="776" y="676"/>
      <point x="775" y="668" type="curve" smooth="yes"/>
      <point x="766" y="606" type="line" smooth="yes"/>
      <point x="765" y="598"/>
      <point x="770" y="593"/>
      <point x="778" y="593" type="curve" smooth="yes"/>
      <point x="788" y="593" type="line" smooth="yes"/>
      <point x="796" y="593"/>
      <point x="799" y="596"/>
      <point x="800" y="604" type="curve" smooth="yes"/>
      <point x="809" y="666" type="line" smooth="yes"/>
      <point x="810" y="674"/>
      <point x="806" y="679"/>
    </contour>
  </outline>
</glyph>
<glyph name="hook" format="2">
  <advance width="248"/>
  <anchor x="141" y="554" name="_top"/>
  <outline>
    <contour>
      <point x="134" y="579" type="curve"/>
      <point x="137" y="565" type="line"/>
      <point x="205" y="578"/>
      <point x="247" y="626"/>
      <point x="247" y="682" type="curve" smooth="yes"/>
      <point x="247" y="733"/>
      <point x="200" y="747"/>
      <point x="136" y="730" type="curve"/>
      <point x="137" y="715" type="line"/>
      <point x="196" y="727"/>
      <point x="223" y="716"/>
      <point x="223" y="679" type="curve" smooth="yes"/>
      <point x="223" y="633"/>
      <point x="194" y="595"/>
    </contour>
  </outline>
</glyph>
<glyph name="one.tosf" format="2">
  <advance width="620"/>
  <outline>
    <contour>
      <point x="457" y="21" type="line"/>
      <point x="107" y="21" type="line"/>
      <point x="104" y="-1" type="line"/>
      <point x="454" y="-1" type="line"/>
    </contour>
    <contour>
      <point x="372" y="527" type="line"/>
      <point x="347" y="527" type="line"/>
      <point x="162" y="459" type="line"/>
      <point x="164" y="443" type="line"/>
      <point x="346" y="501" type="line"/>
      <point x="342" y="486"/>
      <point x="339" y="470"/>
      <point x="337" y="455" type="curve" smooth="yes"/>
      <point x="273" y="0" type="line"/>
      <point x="298" y="0" type="line"/>
    </contour>
  </outline>
</glyph>
<glyph name="oslash.BRACKET.144" format="2">
  <advance width="557"/>
  <anchor x="243" y="-12" name="bottom"/>
  <anchor x="315" y="558" name="top"/>
  <outline>
    <contour>
      <point x="445" y="539" type="line"/>
      <point x="86" y="-52" type="line"/>
      <point x="104" y="-61" type="line"/>
      <point x="463" y="530" type="line"/>
    </contour>
    <component base="o"/>
  </outline>
</glyph>
<glyph name="oslash.rvrn" format="2">
  <advance width="557"/>
  <anchor x="315" y="558" name="top"/>
  <outline>
    <contour>
      <point x="148" y="12" type="line"/>
      <point x="131" y="22" type="line"/>
      <point x="86" y="-52" type="line"/>
      <point x="104" y="-61" type="line"/>
    </contour>
    <contour>
      <point x="399" y="463" type="line"/>
      <point x="417" y="454" type="line"/>
      <point x="463" y="530" type="line"/>
      <point x="445" y="539" type="line"/>
    </contour>
    <component base="o"/>
  </outline>
</glyph>
<glyph name="peseta.BRACKET.144" format="2">
  <advance width="567"/>
  <outline>
    <contour>
      <point x="319" y="698" type="curve" smooth="yes"/>
      <point x="277" y="698"/>
      <point x="230" y="697"/>
      <point x="159" y="690" type="curve"/>
      <point x="172" y="672" type="line"/>
      <point x="199" y="674"/>
      <point x="278" y="675"/>
      <point x="320" y="675" type="curve" smooth="yes"/>
      <point x="446" y="675"/>
      <point x="486" y="639"/>
      <point x="466" y="497" type="curve" smooth="yes"/>
      <point x="446" y="353"/>
      <point x="394" y="317"/>
      <point x="266" y="315" type="curve" smooth="yes"/>
      <point x="208" y="314"/>
      <point x="184" y="315"/>
      <point x="119" y="315" type="curve"/>
      <point x="115" y="297" type="line"/>
      <point x="137" y="295"/>
      <point x="169" y="292"/>
      <point x="266" y="292" type="curve" smooth="yes"/>
      <point x="411" y="292"/>
      <point x="469" y="335"/>
      <point x="492" y="494" type="curve" smooth="yes"/>
      <point x="515" y="653"/>
      <point x="466" y="698"/>
    </contour>
    <contour>
      <point x="184" y="690" type="line"/>
      <point x="159" y="690" type="line"/>
      <point x="62" y="0" type="line"/>
      <point x="87" y="0" type="line"/>
    </contour>
    <contour>
      <point x="594" y="495" type="line"/>
      <point x="40" y="495" type="line"/>
      <point x="38" y="474" type="line"/>
      <point x="584" y="474" type="line"/>
    </contour>
  </outline>
</glyph>
<glyph name="peso.rvrn" format="2">
  <advance width="625"/>
  <outline>
    <contour>
      <point x="544" y="451" type="line"/>
      <point x="538" y="430" type="line"/>
      <point x="631" y="430" type="line"/>
      <point x="642" y="451" type="line"/>
    </contour>
    <contour>
      <point x="557" y="551" type="line"/>
      <point x="557" y="530" type="line"/>
      <point x="646" y="530" type="line"/>
      <point x="657" y="551" type="line"/>
    </contour>
    <contour>
      <point x="391" y="698" type="curve" smooth="yes"/>
      <point x="289" y="698"/>
      <point x="242" y="697"/>
      <point x="171" y="690" type="curve"/>
      <point x="184" y="675" type="line"/>
      <point x="392" y="675" type="line" smooth="yes"/>
      <point x="518" y="675"/>
      <point x="558" y="639"/>
      <point x="538" y="497" type="curve" smooth="yes"/>
      <point x="518" y="353"/>
      <point x="466" y="315"/>
      <point x="338" y="315" type="curve" smooth="yes"/>
      <point x="131" y="315" type="line"/>
      <point x="127" y="297" type="line"/>
      <point x="149" y="295"/>
      <point x="231" y="292"/>
      <point x="338" y="292" type="curve" smooth="yes"/>
      <point x="483" y="292"/>
      <point x="541" y="335"/>
      <point x="564" y="494" type="curve" smooth="yes"/>
      <point x="586" y="653"/>
      <point x="538" y="698"/>
    </contour>
    <contour>
      <point x="145" y="430" type="line"/>
      <point x="148" y="451" type="line"/>
      <point x="36" y="451" type="line"/>
      <point x="33" y="430" type="line"/>
    </contour>
    <contour>
      <point x="162" y="530" type="line"/>
      <point x="165" y="551" type="line"/>
      <point x="51" y="551" type="line"/>
      <point x="48" y="530" type="line"/>
    </contour>
    <contour>
      <point x="99" y="0" type="line"/>
      <point x="196" y="690" type="line"/>
      <point x="171" y="690" type="line"/>
      <point x="74" y="0" type="line"/>
    </contour>
  </outline>
</glyph>
<glyph name="six.osf" format="2">
  <advance width="537"/>
  <outline>
    <contour>
      <point x="376" y="702" type="curve" smooth="yes"/>
      <point x="207" y="702"/>
      <point x="132" y="647"/>
      <point x="85" y="302" type="curve" smooth="yes"/>
      <point x="54" y="76"/>
      <point x="77" y="-12"/>
      <point x="243" y="-12" type="curve" smooth="yes"/>
      <point x="425" y="-12"/>
      <point x="475" y="113"/>
      <point x="475" y="296" type="curve" smooth="yes"/>
      <point x="475" y="391"/>
      <point x="432" y="431"/>
      <point x="322" y="431" type="curve" smooth="yes"/>
      <point x="229" y="431"/>
      <point x="176" y="398"/>
      <point x="101" y="315" type="curve"/>
      <point x="103" y="299" type="line"/>
      <point x="187" y="381"/>
      <point x="241" y="409"/>
      <point x="317" y="409" type="curve" smooth="yes"/>
      <point x="414" y="409"/>
      <point x="449" y="371"/>
      <point x="449" y="296" type="curve" smooth="yes"/>
      <point x="449" y="133"/>
      <point x="412" y="10"/>
      <point x="247" y="10" type="curve" smooth="yes"/>
      <point x="86" y="10"/>
      <point x="82" y="99"/>
      <point x="111" y="299" type="curve" smooth="yes"/>
      <point x="158" y="623"/>
      <point x="214" y="679"/>
      <point x="373" y="679" type="curve" smooth="yes"/>
      <point x="415" y="679"/>
      <point x="450" y="678"/>
      <point x="485" y="672" type="curve"/>
      <point x="495" y="690" type="line"/>
      <point x="451" y="701"/>
      <point x="400" y="702"/>
    </contour>
  </outline>
</glyph>
